<?xml version="1.0" encoding="UTF-8"?>
<svg width="24px" height="24px" viewBox="0 0 24 24" version="1.1" xmlns="http://www.w3.org/2000/svg" xmlns:xlink="http://www.w3.org/1999/xlink">
    <title>Earth Icon</title>
    <g id="Extra-screens-" stroke="none" stroke-width="1" fill="none" fill-rule="evenodd">
        <g id="How-Offsetting-works-(flowchart)" transform="translate(-846.000000, -1110.000000)" fill-rule="nonzero">
            <g id="Card-5" transform="translate(814.000000, 1078.000000)">
                <g id="ECOLOGY" transform="translate(24.000000, 24.000000)">
                    <g id="Group-14" transform="translate(8.000000, 8.000000)">
                        <path d="M23.928369,15.2529192 C23.774921,14.9739311 23.4247435,14.8724951 23.1463181,15.0262479 L22.8455978,15.1923198 C23.0569289,14.5551343 23.1724336,14.0277723 23.1969267,13.9112389 C23.574842,12.5439767 23.3737687,10.0492816 23.3649763,9.94323258 C23.3641389,9.93348215 23.3630922,9.92383656 23.3617838,9.91413855 C23.1169579,8.08918276 22.4346586,6.67993086 22.3766184,6.56250631 C21.0748227,3.82389314 18.8814376,2.26324745 18.7884896,2.19803488 C16.5635985,0.637127074 14.4636848,0.233742281 14.2945884,0.203232866 C11.2765513,-0.399039763 8.50009525,0.52531164 8.38333453,0.564994848 C8.38045607,0.56599086 8.37762995,0.56693445 8.37475149,0.567982884 C4.1963817,2.06110946 2.47647681,5.08369085 2.40530039,5.21159974 C2.25054402,5.48985399 2.35024334,5.84102679 2.62798838,5.99603769 C2.90573342,6.15099616 3.25632962,6.05113287 3.41108599,5.77298346 C3.42642032,5.74546208 4.98565491,3.00564321 8.7563827,1.6560996 C8.86335667,1.62066255 11.3989119,0.799529424 14.0749882,1.33538379 C14.0796461,1.33632738 14.0843563,1.33716613 14.0890665,1.33800487 C14.1085877,1.34135986 16.0648402,1.69520617 18.1278573,3.14256863 C18.1481111,3.1567749 20.166486,4.59265701 21.3389605,7.06234699 C21.3404782,7.06554471 21.3422576,7.06921423 21.3438277,7.0723071 C21.3503173,7.0853601 21.9932078,8.39270426 22.2186696,10.0531084 C22.2740407,10.7344329 22.3546898,12.6587802 22.0833297,13.6173105 C22.0794046,13.6311499 22.0759504,13.6454086 22.0730719,13.65951 C22.0713449,13.6679499 21.974838,14.1335592 21.7885756,14.7174318 L21.688824,14.3092767 C21.6132513,13.9999888 21.3014882,13.8105893 20.9928128,13.8862862 C20.6839804,13.9619831 20.4948919,14.2741017 20.5704645,14.5834944 L21.0767591,16.6556184 C21.0773871,16.6581871 21.0782768,16.6606509 21.0789572,16.6632196 C21.0813123,16.6723934 21.0840861,16.6815147 21.0869122,16.6905837 C21.0889533,16.6971888 21.090942,16.703794 21.0932448,16.7102942 C21.0960709,16.7183148 21.0992634,16.7262304 21.1024559,16.7341985 C21.1053867,16.7414851 21.1082128,16.7487717 21.1114053,16.7558487 C21.1143361,16.7624014 21.1176332,16.7687444 21.1208257,16.7751399 C21.1248555,16.7832652 21.128833,16.791443 21.1332292,16.7993062 C21.1360553,16.8043387 21.1391431,16.8092139 21.1421263,16.814194 C21.1474122,16.8230533 21.152698,16.8319125 21.1584026,16.8404573 C21.1610717,16.8444413 21.1640549,16.8482681 21.166881,16.8522521 C21.1733706,16.8613735 21.1799126,16.8704949 21.1868732,16.8791969 C21.1897517,16.8827616 21.1928395,16.886169 21.1957702,16.8896812 C21.2030972,16.8983832 21.2104766,16.9070328 21.2182746,16.915263 C21.2190596,16.9161017 21.21974,16.9169929 21.220525,16.9178317 C21.2224614,16.9198761 21.2246072,16.9215536 21.2265436,16.9234932 C21.2366967,16.9337678 21.2471638,16.9436755 21.2580496,16.9531639 C21.2624981,16.9570431 21.266999,16.9608174 21.2715522,16.9645394 C21.2811819,16.9724026 21.2910734,16.9798989 21.3011741,16.9871855 C21.3060937,16.9906978 21.3109609,16.9943673 21.3159851,16.9977223 C21.328441,17.0060573 21.3412109,17.0138157 21.3542424,17.0211548 C21.3567022,17.0225702 21.3591097,17.0241952 21.3615694,17.0255058 C21.3770084,17.0339457 21.3929185,17.041442 21.4091425,17.048414 C21.413748,17.0504061 21.4184582,17.0520311 21.4231161,17.0538659 C21.4353626,17.0587935 21.4477138,17.0633018 21.4602744,17.0673907 C21.4651939,17.0689633 21.4701135,17.0704311 21.4750854,17.0718465 C21.4881693,17.0756733 21.5014102,17.0790283 21.5147557,17.0819115 C21.5188903,17.0828027 21.5229724,17.0837463 21.5271069,17.0845326 C21.5427553,17.087573 21.558613,17.089932 21.5745753,17.0916619 C21.5764594,17.0918716 21.5782912,17.0921861 21.5801752,17.0923958 C21.5984927,17.0941782 21.6168625,17.0953314 21.635494,17.0953314 C21.6587833,17.0953314 21.682282,17.0937588 21.705833,17.0908756 C21.7152011,17.0897223 21.7245168,17.0874158 21.7338326,17.0857907 C21.7468118,17.0835366 21.759791,17.0818591 21.7727703,17.0786614 C21.7735553,17.0785041 21.7742357,17.0781896 21.7750207,17.0779799 C21.7802542,17.0766693 21.7854355,17.0747297 21.790669,17.0733143 C21.8073118,17.0687012 21.8236405,17.0635115 21.8394982,17.0575354 C21.8459354,17.055124 21.8522157,17.0522932 21.8586006,17.0496722 C21.8741967,17.0431195 21.889374,17.0359901 21.9041326,17.0281793 C21.9073251,17.0265018 21.9106746,17.0253485 21.913867,17.0236186 L23.7020176,16.0363612 C23.9805476,15.882556 24.0818694,15.531855 23.928369,15.2529192 Z" id="Path" fill="#FFFFFF"></path>
                        <path d="M21.4089855,17.9688338 C21.1315545,17.8145568 20.781377,17.9147347 20.6265159,18.192255 C20.6110769,18.2199336 19.0391771,20.9749548 15.2964489,22.3307366 C15.1925627,22.3655446 12.6586822,23.1977911 9.97899469,22.6718969 C9.97496485,22.6711105 9.96994063,22.6702194 9.96591079,22.6694855 C9.94623261,22.666078 7.97495982,22.3106591 5.91926971,20.8802288 C5.8989635,20.866075 3.87514577,19.4379513 2.69325087,16.9727696 C2.69173314,16.9696243 2.6899014,16.9659023 2.68833133,16.9628094 C2.68178938,16.9498089 2.03392696,15.6449285 1.80208024,13.9854156 C1.74430174,13.3036192 1.65663961,11.3784332 1.92381285,10.4206892 C1.92768569,10.4067975 1.9310875,10.3925388 1.93386129,10.3784373 C1.9356407,10.3695781 2.03947454,9.858624 2.24122828,9.23512059 L2.35380216,9.63892475 C2.42482157,9.89374652 2.6560926,10.0606047 2.90793151,10.0606047 C2.95916807,10.0606047 3.01134666,10.0536851 3.06310657,10.0392167 C3.36937452,9.95350723 3.5482576,9.6354125 3.46274123,9.32869328 L2.9145258,7.36272319 C2.91447346,7.36256592 2.91442113,7.36246108 2.91436879,7.36230381 C2.90955392,7.34505708 2.90374467,7.32807246 2.89730739,7.31129752 C2.89521396,7.30584567 2.89285886,7.3006035 2.89060843,7.29525649 C2.88610757,7.2844052 2.88134503,7.27371118 2.87611147,7.263122 C2.872919,7.25656929 2.86956952,7.25012143 2.86611537,7.2437784 C2.86130049,7.23491914 2.85622394,7.22616472 2.85093804,7.21751515 C2.84685587,7.21080517 2.84282603,7.2040952 2.83848217,7.19759491 C2.83319627,7.18967924 2.82749169,7.18202567 2.82178711,7.17431968 C2.81702457,7.16787182 2.81241904,7.16126669 2.80734249,7.15502851 C2.80069587,7.14679831 2.79342122,7.13893505 2.78625124,7.13101938 C2.77808689,7.12200285 2.76966085,7.11324843 2.76097314,7.10475612 C2.75286113,7.09684045 2.74474911,7.08892478 2.7362184,7.08158574 C2.73114185,7.07718232 2.72580362,7.07319827 2.72057006,7.06895212 C2.71209169,7.06208488 2.70350865,7.05532248 2.69471627,7.04903188 C2.6893257,7.04515268 2.68377813,7.04153558 2.67823056,7.03786606 C2.6691765,7.03183757 2.66001777,7.02596634 2.65064969,7.02051449 C2.64489278,7.0171595 2.63913586,7.01390936 2.63327427,7.01071164 C2.62380153,7.00557431 2.61422412,7.00080394 2.60454203,6.99624325 C2.59841876,6.99336006 2.59234783,6.99042445 2.5861199,6.98775094 C2.57633314,6.98355721 2.56638938,6.97983527 2.55639328,6.97621817 C2.55000833,6.97391162 2.54372806,6.97134296 2.53729078,6.96924609 C2.52551527,6.96541931 2.51358275,6.96227401 2.50165024,6.95923355 C2.49003173,6.95624552 2.47825622,6.9537817 2.46642838,6.95157999 C2.45795001,6.95000734 2.44952398,6.94827742 2.44099327,6.94707172 C2.43209622,6.9458136 2.42314683,6.94502728 2.41419745,6.94413611 C2.40598076,6.94334978 2.3978164,6.94261588 2.38959971,6.94219651 C2.380912,6.94172471 2.37217196,6.94145592 2.36343191,6.94145592 C2.35411617,6.94145592 2.34485277,6.94167229 2.33553704,6.94203924 C2.32789604,6.94235377 2.32025504,6.94261588 2.31256171,6.94329736 C2.29890211,6.94439822 2.28524252,6.94618055 2.27163527,6.94827742 C2.26818112,6.94880164 2.2647793,6.94906375 2.26132515,6.94969281 C2.24337404,6.95283811 2.2255276,6.95697942 2.20778583,6.96180221 C2.20694846,6.9620119 2.20611109,6.96216916 2.20522139,6.96237885 C2.2024476,6.96316518 2.19993549,6.96426603 2.19721404,6.96505236 C2.18365912,6.96908883 2.17020887,6.97354467 2.15686329,6.97857715 C2.1508447,6.98083128 2.14493077,6.9832951 2.13901685,6.98575892 C2.12902075,6.98995265 2.11907699,6.99446092 2.10923789,6.99923129 C2.10206791,7.00269112 2.09495027,7.00620337 2.08798964,7.00992531 C2.08547753,7.01128827 2.08286075,7.01238913 2.08034864,7.01380451 L0.295966292,8.00792917 C0.0180642452,8.16273037 -0.0818444189,8.51385076 0.0727026137,8.79215743 C0.227197311,9.07046411 0.577793508,9.17053708 0.855590883,9.01584072 L1.15568322,8.848668 C0.946811837,9.48653494 0.833295917,10.014264 0.80922154,10.131007 C0.436539718,11.499737 0.647085845,13.9936982 0.656296911,14.0996948 C0.657134281,14.1093928 0.658233328,14.1190908 0.659541718,14.1287888 C0.911432971,15.9537446 1.59975081,17.3608472 1.65763398,17.476804 C2.96984453,20.2101226 5.1690912,21.7624332 5.26224857,21.8272788 C7.4930536,23.3795895 9.59448503,23.7749013 9.76368603,23.8048341 C10.4851846,23.9459008 11.1922386,24 11.8526616,24 C13.9569191,24 15.5847657,23.4509878 15.6735269,23.420426 C15.6764053,23.4194299 15.6792315,23.4184864 15.6821099,23.4174379 C19.8547751,21.9082703 21.5631138,18.8791886 21.6337669,18.7509652 C21.7871625,18.472711 21.6864165,18.1232157 21.4089855,17.9688338 Z" id="Path" fill="#FFFFFF"></path>
                        <path d="M3.08582022,5.21159974 C3.15699664,5.08369085 4.87690153,2.06110946 9.05527132,0.567982884 C9.05814978,0.56693445 9.0609759,0.56599086 9.06385436,0.564994848 C9.14717264,0.536634722 10.585983,0.057605452 12.500367,0.00481682484 C10.2556407,-0.0590851975 8.47643956,0.533384578 8.38349153,0.564994848 C8.38061307,0.56599086 8.37778695,0.56693445 8.37490849,0.567982884 C4.19653871,2.06110946 2.47663382,5.08369085 2.4054574,5.21159974 C2.25070102,5.48985399 2.35040035,5.84102679 2.62814539,5.99603769 C2.83105051,6.10926851 3.07257932,6.08594086 3.24847928,5.95693112 C3.01741759,5.78755668 2.94283936,5.46867563 3.08582022,5.21159974 Z" id="Path" fill="#FFFFFF"></path>
                        <g id="Group" transform="translate(0.000157, 6.941404)" fill="#FFFFFF">
                            <path d="M10.4438918,16.8634306 C10.2746908,16.8335502 8.17325942,16.4382384 5.94245439,14.8858753 C5.84929701,14.8210297 3.65005035,13.2686666 2.3378398,10.5354005 C2.28000896,10.4194437 1.59163879,9.0122887 1.33974754,7.18738533 C1.33843915,7.17768732 1.3373401,7.16798931 1.33650273,7.1582913 C1.32729166,7.05229467 1.11674554,4.55833347 1.48942736,3.18960352 C1.51350174,3.07286045 1.62696532,2.54513144 1.83588904,1.9072645 L1.5357967,2.07443722 C1.39339153,2.15375121 1.23204087,2.16570336 1.08764694,2.12140704 C0.921952427,2.66035429 0.830417459,3.08617555 0.809064533,3.1895511 C0.436382712,4.55828104 0.646928838,7.05224225 0.656139904,7.15823888 C0.656977274,7.16793689 0.658076321,7.1776349 0.659384712,7.18733291 C0.911275964,9.0122887 1.5995938,10.4193913 1.65747698,10.5353481 C2.96968752,13.2686666 5.16893419,14.8209773 5.26209156,14.8858229 C7.49289659,16.4381335 9.59432802,16.8334454 9.76352902,16.8633782 C10.4850276,17.0044449 11.1920816,17.0585441 11.8525046,17.0585441 C11.970155,17.0585441 12.086026,17.0565521 12.2005363,17.0533019 C11.6373529,17.0376802 11.0458559,16.9811697 10.4438918,16.8634306 Z" id="Path"></path>
                            <path d="M0.920277687,2.03831868 C0.853392788,1.99024801 0.795509612,1.92760411 0.752856097,1.85080635 C0.598309064,1.57249968 0.698270064,1.22137929 0.976119775,1.06657809 L2.69586765,0.108467126 C2.69550131,0.108205017 2.69513496,0.107838066 2.69471627,0.107575957 C2.6893257,0.103696753 2.68377813,0.100079658 2.67823056,0.0964101405 C2.6691765,0.0903816478 2.66001777,0.0845104202 2.65064969,0.0790585659 C2.64489278,0.0757035787 2.63913586,0.0724534348 2.63327427,0.0692557126 C2.62380153,0.0641183884 2.61422412,0.059348016 2.60454203,0.0547873302 C2.59841876,0.0519041381 2.59234783,0.0489685243 2.5861199,0.0462950188 C2.57633314,0.0421012848 2.56638938,0.0383793458 2.55639328,0.0347622502 C2.55000833,0.0324556965 2.54372806,0.0298870344 2.53729078,0.0277901674 C2.52551527,0.0239633851 2.51358275,0.0208180846 2.50165024,0.0177776274 C2.49003173,0.0147895919 2.47825622,0.0123257731 2.46642838,0.0101240628 C2.45795001,0.00855141251 2.44952398,0.00682149722 2.44099327,0.00561579868 C2.43209622,0.00435767847 2.42314683,0.00357135334 2.41419745,0.00268018486 C2.40598076,0.00189385973 2.3978164,0.00115995627 2.38959971,0.000740582868 C2.380912,0.00026878779 2.37217196,5.91010879e-05 2.36343191,0 C2.35411617,-4.57422629e-05 2.34485277,0.000216366114 2.33553704,0.000583317842 C2.32789604,0.000897847895 2.32025504,0.00115995627 2.31256171,0.00184143805 C2.29890211,0.00294229324 2.28524252,0.0047246302 2.27163527,0.00682149722 C2.26818112,0.00734571397 2.2647793,0.00760782235 2.26132515,0.00823688245 C2.24337404,0.011382183 2.2255276,0.0155234953 2.20778583,0.0203462895 C2.20694846,0.0205559762 2.20611109,0.0207132412 2.20522139,0.0209229279 C2.2024476,0.021709253 2.19993549,0.0228101082 2.19721404,0.0235964333 C2.18365912,0.0276329024 2.17020887,0.0320887448 2.15686329,0.0371212256 C2.1508447,0.0393753577 2.14493077,0.0418391764 2.13901685,0.0443029951 C2.12902075,0.0484967292 2.11907699,0.0530049933 2.10923789,0.0577753657 C2.10206791,0.0612351963 2.09495027,0.0647474486 2.08798964,0.0684693875 C2.08547753,0.0698323511 2.08286075,0.0709332063 2.08034864,0.0723485915 L0.295966292,1.06647324 C0.0180642452,1.22127445 -0.0818444189,1.57239483 0.0727026137,1.85070151 C0.227197311,2.12900818 0.577793508,2.22908116 0.855590883,2.0743848 L0.920277687,2.03831868 Z" id="Path"></path>
                        </g>
                        <ellipse id="Oval" fill="#FFFFFF" cx="11.9999863" cy="11.999997" rx="8.35783863" ry="8.3715843"></ellipse>
                        <path d="M13.9242617,16.6710828 L12.1220329,16.6710828 C11.5150446,16.6710828 11.0229853,16.1782142 11.0229853,15.5702276 L11.0229853,14.6325087 C11.0229853,14.0245221 11.5150446,13.5316535 12.1220329,13.5316535 L13.9242617,13.5316535 C14.53125,13.5316535 15.0233094,14.0245221 15.0233094,14.6325087 L15.0233094,15.5702276 C15.0233094,16.1782142 14.53125,16.6710828 13.9242617,16.6710828 Z" id="Path" fill="#86AF48"></path>
                        <path d="M8.21695965,9.43065344 L4.04487013,9.43065344 C3.7843435,10.2404635 3.64214767,11.1034291 3.64214767,11.999997 C3.64214767,13.0774197 3.84756491,14.1061427 4.21768229,15.0521442 L6.36904188,15.0521442 C7.26659745,15.0521442 7.99421933,14.3233257 7.99421933,13.4242939 L7.99421933,12.9101421 C7.99421933,12.7868988 8.09397098,12.6869831 8.21701198,12.6869831 C9.11456756,12.6869831 9.84218943,11.9581645 9.84218943,11.0591328 L9.84218943,11.0584513 C9.84218943,10.159472 9.11451522,9.43065344 8.21695965,9.43065344 Z" id="Path" fill="#86AF48"></path>
                        <path d="M12.3060449,18.5826916 L6.83959127,18.5826916 C8.26076455,19.7020517 10.0517935,20.3715813 11.9999863,20.3715813 C12.6346078,20.3715813 13.2518539,20.2984007 13.84602,20.1641487 L13.84602,20.1251994 C13.84602,19.2732948 13.1565508,18.5826916 12.3060449,18.5826916 Z" id="Path" fill="#86AF48"></path>
                        <path d="M11.9999863,3.62841272 C10.7883648,3.62841272 9.63713854,3.88700884 8.59780582,4.35156973 C8.75376592,5.15891595 9.46286099,5.7687373 10.3144136,5.7687373 L12.6121035,5.7687373 C13.577957,5.7687373 14.36095,4.98445662 14.36095,4.0170146 L14.36095,3.96779064 C13.6122369,3.74725265 12.8200328,3.62841272 11.9999863,3.62841272 Z" id="Path" fill="#FFFFFF"></path>
                        <path d="M6.99042248,14.9286388 C6.65050275,14.0170782 6.46450202,13.030345 6.46450202,11.999997 C6.46450202,11.1035864 6.60538946,10.2402538 6.86581141,9.43065344 L4.0448178,9.43065344 C3.8826821,9.93468785 3.76644473,10.4592716 3.70170559,10.9997914 C3.70065888,11.0084934 3.69971684,11.0172479 3.69872246,11.0259499 C3.68684228,11.1281197 3.6765845,11.2308138 3.66842015,11.3340845 C3.66842015,11.3341369 3.66842015,11.3341369 3.66842015,11.3341893 C3.66601271,11.3643842 3.66418096,11.3947364 3.66208754,11.4250361 C3.6596801,11.4606828 3.65727266,11.496382 3.65533625,11.532186 C3.65381851,11.5591831 3.65256246,11.5862327 3.6513064,11.6132823 C3.64942232,11.6551148 3.64779992,11.6969997 3.64654386,11.7389371 C3.6458635,11.7611639 3.64507847,11.7833907 3.64455511,11.8056699 C3.64308971,11.8698864 3.64214767,11.9342602 3.64209534,11.9988437 C3.64209534,11.9992631 3.64209534,11.9996301 3.64209534,12.0000494 C3.64209534,12.0015697 3.64214767,12.0031423 3.64214767,12.0046625 C3.64220001,12.0725486 3.64303738,12.1401726 3.64471212,12.2076917 C3.64549715,12.2398786 3.64701488,12.2719082 3.64816627,12.3040427 C3.64947466,12.340004 3.65052137,12.3759653 3.65224844,12.4118217 C3.65434187,12.4550172 3.65716799,12.4980029 3.65994178,12.5410411 C3.66145951,12.5646833 3.66271557,12.5883255 3.66444264,12.6119152 C3.6682108,12.66397 3.67265933,12.715815 3.67742187,12.7676076 C3.67862559,12.7808179 3.6796723,12.7940806 3.68092835,12.8072384 C3.68673761,12.8675757 3.69317489,12.9277558 3.70029253,12.9877262 C3.70065888,12.9910812 3.70102523,12.9943838 3.70144391,12.9977388 C3.78711729,13.7142382 3.96354061,14.4027445 4.21762995,15.0521966 L6.36898954,15.0521966 C6.58916542,15.0521966 6.79897885,15.0080576 6.99042248,14.9286388 Z" id="Path" fill="#86AF48"></path>
                        <path d="M9.65938117,18.5826916 L6.83959127,18.5826916 C7.81287646,19.3492538 8.95960184,19.9047139 10.2115218,20.1788268 C10.2204188,20.1807664 10.2293159,20.1827584 10.2382653,20.1846456 C10.2861,20.1949727 10.3340918,20.204828 10.3822405,20.2143163 C10.3969468,20.2171995 10.4116531,20.2199778 10.4263594,20.2228086 C10.4716821,20.2314582 10.517057,20.2399505 10.562589,20.2478662 C10.5792317,20.2507494 10.5959791,20.2533704 10.6126742,20.2561488 C10.7463916,20.2785853 10.8812081,20.2977192 11.0169667,20.3137078 C11.0504615,20.3176394 11.0838516,20.3216759 11.117451,20.3251881 C11.1476487,20.3283859 11.1780033,20.3311118 11.2083056,20.333995 C11.2444695,20.3374024 11.2806858,20.3407049 11.3170067,20.3436406 C11.3457913,20.3459995 11.3746282,20.3480964 11.4035174,20.3501408 C11.4423505,20.3528668 11.4812881,20.3553306 11.5202782,20.3575323 C11.5471263,20.3590525 11.5739745,20.3605728 11.600875,20.3618833 C11.6446276,20.3639277 11.6884848,20.3655004 11.7323944,20.3668634 C11.7548987,20.3675973 11.7773506,20.3684884 11.799855,20.3690127 C11.8658502,20.3705853 11.93195,20.3715289 11.9983116,20.3715289 C11.9988873,20.3715289 11.9994106,20.3715289 11.9999863,20.3715289 C12.0727328,20.3715289 12.1451129,20.3703232 12.2173884,20.3683836 C12.2346591,20.3679118 12.2519299,20.3672827 12.2692006,20.3667061 C12.3306426,20.3647141 12.3919276,20.3621454 12.4529509,20.3587904 C12.4633134,20.3582138 12.4736235,20.357742 12.4839336,20.3571129 C12.7963772,20.3387653 13.1041105,20.3029613 13.4064009,20.2511687 C12.0083077,20.0122832 10.7287545,19.4252652 9.65938117,18.5826916 Z" id="Path" fill="#FFFFFF"></path>
                        <path d="M13.2285122,3.71884011 C13.2059032,3.71548512 13.1831896,3.71260193 13.1605283,3.7094042 C13.0913929,3.69975862 13.0220483,3.69089935 12.9524419,3.68298368 C12.9330777,3.68078197 12.9138182,3.67826573 12.8944541,3.67616886 C12.8122872,3.66736202 12.7296493,3.66012783 12.6467497,3.65373239 C12.6247164,3.65205489 12.6027354,3.65032498 12.5806498,3.64880475 C12.4960755,3.64298594 12.4111871,3.63826799 12.3259324,3.63496543 C12.3089757,3.63428394 12.2919666,3.63386457 12.2750099,3.63334035 C12.1836843,3.63035232 12.092097,3.62836029 12.000091,3.62836029 C11.9999863,3.62836029 11.999934,3.62836029 11.9998816,3.62836029 C11.9259314,3.62836029 11.8522429,3.62940873 11.7787637,3.63129591 C11.755265,3.63192497 11.7319757,3.63318309 11.7085817,3.63396941 C11.6584442,3.63569933 11.608359,3.63737682 11.5584832,3.63999791 C11.531635,3.64141329 11.5048915,3.64345774 11.4780957,3.64508281 C11.4317787,3.647966 11.3854617,3.65074435 11.339354,3.65436145 C11.3118778,3.65651073 11.284611,3.65923666 11.2572394,3.66164806 C11.2118645,3.66568453 11.1664895,3.66961615 11.1213239,3.6743341 C11.0941617,3.67716487 11.0671565,3.68051986 11.0400467,3.68366516 C10.9948811,3.68885491 10.9496631,3.69404465 10.9046545,3.6999683 C10.8783297,3.70342813 10.8521095,3.70730734 10.8258371,3.71102928 C10.7800958,3.71747714 10.7344068,3.72402985 10.6889271,3.73121162 C10.663806,3.73519567 10.638842,3.73949425 10.6138255,3.74368798 C10.5673515,3.75144639 10.5209822,3.75941448 10.4747699,3.76795922 C10.4509572,3.77236264 10.4271968,3.77702817 10.4034364,3.78164127 C10.356125,3.79081507 10.3089183,3.80025097 10.2618686,3.81021109 C10.2395737,3.81492904 10.2172787,3.81985667 10.1950361,3.82478431 C10.146678,3.83547833 10.0984245,3.84648689 10.0503805,3.85796723 C10.0297602,3.86289487 10.0092447,3.86797977 9.98867678,3.87306468 C9.93885329,3.88538377 9.88923914,3.89812224 9.83983433,3.9113325 C9.82130753,3.91631256 9.80283306,3.92129262 9.78435859,3.92637752 C9.73301736,3.94047895 9.68183315,3.9551046 9.63085827,3.97014962 C9.61442489,3.97502483 9.59793918,3.97990005 9.5815058,3.98482769 C9.52848983,4.00086872 9.47573555,4.01743397 9.4231906,4.03447101 C9.40900765,4.03908412 9.39477237,4.04364481 9.38058942,4.04831034 C9.3255847,4.06650066 9.270894,4.08526762 9.2163603,4.10455879 C9.20489881,4.10864768 9.19333264,4.11263173 9.18187114,4.11672062 C9.12440665,4.13737476 9.06720384,4.15865796 9.01031504,4.1805178 C9.00194134,4.18371552 8.99351531,4.18686082 8.98514161,4.19011097 C8.92453699,4.21359588 8.86435104,4.23776227 8.80447911,4.26261015 C8.79982125,4.26454975 8.79511104,4.26638451 8.79050551,4.26832411 C8.72592338,4.29526885 8.66170759,4.32294749 8.59796283,4.35141246 C8.69886587,4.87384688 9.03156329,5.31324536 9.48442326,5.55852638 C10.5884951,4.63962684 11.9326304,4.00013482 13.4086514,3.74814382 C13.3486224,3.73813128 13.2888028,3.72780421 13.2285122,3.71884011 Z" id="Path" fill="#FFFFFF"></path>
                        <path d="M18.8148667,7.15240742 L16.6670136,7.15240742 C15.9305993,7.15240742 15.3335548,7.75038148 15.3335548,8.48805929 L15.3335548,8.85637398 C15.3335548,9.59399938 15.930547,10.1920259 16.6670136,10.1920259 L17.0720912,10.1920259 C17.4939161,10.1920259 17.7998177,10.5775349 17.7251871,10.9933436 C17.7113705,11.0704034 17.7041482,11.1497699 17.7041482,11.2308662 L17.7041482,11.5991809 C17.7041482,12.3368063 18.3011404,12.9348328 19.037607,12.9348328 L20.3056987,12.9348328 C20.3397691,12.6278514 20.3578249,12.3160997 20.3578249,11.999997 C20.3578249,10.1933364 19.7864772,8.52035104 18.8148667,7.15240742 Z" id="Path" fill="#86AF48"></path>
                        <ellipse id="Oval" fill="#FFFFFF" cx="9.53675886" cy="7.52869021" rx="1" ry="1"></ellipse>
                        <ellipse id="Oval" fill="#FFFFFF" cx="9.31171577" cy="16.1123726" rx="1" ry="1"></ellipse>
                    </g>
                </g>
            </g>
        </g>
    </g>
</svg>