<?xml version="1.0" encoding="UTF-8"?>
<svg width="40px" height="40px" viewBox="0 0 40 40" version="1.1" xmlns="http://www.w3.org/2000/svg" xmlns:xlink="http://www.w3.org/1999/xlink">
    <title>ph:recycle</title>
    <g id="Extra-screens-" stroke="none" stroke-width="1" fill="none" fill-rule="evenodd">
        <g id="Carbon-Reduction-Tips---Employee" transform="translate(-377.000000, -172.000000)">
            <g id="Group-12" transform="translate(107.000000, 40.000000)">
                <g id="Group-11" transform="translate(0.000000, 100.000000)">
                    <g id="Group-10-Copy" transform="translate(212.000000, 0.000000)">
                        <g id="Group-9" transform="translate(26.000000, 0.000000)">
                            <g id="ph:recycle" transform="translate(32.000000, 32.000000)">
                                <rect id="ViewBox" x="0" y="0" width="40" height="40"></rect>
                                <path d="M37,31.875 C36.3320741,33.0383728 35.091471,33.7541053 33.75,33.75 L23.015625,33.75 L24.640625,35.359375 C25.1291671,35.8526309 25.1291671,36.6473691 24.640625,37.140625 C24.1439771,37.6208514 23.3560229,37.6208514 22.859375,37.140625 L19.109375,33.375 C18.8781472,33.1426249 18.7488506,32.8278157 18.7499799,32.5 C18.7481251,32.1674392 18.8772219,31.8475035 19.109375,31.609375 L22.859375,27.859375 C23.3625579,27.4464012 24.0969434,27.4824695 24.5572369,27.9427631 C25.0175305,28.4030566 25.0535988,29.1374421 24.640625,29.640625 L23.015625,31.25 L33.75,31.25 C34.1958803,31.2516787 34.6080085,31.0127638 34.828125,30.625 C35.0580692,30.2400579 35.0580692,29.7599421 34.828125,29.375 L31.078125,22.90625 C30.854834,22.5182819 30.8554831,22.0406603 31.0798279,21.6533005 C31.3041726,21.2659408 31.7181296,21.0276922 32.1657654,21.0282994 C32.6134011,21.0289089 33.026709,21.2682819 33.25,21.65625 L36.984375,28.125 C37.6688998,29.2797691 37.6748782,30.7145667 37,31.875 Z M13.75,31.25 L6.25,31.25 C5.80411972,31.2516787 5.39199151,31.0127638 5.171875,30.625 C4.94193075,30.2400579 4.94193075,29.7599421 5.171875,29.375 L10.53125,20.109375 L11.125,22.3125 C11.2731068,22.8642454 11.7724742,23.2483742 12.34375,23.25 L12.65625,23.203125 C12.9777901,23.1187843 13.2524929,22.9098424 13.4196237,22.6224948 C13.5867545,22.3351471 13.6325463,21.9930631 13.546875,21.671875 L12.171875,16.546875 C12.0834772,16.2314842 11.8762483,15.9626466 11.59375,15.796875 C11.307212,15.6245816 10.9619005,15.5792948 10.640625,15.671875 L5.515625,17.03125 C4.84684269,17.2124684 4.45159407,17.9015302 4.6328125,18.5703125 C4.81403093,19.2390948 5.50309269,19.6343434 6.171875,19.453125 L8.359375,18.859375 L3.015625,28.125 C2.33643993,29.2818763 2.32996955,30.7141638 2.99867469,31.8771292 C3.66737982,33.0400947 4.9084971,33.7550192 6.25,33.7500263 L13.75,33.7500263 C14.4403559,33.7500263 15,33.1903559 15,32.5 C15,31.8096441 14.4403559,31.25 13.75,31.25 Z M20,5 C20.4467703,4.99496098 20.8604822,5.23479398 21.078125,5.625 L26.4375,14.875 L24.234375,14.296875 C23.7897262,14.1348854 23.2917225,14.2378884 22.9478168,14.5629763 C22.6039112,14.8880642 22.4730769,15.3794903 22.6098156,15.8325419 C22.7465542,16.2855936 23.1274177,16.6225807 23.59375,16.703125 L28.71875,18.078125 L29.03125,18.1250002 C29.5981071,18.1253141 30.0960389,17.7486734 30.25,17.203125 L31.625,12.078125 C31.8062184,11.4093427 31.4109698,10.7202809 30.7421875,10.5390625 C30.0734052,10.3578441 29.3843434,10.7530927 29.203125,11.421875 L28.609375,13.640625 L23.25,4.375 C22.580759,3.21239589 21.3414663,2.49582869 20,2.49582869 C18.6585337,2.49582869 17.419241,3.21239589 16.75,4.375 L13.015625,10.84375 C12.7489237,11.230666 12.721761,11.7344717 12.9453162,12.1478198 C13.1688714,12.5611678 13.6053669,12.8142087 14.0751577,12.8028003 C14.5449485,12.7913919 14.968647,12.5174621 15.171875,12.09375 L18.921875,5.625 C19.1395178,5.23479398 19.5532297,4.99496098 20,5 Z" id="Shape" fill="#FFFFFF" fill-rule="nonzero"></path>
                            </g>
                        </g>
                    </g>
                </g>
            </g>
        </g>
    </g>
</svg>