<?xml version="1.0" encoding="UTF-8"?>
<svg width="24px" height="24px" viewBox="0 0 24 24" version="1.1" xmlns="http://www.w3.org/2000/svg" xmlns:xlink="http://www.w3.org/1999/xlink">
    <title>RENEWABLE ENERGY ICON</title>
    <g id="Extra-screens-" stroke="none" stroke-width="1" fill="none" fill-rule="evenodd">
        <g id="How-Offsetting-works-(flowchart)" transform="translate(-112.000000, -1110.000000)">
            <g id="card-4" transform="translate(80.000000, 1078.000000)">
                <g id="Group-13" transform="translate(32.000000, 32.000000)">
                    <g id="Group-12" fill="#FFFFFF" fill-rule="nonzero">
                        <path d="M10.0255734,21.9079558 C9.84109038,21.9079558 9.65393827,21.8643934 9.47924203,21.7725506 C8.90344574,21.4698154 8.68164746,20.7567758 8.98393789,20.1799801 L12.853423,12.7967541 L10.208277,13.6220809 C9.59176357,13.814416 8.93851059,13.6369163 8.50360174,13.1587257 C8.06869289,12.6804828 7.95297887,12.0125258 8.20157298,11.4154953 L11.7819038,2.81765908 C12.0322774,2.21643489 12.7217466,1.93225699 13.3220359,2.18314713 C13.922273,2.43388 14.2058796,3.12458799 13.9555061,3.72581219 L10.9611769,10.9163361 L13.7911723,10.033293 C14.4284106,9.8344576 15.1162574,10.0378537 15.5434729,10.5514289 C15.9707408,11.0650564 16.0463657,11.7794066 15.7361726,12.3713522 L11.0690929,21.2763794 C10.8586515,21.678244 10.4492824,21.9079558 10.0255734,21.9079558 Z" id="Path"></path>
                        <path d="M23.928369,15.2529192 C23.774921,14.9739311 23.4247435,14.8724951 23.1463181,15.0262479 L22.8455978,15.1923198 C23.0569289,14.5551343 23.1724336,14.0277723 23.1969267,13.9112389 C23.574842,12.5439767 23.3737687,10.0492816 23.3649763,9.94323258 C23.3641389,9.93348215 23.3630922,9.92383656 23.3617838,9.91413855 C23.1169579,8.08918276 22.4346586,6.67993086 22.3766184,6.56250631 C21.0748227,3.82389314 18.8814376,2.26324745 18.7884896,2.19803488 C16.5635985,0.637127074 14.4636848,0.233742281 14.2945884,0.203232866 C11.2765513,-0.399039763 8.50009525,0.52531164 8.38333453,0.564994848 C8.38045607,0.56599086 8.37762995,0.56693445 8.37475149,0.567982884 C4.1963817,2.06110946 2.47647681,5.08369085 2.40530039,5.21159974 C2.25054402,5.48985399 2.35024334,5.84102679 2.62798838,5.99603769 C2.90573342,6.15099616 3.25632962,6.05113287 3.41108599,5.77298346 C3.42642032,5.74546208 4.98565491,3.00564321 8.7563827,1.6560996 C8.86335667,1.62066255 11.3989119,0.799529424 14.0749882,1.33538379 C14.0796461,1.33632738 14.0843563,1.33716613 14.0890665,1.33800487 C14.1085877,1.34135986 16.0648402,1.69520617 18.1278573,3.14256863 C18.1481111,3.1567749 20.166486,4.59265701 21.3389605,7.06234699 C21.3404782,7.06554471 21.3422576,7.06921423 21.3438277,7.0723071 C21.3503173,7.0853601 21.9932078,8.39270426 22.2186696,10.0531084 C22.2740407,10.7344329 22.3546898,12.6587802 22.0833297,13.6173105 C22.0794046,13.6311499 22.0759504,13.6454086 22.0730719,13.65951 C22.0713449,13.6679499 21.974838,14.1335592 21.7885756,14.7174318 L21.688824,14.3092767 C21.6132513,13.9999888 21.3014882,13.8105893 20.9928128,13.8862862 C20.6839804,13.9619831 20.4948919,14.2741017 20.5704645,14.5834944 L21.0767591,16.6556184 C21.0773871,16.6581871 21.0782768,16.6606509 21.0789572,16.6632196 C21.0813123,16.6723934 21.0840861,16.6815147 21.0869122,16.6905837 C21.0889533,16.6971888 21.090942,16.703794 21.0932448,16.7102942 C21.0960709,16.7183148 21.0992634,16.7262304 21.1024559,16.7341985 C21.1053867,16.7414851 21.1082128,16.7487717 21.1114053,16.7558487 C21.1143361,16.7624014 21.1176332,16.7687444 21.1208257,16.7751399 C21.1248555,16.7832652 21.128833,16.791443 21.1332292,16.7993062 C21.1360553,16.8043387 21.1391431,16.8092139 21.1421263,16.814194 C21.1474122,16.8230533 21.152698,16.8319125 21.1584026,16.8404573 C21.1610717,16.8444413 21.1640549,16.8482681 21.166881,16.8522521 C21.1733706,16.8613735 21.1799126,16.8704949 21.1868732,16.8791969 C21.1897517,16.8827616 21.1928395,16.886169 21.1957702,16.8896812 C21.2030972,16.8983832 21.2104766,16.9070328 21.2182746,16.915263 C21.2190596,16.9161017 21.21974,16.9169929 21.220525,16.9178317 C21.2224614,16.9198761 21.2246072,16.9215536 21.2265436,16.9234932 C21.2366967,16.9337678 21.2471638,16.9436755 21.2580496,16.9531639 C21.2624981,16.9570431 21.266999,16.9608174 21.2715522,16.9645394 C21.2811819,16.9724026 21.2910734,16.9798989 21.3011741,16.9871855 C21.3060937,16.9906978 21.3109609,16.9943673 21.3159851,16.9977223 C21.328441,17.0060573 21.3412109,17.0138157 21.3542424,17.0211548 C21.3567022,17.0225702 21.3591097,17.0241952 21.3615694,17.0255058 C21.3770084,17.0339457 21.3929185,17.041442 21.4091425,17.048414 C21.413748,17.0504061 21.4184582,17.0520311 21.4231161,17.0538659 C21.4353626,17.0587935 21.4477138,17.0633018 21.4602744,17.0673907 C21.4651939,17.0689633 21.4701135,17.0704311 21.4750854,17.0718465 C21.4881693,17.0756733 21.5014102,17.0790283 21.5147557,17.0819115 C21.5188903,17.0828027 21.5229724,17.0837463 21.5271069,17.0845326 C21.5427553,17.087573 21.558613,17.089932 21.5745753,17.0916619 C21.5764594,17.0918716 21.5782912,17.0921861 21.5801752,17.0923958 C21.5984927,17.0941782 21.6168625,17.0953314 21.635494,17.0953314 C21.6587833,17.0953314 21.682282,17.0937588 21.705833,17.0908756 C21.7152011,17.0897223 21.7245168,17.0874158 21.7338326,17.0857907 C21.7468118,17.0835366 21.759791,17.0818591 21.7727703,17.0786614 C21.7735553,17.0785041 21.7742357,17.0781896 21.7750207,17.0779799 C21.7802542,17.0766693 21.7854355,17.0747297 21.790669,17.0733143 C21.8073118,17.0687012 21.8236405,17.0635115 21.8394982,17.0575354 C21.8459354,17.055124 21.8522157,17.0522932 21.8586006,17.0496722 C21.8741967,17.0431195 21.889374,17.0359901 21.9041326,17.0281793 C21.9073251,17.0265018 21.9106746,17.0253485 21.913867,17.0236186 L23.7020176,16.0363612 C23.9805476,15.882556 24.0818694,15.531855 23.928369,15.2529192 Z" id="Path"></path>
                        <path d="M21.4089855,17.9688338 C21.1315545,17.8145568 20.781377,17.9147347 20.6265159,18.192255 C20.6110769,18.2199336 19.0391771,20.9749548 15.2964489,22.3307366 C15.1925627,22.3655446 12.6586822,23.1977911 9.97899469,22.6718969 C9.97496485,22.6711105 9.96994063,22.6702194 9.96591079,22.6694855 C9.94623261,22.666078 7.97495982,22.3106591 5.91926971,20.8802288 C5.8989635,20.866075 3.87514577,19.4379513 2.69325087,16.9727696 C2.69173314,16.9696243 2.6899014,16.9659023 2.68833133,16.9628094 C2.68178938,16.9498089 2.03392696,15.6449285 1.80208024,13.9854156 C1.74430174,13.3036192 1.65663961,11.3784332 1.92381285,10.4206892 C1.92768569,10.4067975 1.9310875,10.3925388 1.93386129,10.3784373 C1.9356407,10.3695781 2.03947454,9.858624 2.24122828,9.23512059 L2.35380216,9.63892475 C2.42482157,9.89374652 2.6560926,10.0606047 2.90793151,10.0606047 C2.95916807,10.0606047 3.01134666,10.0536851 3.06310657,10.0392167 C3.36937452,9.95350723 3.5482576,9.6354125 3.46274123,9.32869328 L2.9145258,7.36272319 C2.91447346,7.36256592 2.91442113,7.36246108 2.91436879,7.36230381 C2.90955392,7.34505708 2.90374467,7.32807246 2.89730739,7.31129752 C2.89521396,7.30584567 2.89285886,7.3006035 2.89060843,7.29525649 C2.88610757,7.2844052 2.88134503,7.27371118 2.87611147,7.263122 C2.872919,7.25656929 2.86956952,7.25012143 2.86611537,7.2437784 C2.86130049,7.23491914 2.85622394,7.22616472 2.85093804,7.21751515 C2.84685587,7.21080517 2.84282603,7.2040952 2.83848217,7.19759491 C2.83319627,7.18967924 2.82749169,7.18202567 2.82178711,7.17431968 C2.81702457,7.16787182 2.81241904,7.16126669 2.80734249,7.15502851 C2.80069587,7.14679831 2.79342122,7.13893505 2.78625124,7.13101938 C2.77808689,7.12200285 2.76966085,7.11324843 2.76097314,7.10475612 C2.75286113,7.09684045 2.74474911,7.08892478 2.7362184,7.08158574 C2.73114185,7.07718232 2.72580362,7.07319827 2.72057006,7.06895212 C2.71209169,7.06208488 2.70350865,7.05532248 2.69471627,7.04903188 C2.6893257,7.04515268 2.68377813,7.04153558 2.67823056,7.03786606 C2.6691765,7.03183757 2.66001777,7.02596634 2.65064969,7.02051449 C2.64489278,7.0171595 2.63913586,7.01390936 2.63327427,7.01071164 C2.62380153,7.00557431 2.61422412,7.00080394 2.60454203,6.99624325 C2.59841876,6.99336006 2.59234783,6.99042445 2.5861199,6.98775094 C2.57633314,6.98355721 2.56638938,6.97983527 2.55639328,6.97621817 C2.55000833,6.97391162 2.54372806,6.97134296 2.53729078,6.96924609 C2.52551527,6.96541931 2.51358275,6.96227401 2.50165024,6.95923355 C2.49003173,6.95624552 2.47825622,6.9537817 2.46642838,6.95157999 C2.45795001,6.95000734 2.44952398,6.94827742 2.44099327,6.94707172 C2.43209622,6.9458136 2.42314683,6.94502728 2.41419745,6.94413611 C2.40598076,6.94334978 2.3978164,6.94261588 2.38959971,6.94219651 C2.380912,6.94172471 2.37217196,6.94145592 2.36343191,6.94145592 C2.35411617,6.94145592 2.34485277,6.94167229 2.33553704,6.94203924 C2.32789604,6.94235377 2.32025504,6.94261588 2.31256171,6.94329736 C2.29890211,6.94439822 2.28524252,6.94618055 2.27163527,6.94827742 C2.26818112,6.94880164 2.2647793,6.94906375 2.26132515,6.94969281 C2.24337404,6.95283811 2.2255276,6.95697942 2.20778583,6.96180221 C2.20694846,6.9620119 2.20611109,6.96216916 2.20522139,6.96237885 C2.2024476,6.96316518 2.19993549,6.96426603 2.19721404,6.96505236 C2.18365912,6.96908883 2.17020887,6.97354467 2.15686329,6.97857715 C2.1508447,6.98083128 2.14493077,6.9832951 2.13901685,6.98575892 C2.12902075,6.98995265 2.11907699,6.99446092 2.10923789,6.99923129 C2.10206791,7.00269112 2.09495027,7.00620337 2.08798964,7.00992531 C2.08547753,7.01128827 2.08286075,7.01238913 2.08034864,7.01380451 L0.295966292,8.00792917 C0.0180642452,8.16273037 -0.0818444189,8.51385076 0.0727026137,8.79215743 C0.227197311,9.07046411 0.577793508,9.17053708 0.855590883,9.01584072 L1.15568322,8.848668 C0.946811837,9.48653494 0.833295917,10.014264 0.80922154,10.131007 C0.436539718,11.499737 0.647085845,13.9936982 0.656296911,14.0996948 C0.657134281,14.1093928 0.658233328,14.1190908 0.659541718,14.1287888 C0.911432971,15.9537446 1.59975081,17.3608472 1.65763398,17.476804 C2.96984453,20.2101226 5.1690912,21.7624332 5.26224857,21.8272788 C7.4930536,23.3795895 9.59448503,23.7749013 9.76368603,23.8048341 C10.4851846,23.9459008 11.1922386,24 11.8526616,24 C13.9569191,24 15.5847657,23.4509878 15.6735269,23.420426 C15.6764053,23.4194299 15.6792315,23.4184864 15.6821099,23.4174379 C19.8547751,21.9082703 21.5631138,18.8791886 21.6337669,18.7509652 C21.7871625,18.472711 21.6864165,18.1232157 21.4089855,17.9688338 Z" id="Path"></path>
                        <path d="M3.08582022,5.21159974 C3.15699664,5.08369085 4.87690153,2.06110946 9.05527132,0.567982884 C9.05814978,0.56693445 9.0609759,0.56599086 9.06385436,0.564994848 C9.14717264,0.536634722 10.585983,0.057605452 12.500367,0.00481682484 C10.2556407,-0.0590851975 8.47643956,0.533384578 8.38349153,0.564994848 C8.38061307,0.56599086 8.37778695,0.56693445 8.37490849,0.567982884 C4.19653871,2.06110946 2.47663382,5.08369085 2.4054574,5.21159974 C2.25070102,5.48985399 2.35040035,5.84102679 2.62814539,5.99603769 C2.83105051,6.10926851 3.07257932,6.08594086 3.24847928,5.95693112 C3.01741759,5.78755668 2.94283936,5.46867563 3.08582022,5.21159974 Z" id="Path"></path>
                        <path d="M10.4440489,23.8048341 C10.2748479,23.7749537 8.17341643,23.3796419 5.94261139,21.8272788 C5.84945402,21.7624332 3.65020736,20.2100701 2.33799681,17.476804 C2.28016597,17.3608472 1.5917958,15.9536922 1.33990454,14.1287888 C1.33859615,14.1190908 1.33749711,14.1093928 1.33665974,14.0996948 C1.32744867,13.9936982 1.11690254,11.499737 1.48958437,10.131007 C1.51365874,10.014264 1.62712233,9.48653494 1.83604605,8.848668 L1.53595371,9.01584072 C1.39354854,9.09515472 1.23219787,9.10710686 1.08780395,9.06281054 C0.922109433,9.60175779 0.830574466,10.0275791 0.80922154,10.1309546 C0.436539718,11.4996845 0.647085845,13.9936458 0.656296911,14.0996424 C0.657134281,14.1093404 0.658233328,14.1190384 0.659541718,14.1287364 C0.911432971,15.9536922 1.59975081,17.3607948 1.65763398,17.4767516 C2.96984453,20.2100701 5.1690912,21.7623808 5.26224857,21.8272264 C7.4930536,23.379537 9.59448503,23.7748489 9.76368603,23.8047817 C10.4851846,23.9458484 11.1922386,23.9999476 11.8526616,23.9999476 C11.970312,23.9999476 12.086183,23.9979556 12.2006933,23.9947054 C11.6375099,23.9790838 11.0460129,23.9225732 10.4440489,23.8048341 Z" id="Path"></path>
                        <path d="M0.920434694,8.97972219 C0.853549795,8.93165151 0.795666619,8.86900761 0.753013103,8.79220985 C0.598466071,8.51390318 0.698427071,8.1627828 0.976276781,8.00798159 L2.69602466,7.04987063 C2.69565831,7.04960852 2.69529196,7.04924157 2.69487328,7.04897946 C2.68948271,7.04510025 2.68393514,7.04148316 2.67838756,7.03781364 C2.6693335,7.03178515 2.66017477,7.02591392 2.6508067,7.02046207 C2.64504979,7.01710708 2.63929287,7.01385694 2.63343128,7.01065921 C2.62395854,7.00552189 2.61438112,7.00075152 2.60469904,6.99619083 C2.59857577,6.99330764 2.59250484,6.99037203 2.5862769,6.98769852 C2.57649015,6.98350479 2.56654638,6.97978285 2.55655028,6.97616575 C2.55016534,6.9738592 2.54388507,6.97129054 2.53744779,6.96919367 C2.52567228,6.96536689 2.51373976,6.96222159 2.50180724,6.95918113 C2.49018874,6.95619309 2.47841323,6.95372927 2.46658538,6.95152756 C2.45810702,6.94995491 2.44968098,6.948225 2.44115028,6.9470193 C2.43225323,6.94576118 2.42330384,6.94497485 2.41435445,6.94408369 C2.40613776,6.94329736 2.39797341,6.94256346 2.38975672,6.94214408 C2.38106901,6.94167229 2.37232896,6.9414626 2.36358892,6.9414035 C2.35427318,6.94135776 2.34500978,6.94161987 2.33569404,6.94198682 C2.32805304,6.94230135 2.32041205,6.94256346 2.31271871,6.94324494 C2.29905912,6.94434579 2.28539953,6.94612813 2.27179227,6.948225 C2.26833812,6.94874922 2.26493631,6.94901132 2.26148216,6.94964038 C2.24353105,6.95278568 2.22568461,6.956927 2.20794284,6.96174979 C2.20710547,6.96195948 2.2062681,6.96211674 2.20537839,6.96232643 C2.20260461,6.96311275 2.2000925,6.96421361 2.19737105,6.96499993 C2.18381613,6.9690364 2.17036588,6.97349225 2.1570203,6.97852473 C2.1510017,6.98077886 2.14508778,6.98324268 2.13917386,6.9857065 C2.12917776,6.98990023 2.11923399,6.99440849 2.1093949,6.99917887 C2.10222492,7.0026387 2.09510728,7.00615095 2.08814664,7.00987289 C2.08563454,7.01123585 2.08301776,7.01233671 2.08050565,7.01375209 L0.296123298,8.00787675 C0.018221252,8.16267795 -0.0816874121,8.51379834 0.0728596205,8.79210501 C0.227354317,9.07041168 0.577950515,9.17048466 0.85574789,9.0157883 L0.920434694,8.97972219 Z" id="Path"></path>
                        <path d="M11.0722854,21.1216306 C10.8878024,21.1216306 10.7006503,21.0780682 10.5259541,20.9862255 C9.95015778,20.6834903 9.7283595,19.9704507 10.0306499,19.393655 L13.900135,12.0104289 L11.254989,12.8357558 C10.6384756,13.0280909 9.98522263,12.8505911 9.55031378,12.3724006 C9.11540493,11.8941577 8.99969091,11.2262007 9.24828502,10.6291702 L12.8025528,2.09392543 C12.3664402,2.11882573 11.9613626,2.38675291 11.7819038,2.81771151 L8.20157298,11.4155478 C7.95297887,12.0125782 8.06869289,12.6805352 8.50360174,13.1587782 C8.93851059,13.6369687 9.59176357,13.8144685 10.208277,13.6221333 L12.853423,12.7968065 L8.98393789,20.1800325 C8.68164746,20.7568282 8.9033934,21.4698154 9.47924203,21.772603 C9.65393827,21.8644458 9.84109038,21.9080082 10.0255734,21.9080082 C10.4492301,21.9080082 10.8585992,21.6782964 11.0691976,21.2764843 L11.1517309,21.1189571 C11.1253537,21.1206871 11.0988719,21.1216306 11.0722854,21.1216306 Z" id="Path"></path>
                        <ellipse id="Oval" cx="10.8527376" cy="11.9691731" rx="1" ry="1"></ellipse>
                        <path d="M11.0577361,19.9867014 C11.0114191,19.9867014 10.9644217,19.9764267 10.9200412,19.9546717 C10.7642381,19.8783458 10.6997083,19.6899947 10.7759089,19.5339354 L11.9029038,17.2255469 C11.9791044,17.0694876 12.1672509,17.0047992 12.3229493,17.0811776 C12.4787524,17.1575036 12.5432822,17.3458546 12.4670815,17.501914 L11.3400867,19.8103024 C11.285553,19.9218558 11.1738688,19.9867014 11.0577361,19.9867014 Z" id="Path"></path>
                        <path d="M12.184888,6.63448127 C12.1479914,6.63448127 12.1105191,6.62792856 12.0739888,6.61408924 C11.9117485,6.55275588 11.8298956,6.37121962 11.8911806,6.20871242 L12.8724731,3.60618593 C12.9337058,3.44367873 13.114944,3.36169123 13.2771843,3.42307701 C13.4394247,3.48441037 13.5212776,3.66594664 13.4599926,3.82845383 L12.4787,6.43098033 C12.4312317,6.55694961 12.3117495,6.63448127 12.184888,6.63448127 Z" id="Path"></path>
                    </g>
                    <g id="Group" transform="translate(0.000157, 6.941404)"></g>
                </g>
            </g>
        </g>
    </g>
</svg>