<?xml version="1.0" encoding="UTF-8"?>
<svg width="29px" height="24px" viewBox="0 0 29 24" version="1.1" xmlns="http://www.w3.org/2000/svg" xmlns:xlink="http://www.w3.org/1999/xlink">
    <title>Saving Icon</title>
    <g id="Extra-screens-" stroke="none" stroke-width="1" fill="none" fill-rule="evenodd">
        <g id="How-Offsetting-works-(flowchart)" transform="translate(-844.000000, -651.000000)" fill="#FFFFFF" fill-rule="nonzero">
            <g id="Card-3" transform="translate(814.000000, 619.000000)">
                <g id="Saving" transform="translate(24.000000, 24.000000)">
                    <g id="Saving-Icon" transform="translate(6.000000, 8.000000)">
                        <path d="M13.9826294,4.90399376 C11.7881642,4.90399376 10.002884,6.70842304 10.002884,8.92642646 C10.002884,11.1444299 11.7881642,12.9488592 13.9826294,12.9488592 C16.1770947,12.9488592 17.9623748,11.1444299 17.9623748,8.92642646 C17.9623748,6.70842304 16.1770337,4.90399376 13.9826294,4.90399376 Z M13.9826294,11.7299103 C12.453174,11.7299103 11.2088361,10.4722254 11.2088361,8.92636478 C11.2088361,7.38050416 12.453174,6.12281931 13.9826294,6.12281931 C15.5120849,6.12281931 16.7564228,7.38050416 16.7564228,8.92636478 C16.7564228,10.4722254 15.5120849,11.7299103 13.9826294,11.7299103 Z" id="Shape"></path>
                        <path d="M22.6792638,7.05464104 L20.7127339,7.05464104 C20.8205684,7.42084384 20.7127339,7.05464104 20.7127339,7.05464104 C20.7079128,7.03823377 20.7026034,7.02207323 20.6976603,7.00572765 L20.6980874,7.00572765 C20.692595,6.98753162 20.6865534,6.96945895 20.6808779,6.95138628 C20.6723341,6.92399972 20.6637903,6.89655147 20.6549414,6.86934995 C20.6458484,6.84153161 20.6363282,6.81383664 20.6268691,6.78614167 C20.6183253,6.761099 20.6098426,6.73605633 20.6009937,6.71113702 C20.5909853,6.68282523 20.5804887,6.65469849 20.5700531,6.62651006 C20.5609601,6.60189916 20.5519281,6.57728826 20.5425299,6.55286241 C20.5320943,6.52572257 20.5212316,6.49864441 20.5104298,6.47156625 C20.5002993,6.44615349 20.4902299,6.42074073 20.4797333,6.39551302 C20.4691146,6.36991521 20.4580688,6.34444077 20.4471449,6.31890465 C20.435855,6.29256667 20.424565,6.26616701 20.4129699,6.24001407 C20.4021071,6.21552653 20.3908171,6.19122404 20.3795882,6.16685986 C20.3673218,6.14021348 20.3551164,6.11344372 20.3424839,6.08698238 C20.3308888,6.06261821 20.3189275,6.03843908 20.3069662,6.01419826 C20.2942726,5.98841542 20.2816401,5.96257089 20.2686413,5.93703476 C20.2553985,5.91088183 20.2417285,5.88497562 20.2280585,5.85894604 C20.2195147,5.84260046 20.2112761,5.82606983 20.2025492,5.8098476 L20.2022441,5.81015601 C20.1941886,5.79510574 20.1864992,5.7799321 20.1783216,5.76494351 C20.1047842,5.63016953 20.1048452,5.63016953 20.1783216,5.76494351 L21.5579561,4.34861395 C21.7971204,4.10306007 21.794069,3.70805204 21.5511211,3.46626074 L19.7915943,1.71530929 C19.5486463,1.47351798 19.1578302,1.47660206 18.9186049,1.72215593 L17.5389704,3.13854717 C17.6734736,3.21071447 17.6734126,3.21071447 17.5389704,3.13854717 C17.5234085,3.13015849 17.4376658,3.08550112 17.4102647,3.07156111 C17.3886002,3.06052013 17.2883941,3.01117497 17.2598335,2.99754336 C17.2376197,2.98693415 17.1371695,2.94067306 17.1090971,2.92815173 C17.0849915,2.91741915 16.5890871,2.72373939 16.559245,2.71368531 C16.5361768,2.70591345 16.5131697,2.6980799 16.4900405,2.69055476 C16.4609307,2.68105582 16.4317599,2.67198865 16.402528,2.66298315 C16.3856235,2.65774023 16.3333235,2.64145633 16.3519367,2.64700766 L16.3519367,0.659446146 C16.3519367,0.334940013 16.1067918,0.068537811 15.7935408,0.0384989426 C15.7523477,0.0300485833 15.7096899,0.0256692001 15.6659336,0.0260176199 L14.465352,0.0354765513 L13.2654416,0.0354765513 C13.2217464,0.0354765513 13.1790886,0.0402260234 13.1379565,0.0489847899 C12.8248887,0.081429235 12.5818796,0.349805244 12.5843818,0.674249695 L12.5996995,2.66181121 C12.582734,2.66705413 12.5659516,2.67285219 12.5489862,2.67821847 C12.5201815,2.68740901 12.4913768,2.69653787 12.4628162,2.70609849 C12.4362695,2.71498062 12.4097839,2.72423284 12.3833592,2.73348506 C12.3573008,2.74255223 12.3312423,2.7516194 12.3053059,2.76105667 C12.2780269,2.7709257 12.2508699,2.7812265 12.2237129,2.79152731 C12.1983868,2.80108793 12.1730606,2.81071024 12.1478565,2.82057927 C12.1210657,2.8311268 12.094397,2.84204442 12.0676672,2.85296203 C12.042219,2.8633862 12.0167708,2.87374868 11.9915057,2.88448126 C11.9656303,2.89546056 11.9398159,2.90680994 11.9140626,2.91815933 C11.8882482,2.92950872 11.8624339,2.94091979 11.8367415,2.95257758 C11.8115374,2.96405033 11.7864554,2.97589317 11.7613734,2.98767433 C11.73562,2.99982558 11.7099277,3.01197682 11.6843574,3.02443648 C11.6591533,3.03671109 11.6340103,3.04935579 11.6089282,3.06200048 C11.5842123,3.07446014 11.5596185,3.08691979 11.5350857,3.09968785 C11.5086611,3.11344282 11.4823585,3.12750619 11.4561169,3.14163124 C11.4429351,3.14872461 11.4295703,3.15550957 11.4164495,3.16266462 L10.0259522,1.75725267 C9.79893224,1.52779766 9.43930088,1.51459783 9.1967801,1.71722141 C9.16175067,1.74078373 9.12849103,1.76810861 9.09779451,1.79962783 L8.25586779,2.66397006 L7.406984,3.52195909 C7.37604338,3.55323159 7.34925258,3.58703303 7.32624545,3.62262322 C7.12766401,3.86928736 7.14353099,4.23271449 7.37232074,4.46038074 L8.77368079,5.85481339 C8.77520647,5.85185268 8.77654906,5.84938542 8.7780137,5.84654807 C8.77532852,5.85172931 8.77368079,5.85481339 8.77368079,5.85481339 C8.7648319,5.8717141 8.75647122,5.88873819 8.74774437,5.90570059 C8.73407435,5.93228529 8.72040433,5.95880832 8.70710048,5.98557807 C8.69574948,6.00840021 8.68470361,6.03134571 8.67365775,6.05429121 C8.66004876,6.08247963 8.64637874,6.11066806 8.63319693,6.13910321 C8.62251723,6.16211039 8.61214266,6.18524094 8.60170707,6.20837148 C8.58901348,6.23655991 8.57625886,6.26481001 8.56387041,6.29318348 C8.55325173,6.31767102 8.54299922,6.34228192 8.53262465,6.36689282 C8.52121262,6.39403266 8.5098006,6.4211725 8.49875474,6.4484357 C8.48801401,6.47495873 8.47770047,6.5016668 8.4673259,6.52837487 C8.45737852,6.55397267 8.44730908,6.57957048 8.43760581,6.60535332 C8.42686508,6.63397352 8.41661257,6.66271708 8.40636005,6.69139895 C8.39763321,6.71576313 8.38878431,6.74006562 8.38030158,6.76455316 C8.37011009,6.79416026 8.36040682,6.82382904 8.35058149,6.85349782 C8.34258697,6.87786199 8.33440937,6.9021028 8.32665896,6.92652866 C8.31768801,6.95484045 8.3092663,6.9832756 8.30072254,7.01164907 C8.29425369,7.03311421 8.28735765,7.054456 8.28107188,7.0760445 C8.2831468,7.06895114 8.28485555,7.06167273 8.28693046,7.05464104 L6.32082773,7.05464104 C5.97993163,7.05464104 5.70354093,7.33399635 5.70354093,7.67854895 L5.70354093,10.1742423 C5.70354093,10.5187949 5.97993163,10.7981502 6.32082773,10.7981502 L8.28735765,10.7981502 C8.28644225,10.7949428 8.2856489,10.7922288 8.2847335,10.7892064 C8.28638122,10.7948194 8.28735765,10.7981502 8.28735765,10.7981502 C8.29217878,10.8145575 8.29748811,10.830718 8.30249232,10.8470636 L8.30206513,10.8470636 C8.30755755,10.8651979 8.31359921,10.8832089 8.31921368,10.9012816 C8.32775744,10.9287298 8.3363012,10.9562398 8.34521113,10.9835647 C8.35430413,11.0113213 8.3637633,11.0390163 8.37322246,11.0667113 C8.38176622,11.0917539 8.39024896,11.1168583 8.39915888,11.1418393 C8.40916729,11.1700894 8.41966391,11.1981544 8.43003848,11.2262812 C8.43919251,11.2508921 8.44822449,11.2755647 8.45762262,11.3001139 C8.46805822,11.3272537 8.478921,11.3542702 8.48972276,11.3812867 C8.49991425,11.4066994 8.50998368,11.4321739 8.52041928,11.4574633 C8.53097692,11.4829377 8.54196176,11.5083505 8.55282454,11.5337015 C8.56417554,11.5601629 8.57552654,11.5866859 8.5872437,11.6129622 C8.59810648,11.6373881 8.60939645,11.6616289 8.62056437,11.6859314 C8.63283077,11.7126394 8.64509717,11.7394092 8.65772974,11.7658705 C8.66932484,11.7902347 8.68128611,11.8144138 8.69324738,11.8386547 C8.70594097,11.8644375 8.71857353,11.890282 8.73157225,11.9158798 C8.74481508,11.9419711 8.75842408,11.9678156 8.77203307,11.9937835 C8.78063786,12.0101291 8.78887648,12.0267831 8.79760333,12.0430053 L8.79790846,12.0426969 C8.80596401,12.0577472 8.81365339,12.0729208 8.821831,12.0879094 C8.89536838,12.2226834 8.89530735,12.2226834 8.821831,12.0879094 L7.4421965,13.504239 C7.20303219,13.7497928 7.20608354,14.1448009 7.44903151,14.3865922 L9.20861931,16.137482 C9.45156729,16.3792733 9.84238337,16.3761892 10.0816087,16.1306353 C10.0816087,16.1306353 11.326801,14.6420768 11.4612432,14.7142441 C11.4768661,14.7226327 11.4927331,14.730528 11.508417,14.7387933 C11.5355129,14.7531034 11.5625478,14.7672901 11.5898878,14.7811684 C11.6116744,14.7922094 11.6335221,14.8030037 11.6553697,14.8137979 C11.6835641,14.8277379 11.7117585,14.8416163 11.740197,14.8551862 C11.7626549,14.8658571 11.7851738,14.8762196 11.8076928,14.8865821 C11.835399,14.8993501 11.8631052,14.9121182 11.8910555,14.9245778 C11.9152221,14.9353104 11.9395108,14.9457346 11.9637385,14.9561587 C11.990041,14.9674464 12.0163436,14.9787341 12.0428293,14.9897134 C12.0692539,15.0006927 12.0957396,15.0112403 12.1222253,15.0217878 C12.1468191,15.0315952 12.1713519,15.0413408 12.1960678,15.0508398 C12.2246894,15.0618807 12.2534941,15.07249 12.2822377,15.0830992 C12.3052448,15.0915495 12.328252,15.1000616 12.3513812,15.1082652 C12.3812843,15.1188744 12.4112485,15.1290519 12.4412737,15.1391676 C12.4641588,15.1468778 12.4870439,15.1547113 12.510051,15.1621748 C12.5392219,15.1716737 12.5685758,15.1808026 12.5978687,15.1898698 C12.6147121,15.195051 12.6313724,15.200664 12.6482769,15.2057836 C12.6668901,15.2113966 12.6829401,15.2162077 12.6967932,15.2204021 L12.6967932,15.2204021 C12.6829401,15.2162077 12.6668291,15.2113966 12.6482769,15.2057836 L12.6482769,17.1933451 C12.6482769,17.5178512 12.8934218,17.7842534 13.2066728,17.8142923 C13.2478659,17.8227427 13.2905237,17.827122 13.33428,17.8267736 L14.5348616,17.8173147 L15.734833,17.8173147 C15.7785282,17.8173147 15.821186,17.8125652 15.8623181,17.8038065 C16.175386,17.771362 16.418395,17.502986 16.4158929,17.1785415 L16.4005751,15.19098 C16.4175406,15.1857371 16.434323,15.1799391 16.4512885,15.1745728 C16.4800931,15.1653822 16.5088978,15.1562534 16.5375194,15.1466927 C16.5640051,15.1378723 16.5904297,15.1286201 16.6168544,15.1193679 C16.6429739,15.110239 16.6690934,15.1012335 16.6950298,15.0917963 C16.7222478,15.0819272 16.7493437,15.0716264 16.7764396,15.0613873 C16.8018268,15.051765 16.827275,15.0421427 16.8525401,15.032212 C16.8792089,15.0217261 16.9056945,15.0108702 16.9322412,15.0000143 C16.9579335,14.9895284 16.9835648,14.9790426 17.0090741,14.9681866 C17.0346443,14.9573307 17.0601536,14.9461663 17.0856018,14.9349403 C17.1117823,14.9234059 17.1379018,14.9119331 17.1638992,14.9000903 C17.1887982,14.8887409 17.2135141,14.8771448 17.238291,14.8654253 C17.2643495,14.8531507 17.2904079,14.8408761 17.3162833,14.8281697 C17.3411823,14.8160185 17.3660202,14.8035588 17.3907971,14.7910992 C17.4158182,14.7784545 17.4407782,14.7658098 17.4655551,14.7529183 C17.4917356,14.7392867 17.5177941,14.7253467 17.5438525,14.7114067 C17.5571564,14.7042517 17.5706433,14.697405 17.5838251,14.6901883 L18.9743834,16.0956619 C19.2014034,16.3251169 19.5610958,16.3383168 19.8036166,16.1356315 C19.838646,16.1121309 19.8719056,16.0847443 19.9026022,16.0532868 L20.7444068,15.1890679 L21.5934127,14.3309555 C21.6243533,14.299683 21.6511441,14.2658816 21.6741512,14.2302297 C21.8727327,13.9835656 21.8568657,13.6201384 21.6280759,13.3924722 L20.2267159,11.9980395 C20.2182942,12.0141384 20.2106048,12.0286952 20.2029764,12.043252 L20.2027933,12.0431287 C20.2108489,12.0280784 20.2184162,12.0128431 20.2263497,11.9977311 L20.2267159,11.9980395 C20.2355648,11.9811388 20.2439255,11.9641147 20.2526523,11.9471523 C20.2663223,11.9205676 20.2799923,11.8940446 20.2932962,11.8672749 C20.3046472,11.8444527 20.3156931,11.8215072 20.3267389,11.7985617 C20.3403479,11.7703733 20.3540179,11.7421849 20.3671997,11.7137497 C20.3778794,11.6907425 20.388254,11.667612 20.3986896,11.6444814 C20.4114442,11.6162313 20.4241988,11.5880429 20.4365263,11.5596078 C20.4470839,11.5352436 20.4573364,11.510756 20.4675889,11.4862685 C20.479062,11.4590053 20.4905961,11.4316804 20.501703,11.4041705 C20.5123827,11.3778325 20.5226352,11.3513095 20.5328877,11.3248481 C20.5428961,11.2990653 20.5530266,11.2733441 20.5627298,11.2474379 C20.5734095,11.2188794 20.583601,11.1902592 20.5939146,11.161639 C20.6027024,11.1372132 20.6115513,11.112849 20.6200341,11.0882381 C20.6302256,11.0586927 20.6399288,11.0290856 20.6496931,10.9994168 C20.6576876,10.9750526 20.6659263,10.9508118 20.6736767,10.9263243 C20.6826476,10.8980125 20.6910693,10.8695773 20.6996131,10.8412039 C20.706082,10.8197387 20.712978,10.7983969 20.7192638,10.7768084 C20.7171888,10.7839018 20.7154801,10.7911802 20.7134052,10.7982119 L22.6795079,10.7982119 C23.020404,10.7982119 23.2967947,10.5188566 23.2967947,10.174304 L23.2967947,7.67861063 C23.2965506,7.33399635 23.0201599,7.05464104 22.6792638,7.05464104 Z M18.3212128,10.0477336 C18.3063223,10.1000395 18.2899061,10.1519753 18.2728796,10.203726 C18.2677533,10.2191464 18.2626881,10.2346284 18.2573787,10.2499871 C18.2436477,10.289895 18.2290012,10.3296179 18.2139886,10.3692174 C18.203553,10.3965422 18.1930564,10.4239288 18.1820716,10.4509453 C18.1711478,10.4780851 18.1596137,10.5049782 18.1480796,10.5318714 C18.1312972,10.570669 18.1142097,10.6093433 18.0962678,10.6474624 C18.0893717,10.6622043 18.0822316,10.6769461 18.0750915,10.6916263 C18.051352,10.740478 18.0270633,10.7890213 18.001432,10.8367011 C17.9993571,10.840587 17.9972212,10.844473 17.9950852,10.8484206 C17.574366,11.6268405 16.9061828,12.2493298 16.0984921,12.608871 C16.0779871,12.6179382 16.0577872,12.6276221 16.0371601,12.6363192 C16.0166551,12.6450163 15.9956618,12.6527882 15.9749737,12.6611152 C15.1547115,12.9906792 14.2469368,13.0352132 13.4028131,12.7920649 C13.3987243,12.790893 13.3945745,12.789721 13.3904857,12.7885491 C13.3387959,12.7734371 13.2874113,12.7569065 13.2362098,12.7396973 C13.220892,12.7345161 13.2055743,12.7293349 13.1903786,12.7239686 C13.1508942,12.7101519 13.1116539,12.6952867 13.0725357,12.6801747 C13.0454398,12.6696272 13.0183438,12.6589563 12.991492,12.6478537 C12.9647012,12.6368127 12.9381545,12.6252166 12.9115468,12.6135588 C12.8731609,12.5965964 12.8348971,12.5793256 12.7971214,12.5611912 C12.782475,12.5542212 12.7679506,12.5469428 12.7533652,12.5397878 C12.7050319,12.5157937 12.6570037,12.4912444 12.6097689,12.4653382 C12.6059242,12.4632411 12.6021406,12.4610822 12.5982959,12.458985 C11.8280147,12.0336914 11.2120705,11.3582178 10.8563448,10.5418021 C10.8474349,10.5212005 10.8378537,10.5008456 10.8293099,10.4801206 C10.8206441,10.459334 10.8129547,10.4379922 10.8046551,10.4170205 C10.4786495,9.58802174 10.4345881,8.67057179 10.6751561,7.81745559 C10.6763156,7.81332293 10.6774751,7.80912859 10.6786956,7.80499594 C10.6935862,7.75275174 10.7100024,7.70081596 10.7270289,7.64906522 C10.7321552,7.63358317 10.7372814,7.61810113 10.7425908,7.60274245 C10.7562608,7.56283454 10.7709683,7.52317337 10.7859198,7.48363556 C10.7963554,7.45624899 10.8069131,7.42886242 10.8178979,7.40172258 C10.8288217,7.37464443 10.8402948,7.34781299 10.8518289,7.32098156 C10.8686112,7.28212224 10.8856988,7.24344797 10.9037017,7.20520547 C10.9105977,7.1904636 10.9177379,7.17578342 10.924817,7.16110323 C10.9485565,7.11218984 10.9729062,7.06364653 10.9985375,7.01590509 C11.0006124,7.01201915 11.0027483,7.0081949 11.0048232,7.00430897 C11.4256035,6.22576565 12.0938478,5.60321473 12.9016605,5.24367353 C12.9220434,5.23466804 12.9422433,5.22498405 12.9627484,5.21634865 C12.9833754,5.20758988 13.0044297,5.19981802 13.0252399,5.19142934 C13.84538,4.86198869 14.7530327,4.81745468 15.5969733,5.06054129 C15.6011231,5.06177492 15.605395,5.06294687 15.6095448,5.0641805 C15.6611735,5.07923078 15.7124361,5.09569972 15.7635156,5.11290885 C15.7788944,5.11815177 15.7943342,5.12333302 15.8096519,5.1286993 C15.8491363,5.14251595 15.8883156,5.15738118 15.9274338,5.17249313 C15.9545297,5.18304066 15.9815646,5.19371155 16.0083554,5.20481422 C16.0352072,5.2158552 16.061876,5.22751299 16.0884837,5.23917079 C16.1269306,5.25613319 16.1651945,5.27340399 16.2029701,5.29160002 C16.2175555,5.29850835 16.2319579,5.30572508 16.2464823,5.31288013 C16.2949376,5.33687421 16.3430268,5.36154679 16.3903226,5.387453 C16.3941063,5.38948849 16.3978289,5.39158566 16.4015516,5.39362115 C17.1718327,5.8188531 17.7877769,6.49432671 18.1435636,7.31074244 C18.1525346,7.33140573 18.1621158,7.35188397 18.1707206,7.37267062 C18.1793254,7.39339559 18.1870147,7.41461401 18.1953144,7.43552402 C18.521381,8.26458445 18.5654424,9.18209609 18.3248744,10.035274 C18.3235929,10.0394683 18.3224334,10.043601 18.3212128,10.0477336 Z" id="Shape"></path>
                        <path d="M14.5000153,4.90399376 C12.30555,4.90399376 10.5202699,6.70842304 10.5202699,8.92642646 C10.5202699,11.1444299 12.30555,12.9488592 14.5000153,12.9488592 C16.6944805,12.9488592 18.4797606,11.1444299 18.4797606,8.92642646 C18.4797606,6.70842304 16.6944805,4.90399376 14.5000153,4.90399376 Z M14.5000153,11.7299103 C12.9705598,11.7299103 11.7262219,10.4722254 11.7262219,8.92636478 C11.7262219,7.38050416 12.9705598,6.12281931 14.5000153,6.12281931 C16.0294707,6.12281931 17.2738086,7.38050416 17.2738086,8.92636478 C17.2738086,10.4722254 16.0294707,11.7299103 14.5000153,11.7299103 Z" id="Shape"></path>
                        <path d="M19.0829502,8.13856924 C18.8925464,8.13856924 18.7318016,7.98967021 18.7180706,7.79475681 C18.557692,5.51908123 16.5295249,4.90226668 16.5090809,4.89628358 C16.3147103,4.83966001 16.202665,4.63456917 16.2586266,4.43817542 C16.3147103,4.24171998 16.5175026,4.12847283 16.7119342,4.18509641 C16.7382978,4.19280659 17.3637012,4.37896122 18.0095486,4.90695447 C18.6094428,5.39738372 19.3460371,6.28738543 19.4485012,7.74220421 C19.4628425,7.9461231 19.3110077,8.12314888 19.1092528,8.13764402 C19.100465,8.13819915 19.0916161,8.13856924 19.0829502,8.13856924 Z" id="Path"></path>
                        <path d="M15.7646751,0.0554157502 C15.7323919,0.0473157502 15.6996205,0.0418157502 15.6659336,0.0423157502 L14.465352,0.0577157502 L15.591847,0.0577157502 L15.7646751,0.0554157502 Z" id="Path"></path>
                        <path d="M9.95008686,12.0879094 C10.0704869,12.2226834 10.0705869,12.2226834 9.95008686,12.0879094 L9.95008686,12.0879094 Z" id="Path"></path>
                        <path d="M8.57540449,14.3865922 C8.33245651,14.1448009 8.32940517,13.7497928 8.56856948,13.504239 L9.94820397,12.0879094 C9.94002637,12.0729208 9.93233698,12.0577472 9.92428143,12.0426969 L9.9239763,12.0430053 C9.91524946,12.0267214 9.9069498,12.0101291 9.89840604,11.9937218 C9.88479705,11.9678156 9.87118806,11.9419094 9.85794523,11.9158182 C9.8449465,11.8902204 9.83231394,11.8643758 9.81962035,11.838593 C9.80772011,11.8143522 9.79575884,11.7901114 9.78410271,11.7658089 C9.77147015,11.7392858 9.75926477,11.7125778 9.74693735,11.6858697 C9.73576943,11.6615672 9.72447946,11.6372647 9.7136777,11.6128389 C9.70196054,11.5865626 9.69067057,11.5600395 9.67925854,11.5335782 C9.66833473,11.5082271 9.65741092,11.482876 9.64685328,11.4573399 C9.63635665,11.4320505 9.62628722,11.4065761 9.61615676,11.3811633 C9.605355,11.3541468 9.59449222,11.3271304 9.58405662,11.2999905 C9.57465849,11.275503 9.56556548,11.2508304 9.55647248,11.2261578 C9.54603688,11.1980311 9.53560129,11.169966 9.52559288,11.1417159 C9.51674398,11.1167966 9.50826125,11.0916306 9.49965646,11.0666496 C9.4901973,11.0389546 9.48073813,11.0113213 9.47164513,10.983503 C9.4627352,10.9561781 9.45419144,10.9287298 9.44564768,10.9012199 C9.43997218,10.8831472 9.43399155,10.8651363 9.42849913,10.8470019 L9.42892632,10.8470019 C9.42398314,10.8306563 9.4186738,10.8144958 9.41385268,10.7980885 L8.28735765,10.7980885 C8.29217878,10.8144958 8.29748811,10.8306563 8.30243129,10.8470019 L8.3020041,10.8470019 C8.30749652,10.8651363 8.31353818,10.8831472 8.31915265,10.9012199 C8.32769641,10.9286682 8.33624018,10.9561781 8.3451501,10.983503 C8.3542431,11.0112596 8.36370227,11.0389546 8.37316143,11.0666496 C8.3817052,11.0916922 8.39018793,11.1167966 8.39909785,11.1417159 C8.40910626,11.169966 8.41960288,11.1980311 8.42997745,11.2261578 C8.43907046,11.2507687 8.44816346,11.2754413 8.4575616,11.2999905 C8.46799719,11.3271304 8.47885998,11.3541468 8.48966173,11.3811633 C8.49985322,11.4065761 8.50992265,11.4321122 8.52035825,11.4573399 C8.5309159,11.482876 8.54190073,11.5082271 8.55276352,11.5335782 C8.56411452,11.5600395 8.57546551,11.5865626 8.58712165,11.6128389 C8.59798443,11.6372647 8.6092744,11.6615672 8.62038129,11.6858697 C8.63264769,11.7125778 8.64491409,11.7392858 8.65754666,11.7658089 C8.66914176,11.7901114 8.68110303,11.8143522 8.6930643,11.838593 C8.70575789,11.8643758 8.71839045,11.8902204 8.73138917,11.9158182 C8.744632,11.9419094 8.758241,11.9677539 8.77184999,11.9937218 C8.78045478,12.0100674 8.78875443,12.0267214 8.79742025,12.0430053 L8.79772538,12.0426969 C8.80578093,12.0577472 8.81347031,12.0729208 8.82164791,12.0879094 C8.8951853,12.2226217 8.8951853,12.2226217 8.82164791,12.0879094 L7.44201342,13.504239 C7.20278809,13.7497928 7.20583943,14.1448009 7.44884843,14.3865922 L9.2083752,16.137482 C9.45132318,16.3792116 9.84213927,16.3761892 10.0813646,16.1305736 C10.0813646,16.1305736 10.1240224,16.0796248 10.1940812,15.9973417 L8.57540449,14.3865922 Z" id="Path"></path>
                        <path d="M8.77355874,5.85487507 C8.77508441,5.85191436 8.776427,5.8494471 8.77789165,5.84660975 C8.77520647,5.85179099 8.77355874,5.85487507 8.77355874,5.85487507 C8.76470984,5.87177579 8.75634916,5.88886155 8.74762232,5.90576227 C8.7339523,5.93234697 8.72028228,5.95887 8.70697842,5.98563975 C8.69562742,6.00846189 8.68458156,6.03140739 8.6735357,6.05435289 C8.6599267,6.08254132 8.64625669,6.11072974 8.63307488,6.13916489 C8.62239518,6.16217207 8.61202061,6.18530262 8.60158502,6.20843316 C8.58889143,6.23662159 8.57613681,6.2648717 8.56374835,6.29324516 C8.55312968,6.3177327 8.54287716,6.3423436 8.5325026,6.36689282 C8.52109057,6.39403266 8.50967855,6.4211725 8.49863268,6.4484357 C8.48789195,6.47495873 8.47757841,6.5016668 8.46720384,6.52837487 C8.45725646,6.55397267 8.44718703,6.57957048 8.43748376,6.60535332 C8.42674303,6.63397352 8.41649051,6.66271708 8.406238,6.69139895 C8.39751116,6.71576313 8.38866226,6.74006562 8.38017952,6.76455316 C8.36998804,6.79409858 8.36028476,6.82382904 8.35045944,6.85349782 C8.34246492,6.87786199 8.33428732,6.9021028 8.3265369,6.92652866 C8.31756595,6.95484045 8.30914425,6.9832756 8.30060048,7.01164907 C8.29626758,7.02602084 8.29187364,7.04026926 8.28747971,7.05457936 L9.41330344,7.05457936 C9.41122852,7.06167273 9.40945874,7.06888946 9.40744486,7.0760445 C9.41373063,7.054456 9.42056563,7.03317589 9.42709551,7.01164907 C9.43563927,6.9832756 9.44412201,6.95484045 9.45303193,6.92652866 C9.46078234,6.9021028 9.46895994,6.87786199 9.47695446,6.85349782 C9.48671876,6.82382904 9.49642204,6.79409858 9.50667455,6.76455316 C9.51515729,6.74006562 9.52400618,6.71576313 9.53273303,6.69139895 C9.54304657,6.66271708 9.55329908,6.63391184 9.56397878,6.60535332 C9.57362103,6.57957048 9.58369046,6.55397267 9.59369887,6.52837487 C9.60407344,6.5016668 9.61438698,6.47495873 9.62512771,6.4484357 C9.63617357,6.42111082 9.6475856,6.39403266 9.65899762,6.36689282 C9.66931116,6.3423436 9.67956368,6.31767102 9.69024338,6.29324516 C9.70257081,6.26481001 9.71532543,6.23662159 9.72808004,6.20843316 C9.73851564,6.1853643 9.74889021,6.16217207 9.75956991,6.13916489 C9.77281274,6.11072974 9.78642173,6.08254132 9.80003072,6.05435289 C9.81107659,6.03140739 9.82212245,6.00846189 9.83347345,5.98563975 C9.84677731,5.95887 9.86050835,5.93234697 9.87411735,5.90576227 C9.88284419,5.88886155 9.89114384,5.87177579 9.90005377,5.85487507 L8.49869371,4.46044242 C8.26996499,4.23277617 8.25403698,3.86934904 8.45261842,3.62268491 C8.47562555,3.58709471 8.50241635,3.55323159 8.53335697,3.52202077 L9.38224076,2.66403174 L10.1466023,1.87932027 L10.0258912,1.75731436 C9.79887121,1.52785935 9.43923986,1.51465951 9.19671907,1.71728309 C9.16168964,1.74078373 9.12843,1.76817029 9.09773348,1.79968952 L8.25580676,2.66403174 L7.40692297,3.52202077 C7.37598235,3.55329327 7.34919155,3.58709471 7.32618442,3.62268491 C7.12760298,3.86934904 7.14346997,4.23277617 7.37225971,4.46044242 L8.77355874,5.85487507 Z" id="Path"></path>
                        <path d="M9.91821781,5.87660168 C9.91821781,5.87660168 9.92081781,5.87160168 9.92531781,5.86320168 C9.92281781,5.86770168 9.92071781,5.87180168 9.91821781,5.87660168 Z" id="Path"></path>
                        <path d="M6.83003595,10.1742423 L6.83003595,7.67854895 C6.83003595,7.33399635 7.10642666,7.05464104 7.44732276,7.05464104 L6.32082773,7.05464104 C5.97993163,7.05464104 5.70354093,7.33399635 5.70354093,7.67854895 L5.70354093,10.1742423 C5.70354093,10.5187949 5.97993163,10.7981502 6.32082773,10.7981502 L7.44732276,10.7981502 C7.10636563,10.7981502 6.83003595,10.5187949 6.83003595,10.1742423 Z" id="Path"></path>
                        <path d="M9.43411614,10.8200876 C9.43411614,10.8200876 9.43251614,10.8146876 9.42981614,10.8055876 C9.43131614,10.8105876 9.43261614,10.8149876 9.43411614,10.8200876 Z" id="Path"></path>
                        <path d="M21.0106671,14.4600548 C20.9156482,14.4600548 20.8207515,14.4228609 20.7489838,14.3488431 L19.4805403,13.0390991 C19.3391411,12.8930374 19.3415821,12.6587096 19.4860938,12.515732 C19.6306664,12.3728777 19.8623855,12.375345 20.0039068,12.521345 L21.2723503,13.831089 C21.4137496,13.9771507 21.4113085,14.2114785 21.2667969,14.3544561 C21.1955175,14.424958 21.1030618,14.4600548 21.0106671,14.4600548 Z" id="Path"></path>
                        <path d="M12.6185568,2.66187289 C12.6187399,2.66181121 12.6188619,2.66174953 12.619045,2.66174953 C12.7638618,2.61795569 12.9107535,2.57928142 13.059598,2.54578839 C13.0616119,2.54529494 13.0636258,2.54492485 13.0656397,2.5444314 C13.2123483,2.51155518 13.3609487,2.48373685 13.5112579,2.46122312 C13.5170554,2.46035958 13.522975,2.4596194 13.5288336,2.45875586 C13.5945596,2.44907187 13.6607127,2.44055983 13.7270489,2.43291133 C13.7293679,2.4326646 13.7316869,2.4323562 13.7339449,2.43210947 L13.7203359,0.674373058 C13.7178338,0.349866925 13.9618193,0.0815525979 14.2759856,0.0490464714 C14.3173008,0.0402877048 14.3600806,0.0355999143 14.403959,0.0355999143 L13.2731921,0.0355999143 C13.2293137,0.0355999143 13.1865339,0.0403493863 13.1452187,0.0490464714 C12.8309913,0.0814909165 12.5870059,0.349866925 12.589569,0.674373058 L12.6049478,2.66193457 L12.6185568,2.66193457 L12.6185568,2.66187289 Z" id="Path"></path>
                        <path d="M14.3448849,17.8133054 C14.029437,17.7835133 13.7825223,17.5190232 13.7825223,17.1968609 L13.7825223,15.4322162 C13.7747719,15.4314143 13.7669605,15.4309209 13.7592711,15.430119 C13.7478591,15.4288854 13.736447,15.4274667 13.725035,15.4261714 C13.6584547,15.4185846 13.5921185,15.4101959 13.5261484,15.4005736 C13.5202899,15.3997101 13.5143703,15.3989699 13.5085117,15.3981064 C13.3577753,15.375716 13.2086866,15.3481444 13.0614898,15.3154532 C13.0594759,15.3150214 13.0574621,15.3145897 13.0553871,15.3141579 C12.9360796,15.2875732 12.8183588,15.2567941 12.7016144,15.2236712 L12.6480328,15.2057836 L12.6480328,15.2236712 L12.6480328,15.2617903 L12.6480328,17.1969226 C12.6480328,17.5190849 12.8948865,17.7835749 13.2103954,17.8133671 C13.2518937,17.8216941 13.2948566,17.8260735 13.338918,17.8257803 L14.3738727,17.8177465 C14.3642305,17.8161427 14.3544051,17.8152175 14.3448849,17.8133054 Z" id="Path"></path>
                        <path d="M12.3756088,16.3770527 L12.3756088,16.3770527 C12.3756088,16.048599 12.6390618,15.7823201 12.9640299,15.7823201 L20.5326436,15.7823201 C21.4426153,15.7823201 22.1802471,16.5279256 22.1802471,17.4475961 L22.1802471,18.5529894 L14.5284538,18.5529894 C13.3394672,18.5529894 12.3756088,17.5787925 12.3756088,16.3770527 Z" id="Path"></path>
                        <g id="Group" transform="translate(0.000000, 14.366114)">
                            <rect id="Rectangle" x="22.1802471" y="4.18687546" width="2.48489217" height="3.99942552"></rect>
                            <path d="M6.6464061,4.22406937 L3.05558496,0.594732585 C2.27102349,-0.198244195 0.999040405,-0.198244195 0.214478941,0.594732585 C-0.0714929803,0.883771881 -0.0714929803,1.35242757 0.214478941,1.64152855 L6.61729628,8.11308509 L9.9208029,9.51516623 C10.1750409,9.61891444 10.4469156,9.65536818 10.7156169,9.62175178 L22.1802471,8.18630097 L22.1802471,8.18630097 L22.1802471,7.40492031 L22.1802471,4.18681378 L6.6464061,4.18681378 L6.6464061,4.22406937 Z" id="Path"></path>
                        </g>
                        <path d="M23.2787308,21.5038302 L23.2787308,21.5038302 L11.8141006,22.939281 C11.5454603,22.9728974 11.2735245,22.9364437 11.0192866,22.8326954 L7.71577997,21.4306143 L1.31296263,14.9590578 C1.17107516,14.8156484 1.09979577,14.6280134 1.09869729,14.44007 C0.774888705,14.5304333 0.468960996,14.7036349 0.214478941,14.9608465 C-0.0714929803,15.2498858 -0.0714929803,15.7185415 0.214478941,16.0076425 L6.61729628,22.479199 L9.9208029,23.8812802 C10.1750409,23.9850284 10.4469156,24.0214821 10.7156169,23.9878657 L22.1802471,22.5524149 L22.1802471,22.5524149 L24.6651392,22.5524149 L24.6651392,21.5038302 L23.2787308,21.5038302 Z" id="Path"></path>
                        <path d="M13.5961463,16.3770527 L13.5961463,16.3770527 C13.5961463,16.048599 13.8595993,15.7823201 14.1845674,15.7823201 L12.9640299,15.7823201 C12.6390618,15.7823201 12.3756088,16.048599 12.3756088,16.3770527 L12.3756088,16.3770527 C12.3756088,17.5787925 13.3394672,18.5529894 14.5284538,18.5529894 L15.7489912,18.5529894 C14.5600047,18.5529894 13.5961463,17.5787925 13.5961463,16.3770527 Z" id="Path"></path>
                        <path d="M29,23.2498471 L23.5101447,23.2498471 C23.1730933,23.2498471 22.8998759,22.9736992 22.8998759,22.6330326 L22.8998759,17.2387426 C22.8998759,16.898076 23.1730933,16.6219281 23.5101447,16.6219281 L29,16.6219281 L29,23.2498471 Z" id="Path"></path>
                        <path d="M25.9512195,22.016218 C25.6141681,22.016218 25.3409508,21.7400702 25.3409508,21.3994035 L25.3409508,16.6219281 L23.5101447,16.6219281 C23.1730933,16.6219281 22.8998759,16.898076 22.8998759,17.2387426 L22.8998759,22.6330326 C22.8998759,22.9736992 23.1730933,23.2498471 23.5101447,23.2498471 L29,23.2498471 L29,22.016218 L25.9512195,22.016218 Z" id="Path"></path>
                        <ellipse id="Oval" cx="21.264844" cy="20.1452345" rx="1" ry="1"></ellipse>
                        <ellipse id="Oval" cx="8.17287124" cy="8.74008679" rx="1" ry="1"></ellipse>
                    </g>
                </g>
            </g>
        </g>
    </g>
</svg>