<svg width="619" height="54" viewBox="0 0 619 54" fill="none" xmlns="http://www.w3.org/2000/svg">
<path d="M0.666667 48C0.666667 50.9455 3.05448 53.3333 6 53.3333C8.94552 53.3333 11.3333 50.9455 11.3333 48C11.3333 45.0545 8.94552 42.6667 6 42.6667C3.05448 42.6667 0.666667 45.0545 0.666667 48ZM607.667 48C607.667 50.9455 610.055 53.3333 613 53.3333C615.945 53.3333 618.333 50.9455 618.333 48C618.333 45.0545 615.945 42.6667 613 42.6667C610.055 42.6667 607.667 45.0545 607.667 48ZM5 0V24H7V0H5ZM5 24V48H7V24H5ZM6 25H609V23H6V25ZM612 28V48H614V28H612ZM609 25C610.657 25 612 26.3431 612 28H614C614 25.2386 611.761 23 609 23V25Z" fill="#86AF48"/>
<path d="M0.666667 48C0.666667 50.9455 3.05448 53.3333 6 53.3333C8.94552 53.3333 11.3333 50.9455 11.3333 48C11.3333 45.0545 8.94552 42.6667 6 42.6667C3.05448 42.6667 0.666667 45.0545 0.666667 48ZM607.667 48C607.667 50.9455 610.055 53.3333 613 53.3333C615.945 53.3333 618.333 50.9455 618.333 48C618.333 45.0545 615.945 42.6667 613 42.6667C610.055 42.6667 607.667 45.0545 607.667 48ZM5 0V24H7V0H5ZM5 24V48H7V24H5ZM6 25H609V23H6V25ZM612 28V48H614V28H612ZM609 25C610.657 25 612 26.3431 612 28H614C614 25.2386 611.761 23 609 23V25Z" fill="url(#paint0_linear_16_157)"/>
<defs>
<linearGradient id="paint0_linear_16_157" x1="6" y1="0" x2="6" y2="24" gradientUnits="userSpaceOnUse">
<stop stop-color="#F5F5F5"/>
<stop offset="1" stop-color="#86AF48"/>
</linearGradient>
</defs>
</svg>
