<svg width="42" height="164" viewBox="0 0 42 164" fill="none" xmlns="http://www.w3.org/2000/svg">
<path d="M0.666667 6C0.666667 8.94552 3.05448 11.3333 6 11.3333C8.94552 11.3333 11.3333 8.94552 11.3333 6C11.3333 3.05448 8.94552 0.666667 6 0.666667C3.05448 0.666667 0.666667 3.05448 0.666667 6ZM30.6667 158C30.6667 160.946 33.0545 163.333 36 163.333C38.9455 163.333 41.3333 160.946 41.3333 158C41.3333 155.054 38.9455 152.667 36 152.667C33.0545 152.667 30.6667 155.054 30.6667 158ZM6 7H17V5H6V7ZM20 10V154H22V10H20ZM25 159H36V157H25V159ZM20 154C20 156.761 22.2386 159 25 159V157C23.3431 157 22 155.657 22 154H20ZM17 7C18.6569 7 20 8.34315 20 10H22C22 7.23858 19.7614 5 17 5V7Z" fill="#86AF48"/>
</svg>
