<svg width="12" height="42" viewBox="0 0 12 42" fill="none" xmlns="http://www.w3.org/2000/svg">
<path d="M0.666667 6C0.666667 8.94552 3.05448 11.3333 6 11.3333C8.94552 11.3333 11.3333 8.94552 11.3333 6C11.3333 3.05448 8.94552 0.666667 6 0.666667C3.05448 0.666667 0.666667 3.05448 0.666667 6ZM0.666667 36C0.666667 38.9455 3.05448 41.3333 6 41.3333C8.94552 41.3333 11.3333 38.9455 11.3333 36C11.3333 33.0545 8.94552 30.6667 6 30.6667C3.05448 30.6667 0.666667 33.0545 0.666667 36ZM5 6V36H7V6H5Z" fill="#86AF48"/>
</svg>
