<?xml version="1.0" encoding="UTF-8"?>
<svg width="20px" height="26px" viewBox="0 0 20 26" version="1.1" xmlns="http://www.w3.org/2000/svg" xmlns:xlink="http://www.w3.org/1999/xlink">
    <title>Wind Mill Icon</title>
    <g id="Extra-screens-" stroke="none" stroke-width="1" fill="none" fill-rule="evenodd">
        <g id="How-Offsetting-works-(flowchart)" transform="translate(-848.000000, -219.000000)" fill-rule="nonzero">
            <g id="Card-2" transform="translate(814.000000, 189.000000)">
                <g id="turbine" transform="translate(24.000000, 24.000000)">
                    <g id="Wind-Mill-Icon" transform="translate(10.991779, 6.709656)">
                        <g id="Group-5" transform="translate(9.008221, 7.796368) rotate(10.000000) translate(-9.008221, -7.796368) translate(1.008221, 1.290344)" fill="#FFFFFF">
                            <path d="M0.571217537,12.4337349 C0.377652181,12.4337349 0.203382105,12.3072266 0.137584177,12.1189156 L0.027478567,11.8037268 C-0.0589418307,11.5564102 0.0653034428,11.2825464 0.304503669,11.1931936 L8.20648264,8.24096386 L8.56140351,9.25656636 L7.87979006,9.69076902 L5.10468969,11.4262602 C4.83680177,11.5938296 4.54466714,11.7076185 4.23650415,11.7645129 L0.652380226,12.4263461 C0.625683316,12.4312544 0.598373858,12.4337349 0.571217537,12.4337349 C0.571217537,12.4337349 0.571217537,12.4337349 0.571217537,12.4337349 Z" id="Path"></path>
                            <path d="M1.67646029,12.1188628 L1.56585958,11.803674 C1.47905058,11.5563574 1.60385454,11.2824936 1.84413035,11.1931408 L8.42105263,8.74699705 L8.2433839,8.24096386 L0.3058729,11.1931936 C0.0655970861,11.2825464 -0.0592068684,11.556463 0.0276021271,11.8037268 L0.138202838,12.1189156 C0.204296633,12.3072266 0.379350331,12.4337349 0.573786073,12.4337349 C0.573786073,12.4337349 0.573786073,12.4337349 0.573837348,12.4337349 C0.601064505,12.4337349 0.628496763,12.4312016 0.655364993,12.4262933 L1.73276051,12.2282183 C1.71004558,12.1946517 1.69035588,12.1584989 1.67646029,12.1188628 Z" id="Path"></path>
                            <path d="M15.3993292,13.0120482 C15.3310768,13.0120482 15.2650755,12.9971255 15.2031673,12.9676946 L7.57894737,9.3453625 L8.02361167,8.38554217 L8.80426843,8.5733714 L11.9607659,9.36044065 C12.2654461,9.43640139 12.5504283,9.56707872 12.8079356,9.74879378 L15.8017323,11.8618597 C15.9869963,11.9925888 16.0518719,12.2377254 15.9559398,12.4448298 L15.8180023,12.7426622 C15.7422288,12.9062939 15.5778396,13.0120482 15.3993292,13.0120482 L15.3993292,13.0120482 Z" id="Path"></path>
                            <path d="M7.69494527,9.10843373 L7.53747757,8.30300343 L6.9248298,5.03470006 C6.86568099,4.71922149 6.86159668,4.39844474 6.91267526,4.08133999 L7.50647612,0.393797403 C7.54318578,0.165660343 7.7274722,0 7.94467921,0 L8.25710497,0 C8.50226249,0 8.70175439,0.212609681 8.70175439,0.474004707 L8.70175439,9.10843373 L7.69494527,9.10843373 Z" id="Path"></path>
                            <path d="M7.92196464,5.03470006 C7.8620728,4.71922149 7.85793717,4.39844474 7.90965741,4.08133999 L8.51091766,0.393797403 C8.52526779,0.30582641 8.56199015,0.227297742 8.61410901,0.163824336 C8.53149614,0.0636832353 8.41001835,0 8.27443957,0 L7.95808908,0 C7.7381535,0 7.55155205,0.165607886 7.51438124,0.393797403 L6.91312099,4.08133999 C6.86140075,4.39844474 6.86553638,4.71916904 6.92542822,5.03470006 L7.54577214,8.30300343 L7.70521797,9.10843373 L8.70175439,9.10843373 L8.54230856,8.30300343 L7.92196464,5.03470006 Z" id="Path"></path>
                            <path d="M15.4172908,12.4337349 C15.3655607,12.4337349 15.3131771,12.4201901 15.2652677,12.3917205 L13.6230262,11.4148086 C13.4792477,11.3292975 13.4308858,11.1414082 13.5150415,10.9952267 C13.5991469,10.8490451 13.7837966,10.799875 13.9277259,10.8853861 L15.5699675,11.862298 C15.7136956,11.9478091 15.7621078,12.1356984 15.6779521,12.2818799 C15.6218484,12.3794024 15.5209521,12.4337349 15.4172908,12.4337349 Z" id="Path"></path>
                        </g>
                        <path d="M7.04330897,10.315198 C7.10654787,10.8581127 7.44197538,11.3185706 7.90889799,11.5554045 L8.87174949,10.9712876 L9.56962476,10.5400277 L9.20623625,9.53130815 L7.04330897,10.315198 Z" id="Path" fill="#FFFFFF"></path>
                        <path d="M11.1134844,10.0984652 C11.1134844,10.0820627 11.112763,10.0658189 11.1122993,10.0495222 L9.82118801,9.72311191 L9.03498951,9.53130815 L8.58716862,10.5113857 L10.4542484,11.4108262 C10.8529125,11.1180146 11.1134844,10.6390608 11.1134844,10.0984652 Z" id="Path" fill="#FFFFFF"></path>
                        <polygon id="Path" fill="#FFFFFF" points="7.88541423 23.4108262 10.2713791 23.4108262 9.64928133 10.1096214 8.50756334 10.1096214"></polygon>
                        <polygon id="Path" fill="#FFFFFF" points="8.5212522 10.1096214 7.88541423 23.4108262 8.9337868 23.4108262 9.56962476 10.1096214"></polygon>
                        <path d="M9.14854681,11.6999829 C8.29724764,11.6999829 7.60471248,10.9865477 7.60471248,10.1096214 C7.60471248,9.23269508 8.29729829,8.51925996 9.14854681,8.51925996 C9.99984597,8.51925996 10.6924318,9.23269508 10.6924318,10.1096214 C10.6924318,10.9865477 9.99984597,11.6999829 9.14854681,11.6999829 Z" id="Path" fill="#FEFEFE"></path>
                        <path d="M9.14854652,11.1216696 C8.60680377,11.1216696 8.16611599,10.6676435 8.16611599,10.1096214 C8.16611599,9.55154655 8.60680377,9.09757321 9.14854652,9.09757321 C9.69028927,9.09757321 10.1310283,9.55159932 10.1310283,10.1096214 C10.1310283,10.6676963 9.69028927,11.1216696 9.14854652,11.1216696 Z" id="Path" fill="#FFFFFF"></path>
                        <path d="M10.9919851,25.2903443 L7.30515912,25.2903443 C7.08304361,25.2903443 6.90295809,25.0994128 6.90295809,24.8639201 L6.90295809,23.8372504 C6.90295809,23.6017577 7.08304361,23.4108262 7.30515912,23.4108262 L10.9919851,23.4108262 C11.2141007,23.4108262 11.3941862,23.6017577 11.3941862,23.8372504 L11.3941862,24.8639201 C11.3941862,25.0994128 11.2141509,25.2903443 10.9919851,25.2903443 Z" id="Path" fill="#FFFFFF"></path>
                        <path d="M8.729089,10.1096214 C8.729089,9.65242952 9.02480337,9.26557078 9.42927388,9.14046958 C9.34001707,9.1128745 9.24564232,9.09757321 9.14778738,9.09757321 C8.60646324,9.09757321 8.16611599,9.55159932 8.16611599,10.1096214 C8.16611599,10.6676963 8.60646324,11.1216696 9.14778738,11.1216696 C9.24564232,11.1216696 9.34001707,11.1063683 9.42927388,11.0787732 C9.02480337,10.953672 8.729089,10.5668133 8.729089,10.1096214 Z" id="Path" fill="#FFFFFF"></path>
                        <path d="M8.91396324,24.5834928 C8.91396324,24.3480001 9.09404875,24.1570686 9.31616427,24.1570686 L11.3941862,24.1570686 L11.3941862,23.8372504 C11.3941862,23.6017577 11.2141007,23.4108262 10.9919851,23.4108262 L7.30515912,23.4108262 C7.08304361,23.4108262 6.90295809,23.6017577 6.90295809,23.8372504 L6.90295809,24.8639201 C6.90295809,25.0994128 7.08304361,25.2903443 7.30515912,25.2903443 L8.91396324,25.2903443 L8.91396324,24.5834928 Z" id="Path" fill="#FFFFFF"></path>
                        <path d="M9.65272414,23.1216696 C9.46762175,23.1216696 9.31670164,22.979663 9.31489961,22.8030128 L9.2889391,20.2658244 C9.28713707,20.0881016 9.43693091,19.9426628 9.62349745,19.9409467 C9.62462372,19.9409467 9.62574999,19.9409467 9.62687626,19.9409467 C9.81197865,19.9409467 9.96289876,20.0829533 9.96470079,20.2596035 L9.9906613,22.7967919 C9.99246333,22.9745147 9.84266949,23.1199535 9.65610295,23.1216696 C9.65503299,23.1216696 9.65385041,23.1216696 9.65272414,23.1216696 Z" id="Path" fill="#FFFFFF"></path>
                        <ellipse id="Oval" fill="#FFFFFF" cx="9.35909845" cy="9.89275393" rx="1" ry="1"></ellipse>
                    </g>
                </g>
            </g>
        </g>
    </g>
</svg>