<?xml version="1.0" encoding="UTF-8"?>
<svg width="68px" height="34px" viewBox="0 0 68 34" version="1.1" xmlns="http://www.w3.org/2000/svg" xmlns:xlink="http://www.w3.org/1999/xlink">
    <title>Airplane</title>
    <g id="Extra-screens-" stroke="none" stroke-width="1" fill="none" fill-rule="evenodd" stroke-linejoin="round">
        <g id="Offset---Buisness---One-Time---Flight-" transform="translate(-412.000000, -2227.000000)" stroke="#FFFFFF">
            <g id="Carbon-Reduction-Tips---Flight" transform="translate(253.000000, 2052.000000)">
                <g id="Group-12" transform="translate(115.000000, 40.000000)">
                    <g id="Group-11" transform="translate(0.000000, 100.000000)">
                        <g id="Group-9" transform="translate(26.000000, 0.000000)">
                            <g id="Airplane" transform="translate(19.000000, 36.000000)">
                                <path d="M29.8900563,24.0838971 C29.0558498,24.341546 27.8390001,24.709381 26.9617877,24.961548 C19.1054707,27.2189912 14.0098091,28.2660326 10.792077,28.7736558 L10.7953851,28.774204 C10.6145393,28.6437349 10.4061255,28.5708258 10.1844791,28.5724703 C9.87130712,28.5746631 9.58680579,28.7276079 9.37122435,28.977034 L9.37012163,28.9797749 C7.66752448,29.2127553 5.92081859,27.389478 5.4438929,25.7481995 L1.43330621,25.3052627 C0.642657146,25.126553 0.569326375,23.6437012 1.32854797,23.1810295 L3.42646965,21.9010077 L1.25852535,21.6866657 C-0.0746611488,21.5901844 -0.477153351,19.8370753 0.681252289,19.1748628 L3.88299505,17.344459 C5.97209499,16.1499547 8.37216151,15.6050547 10.7755362,15.7788306 L21.6213226,16.5627412 L21.6273876,16.562193 C21.6273876,16.562193 29.1655703,12.5214904 35.5734667,9.64185248 L35.5988292,9.6308887 L1.67480153,6.73535331 C0.313495715,6.6191372 -0.0746611488,4.82217298 1.11848012,4.16050861 L8.17698036,0.311672192 C8.60814324,0.0726616978 9.10160971,-0.033138819 9.5934221,0.00907174989 L45.5927658,3.08222044 L45.5878035,3.09318422 C46.458951,1.87346324 47.6184594,1.05337219 48.9764571,0.829162802 C51.1284119,0.472839818 53.2952535,1.69146442 54.8875788,3.86448644 L54.8919897,3.86996833 L64.8148009,4.72075798 C66.0867865,4.82929944 66.4495809,6.50895117 65.3347326,7.12785678 L58.0187476,11.1197706 C57.7948958,11.2436613 57.600266,11.3187633 57.3521544,11.3691967 L57.3510517,11.364263 C57.457464,14.5722662 56.4506821,17.4058562 54.7337496,18.9846411 L54.7596635,18.958328 L61.9135489,19.4763668 C63.1596206,19.5662699 63.536199,21.2053556 62.4533295,21.8242612 L58.2139288,24.2916608 C57.7948958,24.5312195 57.3141106,24.6408574 56.8322227,24.6057732 L48.720075,24.4484429 L48.7222805,24.4489911 C48.5844407,23.3641247 47.7976511,22.5325217 46.8482106,22.5325217 C45.9180677,22.5325217 45.1445107,23.3295888 44.9835139,24.3810157 L44.9818598,24.3738892 L37.4817208,24.2308118 L37.4828236,24.23136 C37.4436771,22.7737249 36.5162909,21.6071783 35.3782856,21.6071783 C34.2606805,21.6071783 33.3470783,22.730418 33.2765044,24.150228 L29.8900563,24.0838971 Z" id="Stroke-1103"></path>
                                <path d="M46,17 C46,17 45.9748,17.0982143 45,18" id="Stroke-1104"></path>
                                <line x1="10.5" y1="16" x2="10.5" y2="8" id="Stroke-1105"></line>
                                <line x1="6.5" y1="16" x2="6.5" y2="7" id="Stroke-1106"></line>
                                <line x1="45" y1="18.355" x2="47" y2="18.645" id="Stroke-1107"></line>
                                <line x1="33" y1="16" x2="23" y2="5" id="Stroke-1108"></line>
                                <path d="M10.9999437,30.4907314 C11.0057392,31.3187274 10.5630554,31.9948211 10.0107037,32 C9.45835207,32.0051196 9.00586058,31.3382945 9.00006513,30.5097835 C8.99382387,29.6812726 9.43695346,29.0056938 9.98930513,29 C10.5416568,28.9948804 10.9941483,29.6622204 10.9999437,30.4907314 Z" id="Stroke-1109"></path>
                                <polyline id="Stroke-1110" points="21 16 44.7792386 17.8286219 47 18"></polyline>
                                <polyline id="Stroke-1111" points="33 24 23.632203 23.840254 3 22"></polyline>
                                <path d="M21,17 C21,17 28.4436827,12.856438 34.7717114,9.9034965 C38.454622,8.18558501 41.7596585,6.87073063 43,7.01014229" id="Stroke-1112"></path>
                                <path d="M37,24.500252 C37,25.8809356 36.1044776,27 35,27 C33.8955224,27 33,25.8809356 33,24.500252 C33,23.1195685 33.8955224,22 35,22 C36.1044776,22 37,23.1195685 37,24.500252 Z" id="Stroke-1113"></path>
                                <path d="M56.7927145,8.88917349 C56.9052338,9.55189178 56.9703464,10.206754 56.9920507,10.8470263 C57.1022853,14.1308768 56.0593402,17.0314617 54.2807362,18.6475741 C53.5342252,19.3260046 52.6580599,19.7777304 51.6830834,19.937097 C49.9010524,20.2288951 48.1087404,19.4898604 46.6185741,18.0448988 C44.9724801,16.4489879 43.6947868,13.9911504 43.2070129,11.1102057 C42.6261394,7.68045614 43.3018261,4.46169906 44.8062715,2.38039327 C45.7087103,1.13183425 46.9098677,0.292353676 48.3166441,0.0628432777 C50.5458963,-0.301904299 52.7905699,0.945532414 54.4400909,3.16993148 C55.566997,4.68840371 56.4157464,6.66252982 56.7927145,8.88917349 Z" id="Stroke-1114"></path>
                                <path d="M51.9556288,10.2223009 C52.1548763,11.5943594 51.6643047,12.8308847 50.8607734,12.9842968 C50.056739,13.137709 49.2436479,12.1497577 49.0444003,10.7776991 C48.8451528,9.40506383 49.3352213,8.1685386 50.1392557,8.01570316 C50.9432901,7.86229098 51.7563812,8.85024234 51.9556288,10.2223009 Z" id="Stroke-1115"></path>
                                <path d="M50,4.04239246 C52.2132103,3.62821448 54.4513359,6.29563984 55,10" id="Stroke-1116"></path>
                                <path d="M52,16.9576075 C49.7873198,17.3717855 47.5486641,14.7043602 47,11" id="Stroke-1117"></path>
                                <line x1="9" y1="25.916" x2="5" y2="25.084" id="Stroke-1118"></line>
                                <path d="M49,24.5 C49,25.8805879 48.1042606,27 47.0002908,27 C45.8957394,27 45,25.8805879 45,24.5 C45,23.1194121 45.8957394,22 47.0002908,22 C48.1042606,22 49,23.1194121 49,24.5 Z" id="Stroke-1119"></path>
                            </g>
                        </g>
                    </g>
                </g>
            </g>
        </g>
    </g>
</svg>