<?xml version="1.0" encoding="UTF-8"?>
<svg width="42px" height="26px" viewBox="0 0 42 26" version="1.1" xmlns="http://www.w3.org/2000/svg" xmlns:xlink="http://www.w3.org/1999/xlink">
    <title>Group 39</title>
    <g id="Extra-screens-" stroke="none" stroke-width="1" fill="none" fill-rule="evenodd" stroke-linejoin="round">
        <g id="Offset---Buisness---Subscription---Car" transform="translate(-521.000000, -339.000000)" stroke="#2F2F2F">
            <g id="Categries" transform="translate(354.000000, 324.000000)">
                <g id="Flight" transform="translate(152.000000, 0.000000)">
                    <g id="Group-39" transform="translate(16.000000, 16.000000)">
                        <polyline id="Stroke-355" points="15.8728675 7.30434783 11.5789474 0.118205929 14.510325 0 25.2631579 6.93203454"></polyline>
                        <path d="M5.55611002,11.9828906 C8.28285232,12.906259 12.0626371,13.7007682 15.9284461,13.545769 L32.2926729,12.8893233 C34.0090075,12.8204756 40.0699441,12.1191132 39.9993891,10.4443114 C39.9288341,8.76987774 33.752444,6.73095654 32.0361093,6.79980418 L12.8662846,7.56854154 C11.1503273,7.63738918 8.65826516,8.03758914 5.58403017,4.53188172 L2.52526445,1.04347826 L0,1.1447248 L2.35246136,7.8895851 C1.50580165,8.13478581 0.785914516,8.50405955 0.808175177,9.02943704 C0.824021749,9.40901952 1.22584554,9.82173723 1.77783447,10.1957972 C1.92498121,10.3180293 2.27964259,10.5253086 2.52715095,10.6515907" id="Stroke-357"></path>
                        <polyline id="Stroke-359" points="3.15643703 9.39130435 1.05263158 12.248033 3.66943724 12.5217391 7.36842105 9.87283625"></polyline>
                        <polyline id="Stroke-361" points="14.7682961 14.0476938 8.42105263 24 12.1190735 23.8568747 27.3684211 13.5652174"></polyline>
                        <line x1="32.6315789" y1="9.39130435" x2="13.6842105" y2="10.4347826" id="Stroke-363"></line>
                        <path d="M34.7368421,9.39130435 C35.4401069,9.36189997 37.9234179,9.06257854 37.8944861,8.34782609" id="Stroke-365"></path>
                    </g>
                </g>
            </g>
        </g>
    </g>
</svg>