<?xml version="1.0" encoding="UTF-8"?>
<svg width="72px" height="34px" viewBox="0 0 72 34" version="1.1" xmlns="http://www.w3.org/2000/svg" xmlns:xlink="http://www.w3.org/1999/xlink">
    <title>bus</title>
    <g id="Extra-screens-" stroke="none" stroke-width="1" fill="none" fill-rule="evenodd" stroke-linejoin="round">
        <g id="Carbon-Reduction-Tips---car" transform="translate(-565.000000, -175.000000)" stroke="#FFFFFF">
            <g id="Group-12" transform="translate(107.000000, 40.000000)">
                <g id="Group-11" transform="translate(0.000000, 100.000000)">
                    <g id="Group-10-Copy-2" transform="translate(410.000000, 0.000000)">
                        <g id="Group-9" transform="translate(32.000000, 0.000000)">
                            <g id="bus" transform="translate(16.208031, 36.064249)">
                                <path d="M53.0788971,31.4126913 C53.4088388,31.4049243 54.9305476,31.4008854 55.3002563,31.4008854 C56.8934214,31.4008854 58.2489165,30.0031379 58.7115184,28.1924971 L56.5178097,28.1924971" id="Stroke-776"></path>
                                <path d="M56.4410097,28.1937709 C55.990835,30.0317515 54.655534,31.3773049 53.0474563,31.4158291 C51.3921553,31.4552854 49.9596117,30.0979262 49.4584854,28.1990524" id="Stroke-777"></path>
                                <path d="M11.049165,26.6817864 L9.19347573,26.6659417 L9.19223301,26.6659417 C8.31549515,26.6659417 7.48784466,26.2219806 7.03363107,25.472 C6.66081553,24.8568544 6.4327767,24.2528932 6.34765049,23.8664078 C5.73312621,21.0855146 5.83502913,18.8069903 6.00434951,15.2090097 C6.06617476,13.8935922 6.18485437,12.6154563 6.35293204,11.3901359 C6.7481165,8.51231068 7.41669903,5.92683495 8.2688932,3.83720388 L8.27075728,3.82229126 C7.97933981,3.82229126 7.90353398,3.49700971 8.0921165,3.2928932 C9.808,1.43720388 18.7972039,0 30.696233,0 L38.121165,0 C53.1617864,0 58.9631068,1.40582524 60.7078835,3.2928932 C60.896466,3.49700971 60.496932,3.82229126 60.2055146,3.82229126 C61.6389903,6.94990291 62.9907573,11.4830291 62.9907573,16.6816311 C62.9907573,19.6445825 62.7478058,23.3795728 62.2283495,25.8072233 C62.8646214,25.8072233 63.3856311,26.2980971 63.3856311,26.8983301 C63.3856311,26.8983301 63.5139417,28.1913786 60.5627961,28.1913786 L44.3465631,28.1913786 C40.5239612,28.1913786 40.768466,26.7411262 40.768466,26.7411262" id="Stroke-778"></path>
                                <line x1="30.3550136" y1="26.7411262" x2="19.165266" y2="26.7411262" id="Stroke-779"></line>
                                <line x1="40.7334835" y1="26.7411262" x2="38.2384155" y2="26.7411262" id="Stroke-780"></line>
                                <path d="M15.3680466,31.5267728 L18.0880466,31.5267728 C19.9922019,31.5267728 21.5648621,29.1283262 21.6714252,26.7413748 L19.2123961,26.7413748" id="Stroke-781"></path>
                                <path d="M19.1149981,25.8348738 C19.1516583,26.1287767 19.1687456,26.4189515 19.1678497,26.703534 C19.1591146,29.2141359 17.7346485,31.2851262 15.7354252,31.5063301 C13.5097165,31.752699 11.4138718,29.6130485 11.0547262,26.7271456 C10.6952699,23.8412427 12.2085903,21.3017476 14.434299,21.0553786 C16.6600078,20.8093204 18.7558524,22.9489709 19.1149981,25.8348738 Z" id="Stroke-782"></path>
                                <path d="M17.2970563,26.0361631 C17.4943379,27.6203184 16.6638913,29.0140272 15.4419883,29.1491728 C14.2203961,29.2846291 13.0699495,28.1099495 12.872668,26.5257942 C12.6753864,24.9416388 13.505833,23.5479301 14.7277359,23.4127845 C15.9496388,23.2773282 17.0997748,24.4520078 17.2970563,26.0361631 Z" id="Stroke-783"></path>
                                <path d="M34.4875806,31.3890175 L36.7657942,31.3890175 C38.7976388,31.3890175 40.4722019,29.360901 40.7030369,26.7468427 L38.3064544,26.7468427" id="Stroke-784"></path>
                                <path d="M38.2560932,25.944233 C38.3536466,27.9972039 37.6664233,31.238835 34.546268,31.383301 C32.3590835,31.4845825 30.4741903,29.2138252 30.3359379,26.3114563 C30.1979961,23.4087767 31.8588893,20.9736699 34.0460738,20.8720777 C36.2332583,20.7707961 38.1181515,23.0415534 38.2560932,25.944233 Z" id="Stroke-785"></path>
                                <path d="M36.4698408,26.0269049 C36.5456466,27.6200699 35.6338019,28.9569243 34.4333359,29.0125359 C33.2328699,29.0681476 32.1979961,27.821701 32.122501,26.2285359 C32.0466951,24.6353709 32.9582291,23.2985165 34.1590058,23.2429049 C35.3594718,23.1872932 36.394035,24.4337398 36.4698408,26.0269049 Z" id="Stroke-786"></path>
                                <path d="M50.2225709,19.6802796 C50.1663379,21.2675417 48.7443573,22.5108816 47.0464932,22.4574447 C45.3486291,22.4040078 44.0176777,21.0739883 44.0739107,19.4867262 C44.1301437,17.8994641 45.5521243,16.6561243 47.2499883,16.7095612 C48.9478524,16.7629981 50.2788039,18.0930175 50.2225709,19.6802796 Z" id="Stroke-787"></path>
                                <path d="M21.5479612,26.7409709 C20.4624466,23.7071845 19.8053592,19.6835728 19.8053592,15.2458252 C19.8053592,13.9288544 19.8634563,12.6469903 19.9740583,11.415767 C20.233165,8.52427184 20.7796505,5.91332039 21.5327379,3.79013592" id="Stroke-788"></path>
                                <path d="M11.8082796,11.4158602 C12.0676971,8.52436505 12.6141825,5.91341359 13.3672699,3.79022913" id="Stroke-789"></path>
                                <path d="M15.8541049,11.4158602 C16.1132117,8.52436505 16.6600078,5.91341359 17.4127845,3.79022913" id="Stroke-790"></path>
                                <path d="M39.7679223,3.70016311 C40.4846602,6.82777476 40.9391845,11.4829981 40.9391845,16.6816 C40.9391845,19.6445515 40.9634175,24.3134447 40.7036893,26.7410951" id="Stroke-791"></path>
                                <path d="M53.8977864,10.4888233 C53.6386796,7.59732816 53.2295146,5.91344466 52.4767379,3.79026019" id="Stroke-792"></path>
                                <path d="M60.7698951,9.99158058 C60.9584777,10.1953864 60.7773515,10.5110369 60.485934,10.5110369 L44.2302447,10.5110369 C43.9388272,10.5110369 43.7580117,10.1953864 43.9465942,9.99158058" id="Stroke-793"></path>
                                <path d="M40.7683728,26.7411262 C40.7683728,25.8755728 41.6752466,25.8072233 42.4842563,25.8072233 L49.2971495,25.8072233 L49.2971495,24.9547184 C49.2971495,24.3492039 49.8225087,23.8536699 50.4646835,23.8536699 C51.1071689,23.8536699 51.6325282,24.3492039 51.6325282,24.9547184 L51.6325282,25.8072233 L60.3393243,25.8072233 L60.3393243,24.5244272 C60.3393243,24.1556505 60.6593243,23.8536699 61.0507806,23.8536699 L61.0576155,23.8536699 C61.4487612,23.8536699 61.7690718,24.1556505 61.7690718,24.5244272 L61.7690718,25.8072233 L62.2282563,25.8072233" id="Stroke-794"></path>
                                <path d="M62.7996272,19.8697631 C62.7471223,21.3523262 61.8706951,22.5279379 60.842035,22.4956272 C59.8133748,22.4633165 59.0217631,21.2352 59.074268,19.7526369 C59.1267728,18.2700738 60.0035107,17.0944621 61.0321709,17.1267728 C62.0608311,17.1590835 62.852132,18.3872 62.7996272,19.8697631 Z" id="Stroke-795"></path>
                                <path d="M6.39701748,11.4087456 L30.1950757,11.4087456 C38.7623767,11.4087456 45.5948427,12.6458718 50.3758913,16.4346097 C54.3963961,19.6206291 55.3259495,23.4348427 55.3259495,23.4348427 C55.3259495,23.4348427 57.8054835,15.4342214 62.370299,12.4855612" id="Stroke-796"></path>
                                <path d="M57.4304,14.6622447 C57.4658175,16.4349825 56.2538563,17.9063612 54.7231379,17.949235 C53.1924194,17.9914874 51.9226718,16.5887689 51.8872544,14.8160311 C51.8515262,13.0432932 53.0637981,11.5719146 54.5945165,11.5293515 C56.125235,11.4867883 57.3949825,12.8895068 57.4304,14.6622447 Z" id="Stroke-797"></path>
                                <polyline id="Stroke-798" points="56.477266 13.6657087 55.5328 16.4478447 54.7632466 14.7648932 54.0623534 16.4885437 53.0079068 13.7620194"></polyline>
                                <polyline id="Stroke-799" points="53.9912388 12.9360466 54.7607922 14.6189981 55.4616854 12.8953476"></polyline>
                                <line x1="60.4076427" y1="3.79026019" x2="8.35948738" y2="3.79026019" id="Stroke-800"></line>
                                <path d="M30.2155806,26.758866 C29.130066,23.7250796 28.4676971,19.6834485 28.4676971,15.245701 C28.4676971,13.9290408 28.5257942,12.646866 28.6363961,11.4159534 C28.8955029,8.52445825 29.4419883,5.9135068 30.1950757,3.79032233" id="Stroke-801"></path>
                                <line x1="70.991534" y1="31.5256854" x2="0" y2="31.5256854" id="Stroke-802"></line>
                            </g>
                        </g>
                    </g>
                </g>
            </g>
        </g>
    </g>
</svg>