<?xml version="1.0" encoding="UTF-8"?>
<svg width="43px" height="25px" viewBox="0 0 43 25" version="1.1" xmlns="http://www.w3.org/2000/svg" xmlns:xlink="http://www.w3.org/1999/xlink">
    <title>Group 34</title>
    <g id="Extra-screens-" stroke="none" stroke-width="1" fill="none" fill-rule="evenodd" stroke-linejoin="round">
        <g id="Offset---Buisness---Subscription---Flight" transform="translate(-674.000000, -340.000000)" stroke="#2F2F2F">
            <g id="Categories" transform="translate(277.000000, 148.000000)">
                <g id="Categries" transform="translate(77.000000, 176.000000)">
                    <g id="Cars" transform="translate(304.000000, 0.000000)">
                        <g id="Group-34" transform="translate(16.089567, 16.236467)">
                            <path d="M31.6961667,8.7331 L33.4915,8.7331 C33.7725,8.7331 34.0018333,8.50343333 34.0018333,8.22276667 L34.0018333,6.10543333 C34.0018333,5.82443333 33.7725,5.59476667 33.4915,5.59476667 L31.2375,5.59476667" id="Stroke-1036"></path>
                            <path d="M11.5708333,5.59473333 L9.3385,5.59473333 C9.05783333,5.59473333 8.82783333,5.8244 8.82783333,6.1054 L8.82783333,8.22273333 C8.82783333,8.5034 9.05783333,8.73306667 9.3385,8.73306667 L11.1128333,8.73306667" id="Stroke-1037"></path>
                            <path d="M10.918,10.2964 L11.9773333,2.76673333 C12.1066667,1.98206667 12.681,1.51273333 13.541,1.51273333 L29.289,1.51273333 C30.149,1.51273333 30.7233333,2.00506667 30.8526667,2.76673333 L31.9113333,10.2914" id="Stroke-1038"></path>
                            <polyline id="Stroke-1039" points="14.7585 18.7798 16.9418333 20.1628 25.8881667 20.1628 28.0541667 18.7974667"></polyline>
                            <path d="M13.1357667,18.7894 L13.1357667,22.6127333 C13.1357667,22.9940667 12.8234333,23.3060667 12.4421,23.3060667 L9.1831,23.3060667 C8.80176667,23.3060667 8.48976667,22.9940667 8.48976667,22.6127333 L8.48976667,18.7894" id="Stroke-1040"></path>
                            <path d="M34.3405333,18.7869667 L34.3405333,22.4376333 C34.3405333,22.9153 33.9495333,23.3063 33.4718667,23.3063 L30.5628667,23.3063 C30.0852,23.3063 29.6945333,22.9153 29.6945333,22.4376333 L29.6945333,18.7869667" id="Stroke-1041"></path>
                            <path d="M35.1673667,13.4451667 L35.1673667,18.7005 C35.1673667,18.7491667 35.1273667,18.7891667 35.0787,18.7891667 L7.75136667,18.7891667 C7.7027,18.7891667 7.6627,18.7491667 7.6627,18.7005 L7.6627,13.4451667" id="Stroke-1042"></path>
                            <path d="M29.7651667,10.1808333 C30.4011667,10.1808333 35.1675,10.4685 35.1675,10.8205 L35.1675,15.0491667 C35.1675,15.4008333 35.0645,15.6888333 34.4285,15.6888333 L29.3538333,15.6888333" id="Stroke-1043"></path>
                            <path d="M13.4557667,15.6888333 L8.40143333,15.6888333 C7.76543333,15.6888333 7.66276667,15.4008333 7.66276667,15.0491667 L7.66276667,10.8205 C7.66276667,10.4685 12.4277667,10.1808333 13.0637667,10.1808333" id="Stroke-1044"></path>
                            <line x1="27.2604333" y1="0" x2="27.2604333" y2="1.51266667" id="Stroke-1045"></line>
                            <line x1="15.5697" y1="0" x2="15.5697" y2="1.51266667" id="Stroke-1046"></line>
                            <line x1="29.9036667" y1="7.2536" x2="12.9263333" y2="7.2536" id="Stroke-1047"></line>
                            <line x1="42.8553333" y1="23.3061667" x2="0" y2="23.3061667" id="Stroke-1048"></line>
                            <path d="M15.0719667,12.2181 C15.0719667,13.3267667 14.1733,14.2254333 13.0646333,14.2254333 C11.9556333,14.2254333 11.0569667,13.3267667 11.0569667,12.2181 C11.0569667,11.1094333 11.9556333,10.2107667 13.0646333,10.2107667 C14.1733,10.2107667 15.0719667,11.1094333 15.0719667,12.2181 Z" id="Stroke-1049"></path>
                            <path d="M31.7731333,12.2181 C31.7731333,13.3267667 30.8741333,14.2254333 29.7654667,14.2254333 C28.6568,14.2254333 27.7581333,13.3267667 27.7581333,12.2181 C27.7581333,11.1094333 28.6568,10.2107667 29.7654667,10.2107667 C30.8741333,10.2107667 31.7731333,11.1094333 31.7731333,12.2181 Z" id="Stroke-1050"></path>
                            <line x1="20.1624667" y1="10.3131667" x2="20.1624667" y2="14.1231667" id="Stroke-1051"></line>
                            <line x1="22.6676667" y1="10.3131667" x2="22.6676667" y2="14.1231667" id="Stroke-1052"></line>
                            <line x1="25.1727333" y1="10.3131667" x2="25.1727333" y2="14.1231667" id="Stroke-1053"></line>
                            <line x1="17.6572667" y1="10.3131667" x2="17.6572667" y2="14.1231667" id="Stroke-1054"></line>
                            <path d="M29.7655,14.2324333 L29.7655,15.1641 C29.7655,15.4527667 29.5295,15.6887667 29.2408333,15.6887667 L13.5891667,15.6887667 C13.3005,15.6887667 13.0645,15.4527667 13.0645,15.1641 L13.0645,14.1907667 L13.0645,14.2254333 C11.9558333,14.2254333 11.0571667,13.3267667 11.0571667,12.2181 C11.0571667,11.1094333 11.9558333,10.2107667 13.0645,10.2107667 L13.0645,9.2721 C13.0645,8.98343333 13.3005,8.74743333 13.5891667,8.74743333 L29.2408333,8.74743333 C29.5295,8.74743333 29.7655,8.98343333 29.7655,9.2721 L29.7655,10.2107667 C30.8741667,10.2107667 31.7731667,11.1094333 31.7731667,12.2181 C31.7731667,13.3267667 30.8741667,14.2254333 29.7655,14.2254333 L29.7655,14.2324333 Z" id="Stroke-1055"></path>
                        </g>
                    </g>
                </g>
            </g>
        </g>
    </g>
</svg>