<?xml version="1.0" encoding="UTF-8"?>
<svg width="68px" height="34px" viewBox="0 0 68 34" version="1.1" xmlns="http://www.w3.org/2000/svg" xmlns:xlink="http://www.w3.org/1999/xlink">
    <title>Cycle</title>
    <g id="Extra-screens-" stroke="none" stroke-width="1" fill="none" fill-rule="evenodd" stroke-linejoin="round">
        <g id="Carbon-Reduction-Tips---car" transform="translate(-363.000000, -175.000000)" stroke="#FFFFFF" stroke-width="2">
            <g id="Group-12" transform="translate(107.000000, 40.000000)">
                <g id="Group-11" transform="translate(0.000000, 100.000000)">
                    <g id="Group-10-Copy" transform="translate(212.000000, 0.000000)">
                        <g id="Group-9" transform="translate(26.000000, 0.000000)">
                            <g id="Cycle" transform="translate(18.178588, 36.222165)">
                                <path d="M24.6043765,21.1829176 C24.6043765,26.6916235 20.1389647,31.1565647 14.6302588,31.1565647 C9.12202353,31.1565647 4.65661176,26.6916235 4.65661176,21.1829176 C4.65661176,15.6742118 9.12202353,11.2088 14.6302588,11.2088 C20.1389647,11.2088 24.6043765,15.6742118 24.6043765,21.1829176 Z" id="Stroke-767"></path>
                                <path d="M57.3886118,21.1829176 C57.3886118,26.6916235 52.9232,31.1565647 47.4149647,31.1565647 C41.9062588,31.1565647 37.4408471,26.6916235 37.4408471,21.1829176 C37.4408471,15.6742118 41.9062588,11.2088 47.4149647,11.2088 C52.9232,11.2088 57.3886118,15.6742118 57.3886118,21.1829176 Z" id="Stroke-768"></path>
                                <polyline id="Stroke-769" points="28.8318588 18.8157176 21.6022118 5.57524706 38.4911529 5.57524706 46.6873882 20.6011294 32.9951529 20.6011294"></polyline>
                                <line x1="32.1710118" y1="19.0108235" x2="40.8176" y2="0.235294118" id="Stroke-770"></line>
                                <path d="M33.0273882,20.8624 C33.0273882,22.2972235 31.8640941,23.4605176 30.4292706,23.4605176 C28.9944471,23.4605176 27.8311529,22.2972235 27.8311529,20.8624 C27.8311529,19.4275765 28.9944471,18.2642824 30.4292706,18.2642824 C31.8640941,18.2642824 33.0273882,19.4275765 33.0273882,20.8624 Z" id="Stroke-771"></path>
                                <line x1="44.5023529" y1="0.235294118" x2="37.8369412" y2="0.235294118" id="Stroke-772"></line>
                                <polyline id="Stroke-773" points="26.9272471 26.2592 28.6863059 26.2592 30.1074824 23.4606118"></polyline>
                                <path d="M19.1997647,5.63741176 C17.708,5.63741176 16.4985882,4.42847059 16.4985882,2.93670588 C16.4985882,1.44494118 17.708,0.235529412 19.1997647,0.235529412 L19.2096471,0.235529412 L24.0529412,0.235529412 L14.3663529,21.3461176" id="Stroke-774"></path>
                                <line x1="66.904" y1="31.1567059" x2="0" y2="31.1567059" id="Stroke-775"></line>
                            </g>
                        </g>
                    </g>
                </g>
            </g>
        </g>
    </g>
</svg>