<?xml version="1.0" encoding="UTF-8"?>
<svg width="16px" height="20px" viewBox="0 0 16 20" version="1.1" xmlns="http://www.w3.org/2000/svg" xmlns:xlink="http://www.w3.org/1999/xlink">
    <title>Group 88 Copy 3</title>
    <g id="Extra-screens-" stroke="none" stroke-width="1" fill="none" fill-rule="evenodd" stroke-linejoin="round">
        <g id="Offset---Individual---OneTime/Subs---Other-Transport" transform="translate(-308.000000, -1732.000000)" stroke="#2F0000">
            <g id="Carbon-Reduction-Tips---Flight" transform="translate(253.000000, 1440.000000)">
                <g id="Group-88-Copy-3" transform="translate(56.000000, 293.000000)">
                    <path d="M12.7663122,7.02067635 C13.1535959,6.44314602 13.382023,5.74293155 13.382023,4.98665301 C13.382023,3.01315071 11.836514,1.41333072 9.93000858,1.41333072 C9.57739685,1.41333072 9.2372489,1.46869106 8.91681639,1.57049778 C8.43322164,0.636174756 7.48166853,0 6.38598877,0 C5.43375581,0 4.59211059,0.482291776 4.06999142,1.22144615 C4.0011007,1.21745833 3.9326632,1.21065557 3.86241279,1.21065557 C1.92576766,1.21065557 0.355557714,2.83604454 0.355557714,4.84074567 C0.355557714,5.70446081 0.648116674,6.49662974 1.13465741,7.11966814 C0.433513006,7.85225434 0,8.85953104 0,9.97213313 C0,12.2109428 1.75308762,14.025636 3.91566714,14.025636 C4.03713236,14.025636 4.15701128,14.0181295 4.27575713,14.0068698 C4.88829538,14.8938081 5.88902378,15.4736842 7.02254812,15.4736842 C8.07199858,15.4736842 9.00972822,14.9782561 9.62906489,14.2011001 C9.73625342,14.2097795 9.84344195,14.2179897 9.95267,14.2179897 C12.1879927,14.2179897 14,12.3423063 14,10.0284318 C14,8.847333 13.525923,7.78235018 12.7663122,7.02067635 Z" id="Stroke-855"></path>
                    <line x1="6.64473684" y1="18.4210526" x2="6.64473684" y2="5.15789474" id="Stroke-856"></line>
                    <line x1="8.84210526" y1="8.10526316" x2="5.89473684" y2="11.0526316" id="Stroke-857"></line>
                    <line x1="5.89473684" y1="8.84210526" x2="4.42105263" y2="7.36842105" id="Stroke-858"></line>
                    <line x1="10.3157895" y1="18.4342105" x2="2.21052632" y2="18.4342105" id="Stroke-859"></line>
                </g>
            </g>
        </g>
    </g>
</svg>