<?xml version="1.0" encoding="UTF-8"?>
<svg width="24px" height="24px" viewBox="0 0 24 24" version="1.1" xmlns="http://www.w3.org/2000/svg" xmlns:xlink="http://www.w3.org/1999/xlink">
    <title>clarity:employee-group-line</title>
    <g id="Extra-screens-" stroke="none" stroke-width="1" fill="none" fill-rule="evenodd">
        <g id="Offset---Buisness---Subscription---Flight" transform="translate(-370.000000, -340.000000)">
            <g id="Categories" transform="translate(277.000000, 148.000000)">
                <g id="Categries" transform="translate(77.000000, 176.000000)">
                    <g id="clarity:employee-group-line" transform="translate(16.000000, 16.000000)">
                        <rect id="ViewBox" x="0" y="0" width="24" height="24"></rect>
                        <path d="M12.28,10.8733574 C10.1866665,10.851297 8.50544072,9.14034529 8.52009308,7.0469471 C8.53474545,4.95354891 10.2397564,3.26629853 12.3331932,3.27354337 C14.4266301,3.280835 16.119884,4.97988387 16.12,7.07333333 C16.1053213,9.18153208 14.3882369,10.8807303 12.28,10.8733574 L12.28,10.8733574 Z M12.28,4.60662948 C10.9231225,4.62867299 9.83886458,5.74259098 9.85347634,7.09956821 C9.86808811,8.45654544 10.9760809,9.54685754 12.3331177,9.53967639 C13.6901544,9.53242401 14.7864882,8.43038922 14.7866667,7.07333333 C14.772014,5.70151621 13.6518753,4.59925208 12.28,4.60662948 L12.28,4.60662948 Z" id="Shape" fill="#2F2F2F" fill-rule="nonzero"></path>
                        <path d="M12.28,10.8733574 C10.1866665,10.851297 8.50544072,9.14034529 8.52009308,7.0469471 C8.53474545,4.95354891 10.2397564,3.26629853 12.3331932,3.27354337 C14.4266301,3.280835 16.119884,4.97988387 16.12,7.07333333 C16.1053213,9.18153208 14.3882369,10.8807303 12.28,10.8733574 L12.28,10.8733574 Z M12.28,4.60662948 C10.9231225,4.62867299 9.83886458,5.74259098 9.85347634,7.09956821 C9.86808811,8.45654544 10.9760809,9.54685754 12.3331177,9.53967639 C13.6901544,9.53242401 14.7864882,8.43038922 14.7866667,7.07333333 C14.772014,5.70151621 13.6518753,4.59925208 12.28,4.60662948 L12.28,4.60662948 Z M14.6066667,11.7666667 C11.6496944,11.2521246 8.60557362,11.7204509 5.94,13.1 C5.55426506,13.3141772 5.3202374,13.7256544 5.33333333,14.1666667 L5.33333333,16.54 C5.33333333,16.9081898 5.63181017,17.2066667 6,17.2066667 C6.36818983,17.2066667 6.66666667,16.9081898 6.66666667,16.54 L6.66666667,14.2533333 C9.13844658,13.0130919 11.9493259,12.6195688 14.6666667,13.1333333 L14.6066667,11.7666667 Z" id="Shape" fill="#2F2F2F" fill-rule="nonzero"></path>
                        <path d="M22,14.6666667 L17.5333333,14.6666667 L17.5333333,13.68 C17.5333333,13.3118102 17.2348565,13.0133333 16.8666667,13.0133333 C16.4984768,13.0133333 16.2,13.3118102 16.2,13.68 L16.2,14.6666667 L11.3333333,14.6666667 C10.9651435,14.6666667 10.6666667,14.9651435 10.6666667,15.3333333 L10.6666667,22 C10.6666667,22.3681898 10.9651435,22.6666667 11.3333333,22.6666667 L22,22.6666667 C22.3681898,22.6666667 22.6666667,22.3681898 22.6666667,22 L22.6666667,15.3333333 C22.6666667,14.9651435 22.3681898,14.6666667 22,14.6666667 Z M21.3333333,21.3333333 L12,21.3333333 L12,16 L16.2,16 L16.2,16.2733333 C16.2,16.6415232 16.4984768,16.94 16.8666667,16.94 C17.2348565,16.94 17.5333333,16.6415232 17.5333333,16.2733333 L17.5333333,16 L21.3333333,16 L21.3333333,21.3333333 Z" id="Shape" fill="#2F2F2F" fill-rule="nonzero"></path>
                        <path d="M14.54,18.28 L18.5133333,18.28 L18.5133333,19.2133333 L14.54,19.2133333 L14.54,18.28 Z M7.22666667,8.16 C5.38096236,8.19087844 3.56726402,8.64715475 1.92666667,9.49333333 C1.56309817,9.68537407 1.33497276,10.0621655 1.33333333,10.4733333 L1.33333333,12.54 C1.33333333,12.9081898 1.63181017,13.2066667 2,13.2066667 C2.36818983,13.2066667 2.66666667,12.9081898 2.66666667,12.54 L2.66666667,10.6066667 C4.23419944,9.82641603 5.96970812,9.44405462 7.72,9.49333333 C7.49099921,9.07551401 7.32477179,8.62625072 7.22666667,8.16 L7.22666667,8.16 Z M22.0733333,9.48666667 C20.6019078,8.71480695 18.984787,8.26055955 17.3266667,8.15333333 C17.2290265,8.61875982 17.0651356,9.06777601 16.84,9.48666667 C18.4020475,9.52405261 19.9364835,9.90652332 21.3333333,10.6066667 L21.3333333,12.54 C21.3333333,12.9081898 21.6318102,13.2066667 22,13.2066667 C22.3681898,13.2066667 22.6666689,12.9081898 22.6666689,12.54 L22.6666689,10.4733333 C22.6674954,10.0597708 22.4390159,9.67982719 22.0733333,9.48666667 L22.0733333,9.48666667 Z M7.10666667,7.07333333 L7.10666667,6.62666667 C6.02170687,6.48147105 5.24305569,5.50828516 5.33942332,4.41790321 C5.43579096,3.32752126 6.37305891,2.50598779 7.46666667,2.55333333 C8.01421188,2.55234138 8.54049163,2.76524546 8.93333333,3.14666667 C9.27992963,2.86078707 9.66060631,2.61894542 10.0666667,2.42666667 C9.1381469,1.35900958 7.64803708,0.973371749 6.31816123,1.45655997 C4.98828539,1.93974819 4.0932689,3.19198192 4.06666667,4.60666667 C4.09565709,6.35937373 5.45243427,7.80275372 7.2,7.94 C7.14344661,7.65442042 7.11221427,7.36440584 7.10666667,7.07333333 L7.10666667,7.07333333 Z M16.5133333,1.21997275 C15.5878573,1.22020374 14.7013456,1.59258671 14.0533333,2.25333333 C14.5040286,2.41664635 14.9302161,2.64095555 15.32,2.92 C15.9541488,2.4797939 16.7791045,2.42432764 17.4664741,2.77568089 C18.1538438,3.12703413 18.5920547,3.82817579 18.6066667,4.6 C18.5981047,5.39412005 18.1338178,6.11259759 17.4133333,6.44666667 C17.4401542,6.65224173 17.453516,6.85934944 17.4533333,7.06666667 C17.4515484,7.3346434 17.4292611,7.60209073 17.3866667,7.86666667 C18.8800493,7.48273822 19.9280934,6.14189853 19.94,4.6 C19.9216807,2.72268959 18.3907184,1.21257703 16.5133333,1.21997275 L16.5133333,1.21997275 Z" id="Shape" fill="#2F2F2F" fill-rule="nonzero"></path>
                    </g>
                </g>
            </g>
        </g>
    </g>
</svg>