<?xml version="1.0" encoding="UTF-8"?>
<svg width="70px" height="26px" viewBox="0 0 70 26" version="1.1" xmlns="http://www.w3.org/2000/svg" xmlns:xlink="http://www.w3.org/1999/xlink">
    <title>Group 35</title>
    <g id="Extra-screens-" stroke="none" stroke-width="1" fill="none" fill-rule="evenodd" stroke-linejoin="round">
        <g id="Offset---Buisness---Subscription---Flight" transform="translate(-826.000000, -338.000000)" stroke="#2F2F2F">
            <g id="Categories" transform="translate(277.000000, 148.000000)">
                <g id="Categries" transform="translate(77.000000, 176.000000)">
                    <g id="Events" transform="translate(456.000000, 0.000000)">
                        <g id="Group-35" transform="translate(16.000000, 15.000000)">
                            <polygon id="Stroke-748" points="18.0686827 4.42489037 9.22670689 23.8487525 31.2964009 23.8487525 31.3041999 4.42489037"></polygon>
                            <polygon id="Stroke-749" points="31.3041999 4.42489037 22.4619241 23.8487525 40.1461757 23.8487525"></polygon>
                            <polygon id="Stroke-750" points="31.30375 13.8120067 26.7350308 23.8489037 35.8724691 23.8489037"></polygon>
                            <line x1="31.3041999" y1="23.8466959" x2="31.3041999" y2="4.42495085" id="Stroke-751"></line>
                            <polyline id="Stroke-752" points="29.2690486 0 31.3042899 4.42492061 33.3392312 0"></polyline>
                            <path d="M57.4228391,21.9476183 L58.941546,20.8948435 C59.3257971,20.6283986 59.5090738,20.1209134 59.3179981,19.6920611 C59.0702296,19.1346741 58.3935157,18.9622864 57.9180761,19.2919401 L54.1382567,21.9421745" id="Stroke-753"></path>
                            <path d="M51.2865193,21.9169212 L47.5900893,19.3247543 C47.2058381,19.0583094 46.6701062,19.0673824 46.341348,19.4009678 C45.9139024,19.8337517 45.9963919,20.5323756 46.4721314,20.8623318 L48.001037,21.9220626" id="Stroke-754"></path>
                            <path d="M59.9307902,23.8487827 L45.7446939,23.8487827 C45.2734538,23.8487827 44.8883028,23.4601542 44.8883028,22.9853319 L44.8883028,22.8053833 C44.8883028,22.3302586 45.2734538,21.9419326 45.7446939,21.9419326 L59.9307902,21.9419326 C60.4017304,21.9419326 60.7871813,22.3302586 60.7871813,22.8053833 L60.7871813,22.9853319 C60.7871813,23.4601542 60.4017304,23.8487827 59.9307902,23.8487827 Z" id="Stroke-755"></path>
                            <path d="M55.4433608,17.8671102 C55.4433608,15.7627703 54.3377013,15.4355361 53.5670993,13.9962498 C53.1543518,13.2256465 52.8375921,11.9387872 52.8375921,11.9387872 C52.8375921,11.9387872 52.5115335,13.2422804 52.0897872,14.0310298 C51.3197851,15.4712233 50.2321233,15.7627703 50.2321233,17.8671102 C50.2321233,18.8013307 50.7162618,19.6212309 51.4448692,20.0869802 C51.3290839,19.8655981 51.2624923,19.6139725 51.2624923,19.3463179 C51.2624923,18.0742779 51.9203087,17.8979586 52.3855496,17.0272494 C52.6405171,16.55031 52.8375921,15.7627703 52.8375921,15.7627703 C52.8375921,15.7627703 53.0292677,16.5406321 53.278536,17.0063814 C53.7443768,17.8764857 54.4126918,18.0742779 54.4126918,19.3463179 C54.4126918,19.6139725 54.3464002,19.8655981 54.230615,20.0869802 C54.9592223,19.6212309 55.4433608,18.8013307 55.4433608,17.8671102 Z" id="Stroke-756"></path>
                            <line x1="70" y1="23.8487827" x2="0" y2="23.8487827" id="Stroke-757"></line>
                        </g>
                    </g>
                </g>
            </g>
        </g>
    </g>
</svg>