<?xml version="1.0" encoding="UTF-8"?>
<svg width="48px" height="48px" viewBox="0 0 48 48" version="1.1" xmlns="http://www.w3.org/2000/svg" xmlns:xlink="http://www.w3.org/1999/xlink">
    <title>fluent:gift-card-20-regular</title>
    <g id="Extra-screens-" stroke="none" stroke-width="1" fill="none" fill-rule="evenodd">
        <g id="Group-13-Copy-2" transform="translate(-577.000000, -168.000000)">
            <g id="Group-12" transform="translate(121.000000, 40.000000)">
                <g id="Group-11" transform="translate(0.000000, 100.000000)">
                    <g id="Group-10-Copy-2" transform="translate(396.000000, 0.000000)">
                        <g id="Group-9" transform="translate(32.000000, 0.000000)">
                            <g id="fluent:gift-card-20-regular" transform="translate(28.000000, 28.000000)">
                                <rect id="ViewBox" x="0" y="0" width="48" height="48"></rect>
                                <path d="M4.8,16.2 C4.8,12.5549207 7.75492065,9.6 11.4,9.6 L36.6,9.6 C40.2450793,9.6 43.2,12.5549207 43.2,16.2 L43.2,31.8 C43.2,35.4450793 40.2450793,38.4 36.6,38.4 L11.4,38.4 C7.75492065,38.4 4.8,35.4450793 4.8,31.8 L4.8,16.2 Z M7.2,24 L7.2,31.8 C7.2,34.1184 9.0816,36 11.4,36 L16.8,36 L16.8,25.6968 L12.8496,29.6496 C12.3803789,30.1188211 11.6196211,30.1188211 11.1504,29.6496 C10.6811789,29.1803789 10.6811789,28.4196211 11.1504,27.9504 L15.1032,24 L7.2,24 Z M10.2432,21.6 C9.15713884,19.7185854 9.47006887,17.342283 11.0061759,15.8061759 C12.542283,14.2700689 14.9185854,13.9571388 16.8,15.0432 L16.8,12 L11.4,12 C9.08040405,12 7.2,13.8804041 7.2,16.2 L7.2,21.6 L10.2432,21.6 Z M14.4,21.6 L16.8,21.6 L16.8,19.2 C16.8,17.8745166 15.7254834,16.8 14.4,16.8 C13.0745166,16.8 12,17.8745166 12,19.2 C12,20.5254834 13.0745166,21.6 14.4,21.6 Z M19.2,19.2 L19.2,21.6 L21.6,21.6 C22.9254834,21.6 24,20.5254834 24,19.2 C24,17.8745166 22.9254834,16.8 21.6,16.8 C20.2745166,16.8 19.2,17.8745166 19.2,19.2 Z M25.7568,21.6 L40.8,21.6 L40.8,16.2 C40.8,13.8804041 38.9195959,12 36.6,12 L19.2,12 L19.2,15.0432 C21.0814146,13.9571388 23.457717,14.2700689 24.9938241,15.8061759 C26.5299311,17.342283 26.8428612,19.7185854 25.7568,21.6 Z M20.8968,24 L24.8496,27.9504 C25.3188211,28.4196211 25.3188211,29.1803789 24.8496,29.6496 C24.3803789,30.1188211 23.6196211,30.1188211 23.1504,29.6496 L19.2,25.6968 L19.2,36 L36.6,36 C38.9195959,36 40.8,34.1195959 40.8,31.8 L40.8,24 L20.8968,24 Z" id="Shape" fill="#FFFFFF" fill-rule="nonzero"></path>
                            </g>
                        </g>
                    </g>
                </g>
            </g>
        </g>
    </g>
</svg>