<?xml version="1.0" encoding="UTF-8"?>
<svg width="24px" height="24px" viewBox="0 0 24 24" version="1.1" xmlns="http://www.w3.org/2000/svg" xmlns:xlink="http://www.w3.org/1999/xlink">
    <title>clarity:home-line</title>
    <g id="Extra-screens-" stroke="none" stroke-width="1" fill="none" fill-rule="evenodd">
        <g id="Offset---Individual---OneTime/Subs---Car" transform="translate(-302.000000, -340.000000)">
            <g id="Categries" transform="translate(286.000000, 324.000000)">
                <g id="clarity:home-line" transform="translate(16.000000, 16.000000)">
                    <rect id="ViewBox" x="0" y="0" width="24" height="24"></rect>
                    <path d="M22.4733333,11.5266667 L12.4733333,1.52666667 C12.2133084,1.26818427 11.7933583,1.26818427 11.5333333,1.52666667 L1.53333333,11.5266667 C1.30681547,11.7911735 1.32204515,12.1854628 1.56829119,12.4317088 C1.81453722,12.6779548 2.20882648,12.6931845 2.47333333,12.4666667 L12,2.94 L21.5266667,12.4733333 C21.7911735,12.6998512 22.1854628,12.6846215 22.4317088,12.4383755 C22.6779548,12.1921294 22.6931845,11.7978402 22.4666667,11.5333333 L22.4733333,11.5266667 Z" id="Path" fill="#000000" fill-rule="nonzero"></path>
                    <path d="M18.6666667,21.3333333 L15.3333333,21.3333333 L15.3333333,14.6666667 L8.66666667,14.6666667 L8.66666667,21.3333333 L5.33333333,21.3333333 L5.33333333,12 L4,13.3333333 L4,21.3333333 C4,22.069713 4.59695367,22.6666667 5.33333333,22.6666667 L10,22.6666667 L10,16 L14,16 L14,22.6666667 L18.6666667,22.6666667 C19.4030463,22.6666667 20,22.069713 20,21.3333333 L20,13.1733333 L18.6666667,11.84 L18.6666667,21.3333333 Z" id="Path" fill="#000000" fill-rule="nonzero"></path>
                    <polygon id="Path" points="0 0 24 0 24 24 0 24"></polygon>
                </g>
            </g>
        </g>
    </g>
</svg>