<?xml version="1.0" encoding="UTF-8"?>
<svg width="52px" height="40px" viewBox="0 0 52 40" version="1.1" xmlns="http://www.w3.org/2000/svg" xmlns:xlink="http://www.w3.org/1999/xlink">
    <title>fa-solid:fighter-jet</title>
    <g id="Extra-screens-" stroke="none" stroke-width="1" fill="none" fill-rule="evenodd">
        <g id="Offset---Buisness---One-Time---Flight-" transform="translate(-624.000000, -2222.000000)">
            <g id="Carbon-Reduction-Tips---Flight" transform="translate(253.000000, 2052.000000)">
                <g id="Group-12" transform="translate(115.000000, 40.000000)">
                    <g id="Group-11" transform="translate(0.000000, 100.000000)">
                        <g id="Group-10-Copy" transform="translate(204.000000, 0.000000)">
                            <g id="Group-9" transform="translate(26.000000, 0.000000)">
                                <g id="fa-solid:fighter-jet" transform="translate(27.000000, 30.000000)">
                                    <rect id="ViewBox" x="0" y="0" width="50.212766" height="40"></rect>
                                    <path d="M42.6808511,17.5075988 L32.6382979,16.2613982 L28.8723404,15.0151976 L26.9893617,15.0151976 L17.8222367,3.48784195 L20.922012,3.48784195 C21.8372965,3.48784195 22.5957447,3.28338716 22.5957447,3.02051672 C22.5957447,2.75764628 21.8372965,2.55319149 20.922012,2.55319149 L11.9255319,2.55319149 L11.9255319,3.48784195 L13.1808511,3.48784195 L13.1808511,16.2613982 L9.41489362,16.2613982 L4.18437101,10.0303951 L1.46456516,10.0303951 L0.627659574,10.8612215 L0.627659574,16.2613982 L1.25531915,16.2613982 L1.25531915,17.5075988 L5.0212766,17.5075988 L5.0212766,17.715247 L0,18.3383473 L0,21.6615748 L5.0212766,22.2846752 L5.0212766,22.4924012 L1.25531915,22.4924012 L1.25531915,23.7386018 L0.627659574,23.7386018 L0.627659574,29.1387785 L1.46456516,29.9696049 L4.18444947,29.9696049 L9.41489362,23.7386018 L13.1808511,23.7386018 L13.1808511,36.5121581 L11.9255319,36.5121581 L11.9255319,37.4468085 L20.922012,37.4468085 C21.837375,37.4468085 22.5957447,37.2423537 22.5957447,36.9794833 C22.5957447,36.7166128 21.8372965,36.5121581 20.922012,36.5121581 L17.8222367,36.5121581 L26.9893617,24.9848024 L28.8723404,24.9848024 L32.6382979,23.7386018 L42.6808511,22.4924012 C50.212766,20.8308264 50.212766,20.4219168 50.212766,20 C50.212766,19.5780832 50.212766,19.1691736 42.6808511,17.5075988 Z" id="Path" stroke="#FFFFFF" fill-rule="nonzero"></path>
                                </g>
                            </g>
                        </g>
                    </g>
                </g>
            </g>
        </g>
    </g>
</svg>