<?xml version="1.0" encoding="UTF-8"?>
<svg width="24px" height="24px" viewBox="0 0 24 24" version="1.1" xmlns="http://www.w3.org/2000/svg" xmlns:xlink="http://www.w3.org/1999/xlink">
    <title>icon-park-outline:clothes-cardigan</title>
    <g id="Extra-screens-" stroke="none" stroke-width="1" fill="none" fill-rule="evenodd">
        <g id="Offset---Individual---OneTime/Subs---Car" transform="translate(-450.000000, -340.000000)">
            <g id="Categries" transform="translate(286.000000, 324.000000)">
                <g id="Cars" transform="translate(148.000000, 0.000000)">
                    <g id="icon-park-outline:clothes-cardigan" transform="translate(16.000000, 16.000000)">
                        <rect id="ViewBox" x="0" y="0" width="24" height="24"></rect>
                        <g id="Group" stroke-linecap="round" stroke-linejoin="round" transform="translate(2.000000, 2.000000)" stroke="#000000">
                            <path d="M3.5,16.5 L0,16.5 L0,6.5 C0,5 1,3.25 2.5,2 C4,0.75 6,0 6,0 L14,0 C14,0 16,0.75 17.5,2 C19,3.25 20,5 20,6.5 L20,16.5 L16.5,16.5" id="Path"></path>
                            <path d="M16.5,6.5 L16.5,20 L3.5,20 L3.5,6.5 M10,6.5 L10,20 M10,6.5 L6,0 M14,0 L10,6.5" id="Shape"></path>
                        </g>
                    </g>
                </g>
            </g>
        </g>
    </g>
</svg>