<?xml version="1.0" encoding="UTF-8"?>
<svg width="55px" height="26px" viewBox="0 0 55 26" version="1.1" xmlns="http://www.w3.org/2000/svg" xmlns:xlink="http://www.w3.org/1999/xlink">
    <title>Group 44</title>
    <g id="Extra-screens-" stroke="none" stroke-width="1" fill="none" fill-rule="evenodd" stroke-linejoin="round">
        <g id="Offset---Individual---OneTime/Subs---Car" transform="translate(-894.000000, -339.000000)" stroke="#2F2F2F">
            <g id="Categries" transform="translate(286.000000, 324.000000)">
                <g id="Events" transform="translate(592.000000, 0.000000)">
                    <g id="Group-44" transform="translate(16.000000, 16.000000)">
                        <path d="M40.5079294,23.7967233 C40.7597292,23.7908394 41.9210433,23.7877797 42.2031919,23.7877797 C43.4190389,23.7877797 44.4535047,22.7289143 44.806546,21.3572612 L43.1323854,21.3572612" id="Stroke-776"></path>
                        <path d="M43.0737744,21.3582261 C42.730217,22.7505906 41.7111627,23.7699162 40.4839349,23.7991004 C39.220668,23.8289905 38.1274015,22.8007214 37.7449598,21.3622272" id="Stroke-777"></path>
                        <path d="M8.43233041,20.2128204 L7.01613422,20.2008173 L7.01518582,20.2008173 C6.34609061,20.2008173 5.71445715,19.8644939 5.36781747,19.2963452 C5.08329789,18.8303409 4.90926675,18.3728094 4.84430145,18.0800268 C4.37531834,15.9733577 4.45308703,14.2472588 4.58230633,11.5216042 C4.62948916,10.525108 4.72006123,9.55685459 4.84833214,8.62861161 C5.14992289,6.44851152 5.66016133,4.48988117 6.31052566,2.90687857 L6.31194826,2.89558149 C6.08954879,2.89558149 6.03169648,2.64916405 6.17561597,2.49453533 C7.48511732,1.08875559 14.3453585,0 23.426275,0 L29.0927195,0 C40.5711876,0 44.9985493,1.06498466 46.3301009,2.49453533 C46.4740204,2.64916405 46.1691103,2.89558149 45.9467108,2.89558149 C47.0406886,5.26490758 48.0723092,8.69898297 48.0723092,12.6371903 C48.0723092,14.8817779 47.8868972,17.7112244 47.4904666,19.550294 C47.9760467,19.550294 48.3736628,19.9221561 48.3736628,20.3768634 C48.3736628,20.3768634 48.471585,21.3564139 46.2193754,21.3564139 L33.8437222,21.3564139 C30.9264482,21.3564139 31.1130456,20.2577734 31.1130456,20.2577734" id="Stroke-778"></path>
                        <line x1="23.1658685" y1="20.2577734" x2="14.6262505" y2="20.2577734" id="Stroke-779"></line>
                        <line x1="31.0863482" y1="20.2577734" x2="29.1822009" y2="20.2577734" id="Stroke-780"></line>
                        <path d="M11.7283474,23.8831459 L13.8041549,23.8831459 C15.2573386,23.8831459 16.457537,22.0661997 16.5388622,20.2579616 L14.6622185,20.2579616" id="Stroke-781"></path>
                        <path d="M14.5878877,19.5712407 C14.6158655,19.7938872 14.628906,20.0137095 14.6282223,20.2292953 C14.6215559,22.1312049 13.534454,23.7000862 12.0087178,23.8676595 C10.3101359,24.0542966 8.71066168,22.4334017 8.43657449,20.2471824 C8.1622502,18.060963 9.31716258,16.1371653 11.0157445,15.9505282 C12.7143263,15.7641265 14.3138006,17.3850214 14.5878877,19.5712407 Z" id="Stroke-782"></path>
                        <path d="M13.2004992,19.7237277 C13.3510574,20.9238065 12.7172901,21.9796123 11.7847772,22.0819921 C10.8525013,22.1846071 9.97452136,21.2947271 9.82396308,20.0946483 C9.6734048,18.8945695 10.3071722,17.8387637 11.2396851,17.7363839 C12.172198,17.6337688 13.0499409,18.5236488 13.2004992,19.7237277 Z" id="Stroke-783"></path>
                        <path d="M26.3196968,23.7787892 L28.0583486,23.7787892 C29.6089803,23.7787892 30.8869474,22.242387 31.0631124,20.2621039 L29.2341257,20.2621039" id="Stroke-784"></path>
                        <path d="M29.1956919,19.6540859 C29.2701411,21.2093166 28.7456767,23.6650182 26.364485,23.7744586 C24.6953035,23.8511846 23.2568199,22.1309696 23.1513105,19.9322764 C23.0460383,17.7333478 24.313573,15.8886297 25.9827545,15.8116683 C27.6519361,15.7349424 29.0904196,17.4551574 29.1956919,19.6540859 Z" id="Stroke-785"></path>
                        <path d="M27.8324874,19.7167141 C27.8903397,20.9236182 27.1944523,21.9363539 26.2782992,21.9784826 C25.3621462,22.0206113 24.5723673,21.0763641 24.5147521,19.8694599 C24.4568998,18.6625558 25.1525501,17.6498201 26.0689403,17.6076914 C26.9850933,17.5655628 27.7746351,18.5098099 27.8324874,19.7167141 Z" id="Stroke-786"></path>
                        <path d="M38.3280827,14.9088203 C38.2851676,16.1112527 37.1999626,17.0531463 35.904213,17.0126651 C34.6084634,16.9721839 33.5927285,15.964626 33.6356436,14.7621936 C33.6785586,13.5597612 34.7637637,12.6178676 36.0595133,12.6583488 C37.3552628,12.69883 38.3709977,13.7063878 38.3280827,14.9088203 Z" id="Stroke-787"></path>
                        <path d="M16.4446388,20.2576557 C15.6162126,17.959407 15.1147469,14.911315 15.1147469,11.5494938 C15.1147469,10.5518209 15.1590845,9.58074319 15.243492,8.64802845 C15.4412331,6.45757272 15.8582914,4.4796432 16.4330209,2.87122217" id="Stroke-788"></path>
                        <path d="M9.01165969,8.64809906 C9.20963789,6.45764332 9.62669617,4.47971381 10.2014257,2.87129278" id="Stroke-789"></path>
                        <path d="M12.0992898,8.64809906 C12.297031,6.45764332 12.7143263,4.47971381 13.2888188,2.87129278" id="Stroke-790"></path>
                        <path d="M30.3494662,2.80306315 C30.896455,5.17238924 31.2433318,8.69895943 31.2433318,12.6371668 C31.2433318,14.8817543 31.2618256,18.4186802 31.0636103,20.2577498" id="Stroke-791"></path>
                        <path d="M41.1328767,7.94582111 C40.9351356,5.75536538 40.6228753,4.47973734 40.0483829,2.87131632" id="Stroke-792"></path>
                        <path d="M46.377426,7.56913427 C46.5213455,7.72352763 46.3831164,7.96264905 46.160717,7.96264905 L33.7549521,7.96264905 C33.5325526,7.96264905 33.3945606,7.72352763 33.5384801,7.56913427" id="Stroke-793"></path>
                        <path d="M31.1129744,20.2577734 C31.1129744,19.6020723 31.8050683,19.550294 32.4224758,19.550294 L37.621834,19.550294 L37.621834,18.9044779 C37.621834,18.4457696 38.0227695,18.0703772 38.5128544,18.0703772 C39.0031765,18.0703772 39.404112,18.4457696 39.404112,18.9044779 L39.404112,19.550294 L46.0488296,19.550294 L46.0488296,18.5785103 C46.0488296,18.299143 46.2930423,18.0703772 46.5917878,18.0703772 L46.597004,18.0703772 C46.8955125,18.0703772 47.1399622,18.299143 47.1399622,18.5785103 L47.1399622,19.550294 L47.4903955,19.550294" id="Stroke-794"></path>
                        <path d="M47.9264454,15.0523637 C47.8863756,16.1754812 47.2175175,17.0660673 46.4324806,17.0415903 C45.6474436,17.0171133 45.0433137,16.0867521 45.0833836,14.9636346 C45.1234534,13.8405171 45.7925486,12.949931 46.5775856,12.974408 C47.3626225,12.998885 47.9665153,13.9292462 47.9264454,15.0523637 Z" id="Stroke-795"></path>
                        <path d="M4.88197658,8.64270942 L23.0438096,8.64270942 C29.5820694,8.64270942 34.7963649,9.57989591 38.4450914,12.450059 C41.5133979,14.863632 42.2228,17.7530942 42.2228,17.7530942 C42.2228,17.7530942 44.1150923,11.6922136 47.5987974,9.45845236" id="Stroke-796"></path>
                        <path d="M43.8288419,11.1074016 C43.8558713,12.4503414 42.9309456,13.5649861 41.7627556,13.5974652 C40.5945656,13.6294736 39.6255394,12.5668425 39.59851,11.2239027 C39.5712436,9.88096296 40.4964064,8.76631824 41.6645963,8.73407451 C42.8327863,8.70183077 43.8018126,9.76446187 43.8288419,11.1074016 Z" id="Stroke-797"></path>
                        <polyline id="Stroke-798" points="43.1014439 10.3524746 42.380661 12.4600851 41.7933652 11.1851632 41.2584684 12.4909167 40.4537522 10.4254349"></polyline>
                        <polyline id="Stroke-799" points="41.2041962 9.79971816 41.7914921 11.0746401 42.3263889 9.76888656"></polyline>
                        <line x1="46.1009678" y1="2.87131632" x2="6.37966392" y2="2.87131632" id="Stroke-800"></line>
                        <path d="M23.0594581,20.2712122 C22.231032,17.9729635 21.7255355,14.9112209 21.7255355,11.5493997 C21.7255355,10.5519621 21.7698732,9.58064905 21.8542806,8.64816967 C22.0520217,6.45771393 22.46908,4.47978441 23.0438096,2.87136339" id="Stroke-801"></path>
                        <line x1="54.1782178" y1="23.8823221" x2="0" y2="23.8823221" id="Stroke-802"></line>
                    </g>
                </g>
            </g>
        </g>
    </g>
</svg>