<?xml version="1.0" encoding="UTF-8"?>
<svg width="40px" height="40px" viewBox="0 0 40 40" version="1.1" xmlns="http://www.w3.org/2000/svg" xmlns:xlink="http://www.w3.org/1999/xlink">
    <title>carbon:traffic-event</title>
    <g id="Extra-screens-" stroke="none" stroke-width="1" fill="none" fill-rule="evenodd">
        <g id="Carbon-Reduction-Tips---car" transform="translate(-175.000000, -172.000000)">
            <g id="Group-12" transform="translate(107.000000, 40.000000)">
                <g id="Group-11" transform="translate(0.000000, 100.000000)">
                    <g id="Group-9" transform="translate(36.000000, 0.000000)">
                        <g id="carbon:traffic-event" transform="translate(32.000000, 32.000000)">
                            <rect id="ViewBox" x="0" y="0" width="40" height="40"></rect>
                            <polygon id="Path" fill="#FFFFFF" fill-rule="nonzero" points="13.75 26.25 21.25 26.25 21.25 28.75 13.75 28.75"></polygon>
                            <path d="M30.3075,10 L32.45,17.5 L37.5,17.5 L37.5,15 L34.33625,15 L32.71125,9.31375 C32.4019056,8.24229826 31.4227089,7.50344527 30.3075,7.5 L28.62125,7.5 L27.71125,4.31375 C27.4017758,3.24185487 26.4219225,2.50289062 25.30625,2.5 L9.6925,2.5 C8.57810252,2.50383773 7.59967341,3.24198664 7.29,4.3125 L5.665,10 L2.5,10 L2.5,12.5 L7.55,12.5 L9.6925,5 L25.3075,5 L26.02125,7.5 L14.6925,7.5 C13.5781025,7.50383773 12.5996734,8.24198664 12.29,9.3125 L11.02,13.75 L9.6425,13.75 C8.57423508,13.7498313 7.62414496,14.4291131 7.27875,15.44 L5.7125,20 L2.5,20 L2.5,22.5 L5,22.5 L5,31.25 C5.00137807,32.6301407 6.11985935,33.7486219 7.5,33.75 L7.5,37.5 L10,37.5 L10,33.75 L25,33.75 L25,37.5 L27.5,37.5 L27.5,33.75 C28.8801407,33.7486219 29.9986219,32.6301407 30,31.25 L30,22.5 L32.5,22.5 L32.5,20 L29.28625,20 L27.7225,15.44125 C27.3770627,14.4296743 26.4264305,13.7498616 25.3575,13.75 L13.62125,13.75 L14.6925,10 L30.3075,10 Z M27.5,23.75 L27.5,26.25 L25,26.25 L25,28.75 L27.5,28.75 L27.5,31.25 L7.5,31.25 L7.5,28.75 L10,28.75 L10,26.25 L7.5,26.25 L7.5,23.75 L27.5,23.75 Z M27.07125,21.25 L7.92875,21.25 L9.6425,16.25 L25.3575,16.25 L27.07125,21.25 Z" id="Shape" fill="#FFFFFF" fill-rule="nonzero"></path>
                        </g>
                    </g>
                </g>
            </g>
        </g>
    </g>
</svg>