<?xml version="1.0" encoding="UTF-8"?>
<svg width="33px" height="42px" viewBox="0 0 33 42" version="1.1" xmlns="http://www.w3.org/2000/svg" xmlns:xlink="http://www.w3.org/1999/xlink">
    <title>Tree</title>
    <g id="Extra-screens-" stroke="none" stroke-width="1" fill="none" fill-rule="evenodd" stroke-linejoin="round">
        <g id="Offset---Buisness---One-Time---Flight-" transform="translate(-411.000000, -2621.000000)" stroke="#86AF48" stroke-width="2">
            <g id="CSR-Awareness" transform="translate(253.000000, 2454.000000)">
                <g id="Group-11" transform="translate(92.000000, 136.000000)">
                    <g id="Group-9" transform="translate(30.000000, 0.000000)">
                        <g id="Tree" transform="translate(37.454780, 32.123902)">
                            <path d="M27.4804878,14.5995122 C28.3141463,13.3985366 28.8058537,11.942439 28.8058537,10.3697561 C28.8058537,6.26585366 25.4790244,2.93902439 21.375122,2.93902439 C20.6160976,2.93902439 19.8839024,3.05414634 19.1941463,3.26585366 C18.1531707,1.32292683 16.104878,0 13.7463415,0 C11.6965854,0 9.88487805,1.00292683 8.76097561,2.54 C8.61268293,2.53170732 8.46536585,2.51756098 8.31414634,2.51756098 C4.14536585,2.51756098 0.765365854,5.89756098 0.765365854,10.0663415 C0.765365854,11.862439 1.39512195,13.5097561 2.44243902,14.8053659 C0.933170732,16.3287805 0,18.4234146 0,20.7370732 C0,25.3926829 3.77365854,29.1663415 8.42878049,29.1663415 C8.6902439,29.1663415 8.94829268,29.1507317 9.20390244,29.1273171 C10.522439,30.9717073 12.6765854,32.177561 15.1165854,32.177561 C17.3756098,32.177561 19.3941463,31.1473171 20.7273171,29.5312195 C20.9580488,29.5492683 21.1887805,29.5663415 21.4239024,29.5663415 C26.2356098,29.5663415 30.1360976,25.6658537 30.1360976,20.8541463 C30.1360976,18.3980488 29.1156098,16.1834146 27.4804878,14.5995122 Z" id="Stroke-855"></path>
                            <line x1="14.4029268" y1="39.1800976" x2="14.4029268" y2="11.2683902" id="Stroke-856"></line>
                            <line x1="19.5846341" y1="18.1701951" x2="14.3236585" y2="23.5350732" id="Stroke-857"></line>
                            <line x1="14.3342927" y1="18.774" x2="11.1630732" y2="15.6783902" id="Stroke-858"></line>
                            <line x1="23.536878" y1="39.1800976" x2="7.30126829" y2="39.1800976" id="Stroke-859"></line>
                        </g>
                    </g>
                </g>
            </g>
        </g>
    </g>
</svg>