<?xml version="1.0" encoding="UTF-8"?>
<svg width="39px" height="42px" viewBox="0 0 39 42" version="1.1" xmlns="http://www.w3.org/2000/svg" xmlns:xlink="http://www.w3.org/1999/xlink">
    <title>windmill house</title>
    <g id="Extra-screens-" stroke="none" stroke-width="1" fill="none" fill-rule="evenodd" stroke-linejoin="round">
        <g id="Offset---Buisness---One-Time---Flight-" transform="translate(-624.000000, -2621.000000)" stroke="#86AF48" stroke-width="2">
            <g id="CSR-Awareness" transform="translate(253.000000, 2454.000000)">
                <g id="Group-11" transform="translate(92.000000, 136.000000)">
                    <g id="Group-10-Copy" transform="translate(202.000000, 0.000000)">
                        <g id="Group-9" transform="translate(45.000000, 0.000000)">
                            <g id="windmill-house" transform="translate(32.209667, 32.038837)">
                                <path d="M22.44175,16.095163 C22.5971667,15.716413 22.6825833,15.301413 22.6825833,14.866413 C22.6825833,14.432663 22.5975833,14.018913 22.4425833,13.6405796 L22.4421667,13.6405796 L34.0371667,6.13641297 C34.3513333,5.93307964 34.398,5.49224631 34.1334167,5.22766297 L29.078,0.172246308 C28.8134167,-0.0923370256 28.3721667,-0.0456703589 28.16925,0.268496308 L21.5655,10.4734963 L21.5563333,10.4672463 C20.31925,8.47099631 17.4025833,8.05432964 16.0875833,8.59224631 L16.0946667,8.58807964 L10.7088333,0.268496308 C10.5059167,-0.0456703589 10.0646667,-0.0923370256 9.80008333,0.172246308 L4.74466667,5.22766297 C4.48008333,5.49224631 4.52675,5.93307964 4.84091667,6.13641297 L11.3838333,10.3684963 L11.38425,10.3705796 C11.2846667,10.4530796 11.1671667,10.5584963 11.0705,10.6468296 L10.1109167,20.1809963 L10.11425,20.186413 L4.84091667,23.5968296 C4.52675,23.800163 4.48008333,24.2409963 4.74466667,24.5055796 L9.22508333,28.9859963 L9.2255,28.9830796 L8.16675,39.5330796 L24.5584167,39.5330796 L22.6888333,20.9880796 L22.6859167,20.9872463 L28.16925,29.4643296 C28.3721667,29.7784963 28.8134167,29.8255796 29.078,29.5609963 L34.1334167,24.5055796 C34.398,24.2409963 34.3513333,23.800163 34.0371667,23.5968296 L22.4355,16.092663 L22.44175,16.095163 Z" id="Stroke-991"></path>
                                <path d="M16.8367083,39.5330796 L16.8367083,32.4497463 C16.8367083,31.0747463 17.8204583,29.9497463 19.0225417,29.9497463 C20.2242083,29.9497463 21.2079583,31.0747463 21.2079583,32.4497463 L21.2079583,39.5330796 L16.8367083,39.5330796 Z" id="Stroke-992"></path>
                                <line x1="0" y1="39.5330796" x2="38.61125" y2="39.5330796" id="Stroke-993"></line>
                                <path d="M16.4365,16.0976213 L4.84108333,23.596788 C4.52691667,23.8001213 4.48025,24.2409546 4.74441667,24.505538 L9.79983333,29.5609546 C10.0648333,29.825538 10.5056667,29.7784546 10.7085833,29.4647046 L18.20775,17.8688713" id="Stroke-994"></path>
                                <path d="M18.213875,11.8619963 L10.708875,0.268662974 C10.5055417,-0.0455036923 10.0647083,-0.0921703589 9.800125,0.172412974 L4.74470833,5.22782964 C4.480125,5.49199631 4.52679167,5.93324631 4.84095833,6.13657964 L16.4355417,13.636163" id="Stroke-995"></path>
                                <path d="M22.442375,13.640538 L34.0369583,6.13637131 C34.351125,5.93303797 34.3977917,5.49220464 34.133625,5.22762131 L29.0782083,0.172204641 C28.813625,-0.0923786923 28.372375,-0.0457120256 28.1694583,0.268454641 L20.666125,11.863038" id="Stroke-996"></path>
                                <path d="M20.66525,17.8629546 L28.1694167,29.4646213 C28.3723333,29.778788 28.8135833,29.8254546 29.0781667,29.5608713 L34.1335833,24.5054546 C34.39775,24.241288 34.3510833,23.800038 34.0369167,23.5967046 L22.4356667,16.092538" id="Stroke-997"></path>
                                <path d="M22.6826667,14.866538 C22.6826667,16.657788 21.2305833,18.110288 19.4389167,18.110288 C17.6476667,18.110288 16.1955833,16.657788 16.1955833,14.866538 C16.1955833,13.075288 17.6476667,11.6232046 19.4389167,11.6232046 C21.2305833,11.6232046 22.6826667,13.075288 22.6826667,14.866538 Z" id="Stroke-998"></path>
                            </g>
                        </g>
                    </g>
                </g>
            </g>
        </g>
    </g>
</svg>