<?xml version="1.0" encoding="UTF-8"?>
<svg width="32px" height="32px" viewBox="0 0 32 32" version="1.1" xmlns="http://www.w3.org/2000/svg" xmlns:xlink="http://www.w3.org/1999/xlink">
    <title>ant-design:facebook-filled</title>
    <g id="Extra-screens-" stroke="none" stroke-width="1" fill="none" fill-rule="evenodd">
        <g id="About-Us-Page-Redesign-(variant-2)" transform="translate(-112.000000, -4193.000000)">
            <g id="Social-Media" transform="translate(80.000000, 3779.000000)">
                <g id="ant-design:facebook-filled" transform="translate(32.000000, 414.000000)">
                    <rect id="ViewBox" x="0" y="0" width="32" height="32"></rect>
                    <path d="M27.5,3.5 L4.5,3.5 C3.946875,3.5 3.5,3.946875 3.5,4.5 L3.5,27.5 C3.5,28.053125 3.946875,28.5 4.5,28.5 L27.5,28.5 C28.053125,28.5 28.5,28.053125 28.5,27.5 L28.5,4.5 C28.5,3.946875 28.053125,3.5 27.5,3.5 Z M24.6125,10.796875 L22.615625,10.796875 C21.05,10.796875 20.746875,11.540625 20.746875,12.634375 L20.746875,15.04375 L24.484375,15.04375 L23.996875,18.815625 L20.746875,18.815625 L20.746875,28.5 L16.85,28.5 L16.85,18.81875 L13.590625,18.81875 L13.590625,15.04375 L16.85,15.04375 L16.85,12.2625 C16.85,9.034375 18.821875,7.275 21.703125,7.275 C23.084375,7.275 24.26875,7.378125 24.615625,7.425 L24.615625,10.796875 L24.6125,10.796875 Z" id="Shape" fill="#FFFFFF" fill-rule="nonzero"></path>
                </g>
            </g>
        </g>
    </g>
</svg>