<?xml version="1.0" encoding="UTF-8"?>
<svg width="1280px" height="302px" viewBox="0 0 1280 302" version="1.1" xmlns="http://www.w3.org/2000/svg" xmlns:xlink="http://www.w3.org/1999/xlink">
    <title>Group 7</title>
    <g id="Extra-screens-" stroke="none" stroke-width="1" fill="none" fill-rule="evenodd" stroke-linejoin="round">
        <g id="About-Us-Page-Redesign-(Variant-1)" transform="translate(-81.000000, -1848.000000)" stroke="#AFAFAF" stroke-width="2">
            <g id="Special-Message" transform="translate(80.000000, 1769.000000)">
                <g id="Group-7" transform="translate(1.000000, 80.000000)">
                    <g id="Group-4">
                        <line x1="1173" y1="299.5" x2="0" y2="299.5" id="Stroke-1023"></line>
                        <path d="M29,299 C29,299 157.897062,252.941508 251.650886,174.392904 C380.211437,66.6809378 446.232049,0 602.658377,0 C673.614475,0 751.814042,42.4669619 833.939564,98.6482743 C839.422303,98.0847639 844.996818,97.7962193 850.676705,97.7962193 C908.845409,97.7962193 961.864485,145.19899 1016.93321,177.689101 C1139.90565,250.249557 1192.86695,299 1279,299 L426.816422,299" id="Stroke-1024" fill="#FFFFFF"></path>
                        <path d="M628,153 C670.937981,124.058668 723.904028,106.613232 774.310226,111.959687 C777.101859,112.254454 779.654892,112.522115 782,112.762672" id="Stroke-1025" fill="#FFFFFF"></path>
                        <path d="M427,300 C427,300 592.61156,253.046645 662.6593,195.188478 C720.450215,147.45183 771.390627,105.45366 834,99" id="Stroke-1026"></path>
                        <path d="M131,300 C172.972253,300 390.539031,183.530738 427.396946,157.427087 C464.251462,131.323436 528.575138,85.6309662 636.071441,157.921409 C652.223771,168.782874 659.483818,173.596555 676,184.117107" id="Stroke-1027" fill="#FFFFFF"></path>
                    </g>
                    <g id="Group-20" transform="translate(1137.000000, 120.000000)">
                        <polyline id="Stroke-518" points="42.5063822 57.679558 48 179.005525 29 179.005525 34.1108122 63.4008152"></polyline>
                        <path d="M55.8489553,48.5624069 C50.4646969,47.1239216 46.0241962,46.4028734 42.529873,46.2620342 C42.3943591,42.7855945 41.6756513,38.3642084 40.234606,33.0014871 C36.4486859,18.9079427 27.8846902,-0.952784085 24.1665271,0.0354974284 C20.448364,1.0249827 22.9856201,22.4879052 26.7715402,36.5814496 C28.2113756,41.9393559 29.8036641,46.1260101 31.4274113,49.2052112 C28.4678841,51.0601951 24.9771907,53.891423 21.027928,57.815659 C10.6526436,68.1246028 -2.3542727,85.4345763 0.365685232,88.1430213 C3.08564317,90.8526702 20.5003916,77.9351928 30.875676,67.626249 C34.8225189,63.7044205 37.6707311,60.2388145 39.5388872,57.2968413 C42.6339283,58.9195009 46.8433294,60.5120666 52.2336375,61.9529593 C66.394842,65.7375599 87.965754,68.2883133 88.9639592,64.590383 C89.9621644,60.8936564 70.0101598,52.3470075 55.8489553,48.5624069 Z" id="Stroke-519"></path>
                        <path d="M36.7087799,46.1317213 C35.1272612,46.4591327 33.2155617,47.2925434 31,48.6819583 C31.976187,50.5333208 32.9655334,51.9786932 33.9405241,53.0335531 C35.0160046,54.2336646 36.6992094,55.4683031 39.0188498,56.6850829 C40.065619,55.0361201 40.8025445,53.5550301 41.2451783,52.2549093 C41.8182096,50.7023841 42.0849862,48.5390879 41.9761222,45.7709735 C39.8706208,45.6864418 38.1156376,45.8174064 36.7087799,46.1317213 Z" id="Stroke-520"></path>
                        <line x1="7" y1="179.502762" x2="81" y2="179.502762" id="Stroke-521"></line>
                    </g>
                </g>
            </g>
        </g>
    </g>
</svg>