<?xml version="1.0" encoding="UTF-8"?>
<svg width="26px" height="26px" viewBox="0 0 26 26" version="1.1" xmlns="http://www.w3.org/2000/svg" xmlns:xlink="http://www.w3.org/1999/xlink">
    <title>Shape</title>
    <g id="Extra-screens-" stroke="none" stroke-width="1" fill="none" fill-rule="evenodd">
        <g id="About-Us-Page-Redesign-(variant-2)" transform="translate(-227.000000, -4196.000000)" fill="#FFFFFF" fill-rule="nonzero">
            <g id="Social-Media" transform="translate(80.000000, 3779.000000)">
                <g id="Social-Media-Icons" transform="translate(32.000000, 414.000000)">
                    <path d="M139.5,3.5 L116.5,3.5 C115.946875,3.5 115.5,3.946875 115.5,4.5 L115.5,27.5 C115.5,28.053125 115.946875,28.5 116.5,28.5 L139.5,28.5 C140.053125,28.5 140.5,28.053125 140.5,27.5 L140.5,4.5 C140.5,3.946875 140.053125,3.5 139.5,3.5 Z M134.728125,12.553125 C134.7375,12.7 134.7375,12.853125 134.7375,13.003125 C134.7375,17.590625 131.24375,22.875 124.859375,22.875 C122.890625,22.875 121.065625,22.303125 119.528125,21.31875 C119.809375,21.35 120.078125,21.3625 120.365625,21.3625 C121.990625,21.3625 123.484375,20.8125 124.675,19.88125 C123.15,19.85 121.86875,18.85 121.43125,17.475 C121.965625,17.553125 122.446875,17.553125 122.996875,17.4125 C121.377818,17.0835651 120.215442,15.6583796 120.21875,14.00625 L120.21875,13.9625 C120.678125,14.221875 121.21875,14.38125 121.784375,14.403125 C120.818684,13.7595401 120.238283,12.6761249 120.2375,11.515625 C120.2375,10.86875 120.40625,10.278125 120.709375,9.765625 C122.472032,11.9355036 125.073507,13.2544174 127.865625,13.39375 C127.375,11.034375 129.1375,9.125 131.25625,9.125 C132.25625,9.125 133.15625,9.54375 133.790625,10.21875 C134.575,10.071875 135.325,9.778125 135.99375,9.384375 C135.734375,10.1875 135.190625,10.865625 134.46875,11.29375 C135.16875,11.21875 135.84375,11.025 136.46875,10.753125 C135.996875,11.446875 135.40625,12.0625 134.728125,12.553125 L134.728125,12.553125 Z" id="Shape"></path>
                </g>
            </g>
        </g>
    </g>
</svg>