<svg width="1494" height="630" fill="none" xmlns="http://www.w3.org/2000/svg"><path fill-rule="evenodd" clip-rule="evenodd" d="M27 54c14.912 0 27-12.088 27-27S41.912 0 27 0 0 12.088 0 27s12.088 27 27 27zm123-27c0 14.912-12.088 27-27 27S96 41.912 96 27s12.088-27 27-27 27 12.088 27 27zm96 0c0 14.912-12.088 27-27 27s-27-12.088-27-27 12.088-27 27-27 27 12.088 27 27zm0 96c0 14.912-12.088 27-27 27s-27-12.088-27-27 12.088-27 27-27 27 12.088 27 27zm-123 27c14.912 0 27-12.088 27-27s-12.088-27-27-27-27 12.088-27 27 12.088 27 27 27zm-69-27c0 14.912-12.088 27-27 27S0 137.912 0 123s12.088-27 27-27 27 12.088 27 27zm549 27c14.912 0 27-12.088 27-27s-12.088-27-27-27-27 12.088-27 27 12.088 27 27 27zm411-123c0 14.912-12.09 27-27 27-14.912 0-27-12.088-27-27s12.088-27 27-27c14.91 0 27 12.088 27 27zm-27 123c14.91 0 27-12.088 27-27s-12.09-27-27-27c-14.912 0-27 12.088-27 27s12.088 27 27 27zM342 27c0 14.912-12.088 27-27 27s-27-12.088-27-27 12.088-27 27-27 27 12.088 27 27zm-27 123c14.912 0 27-12.088 27-27s-12.088-27-27-27-27 12.088-27 27 12.088 27 27 27zm411-27c0 14.912-12.088 27-27 27s-27-12.088-27-27 12.088-27 27-27 27 12.088 27 27zm357-69c14.91 0 27-12.088 27-27s-12.09-27-27-27-27 12.088-27 27 12.09 27 27 27zm27 69c0 14.912-12.09 27-27 27s-27-12.088-27-27 12.09-27 27-27 27 12.088 27 27zm-699 27c14.912 0 27-12.088 27-27s-12.088-27-27-27-27 12.088-27 27 12.088 27 27 27zm411-27c0 14.912-12.088 27-27 27s-27-12.088-27-27 12.088-27 27-27 27 12.088 27 27zm357-69c14.91 0 27-12.088 27-27s-12.09-27-27-27-27 12.088-27 27 12.09 27 27 27zm27 69c0 14.912-12.09 27-27 27s-27-12.088-27-27 12.09-27 27-27 27 12.088 27 27zM507 54c14.912 0 27-12.088 27-27S521.912 0 507 0s-27 12.088-27 27 12.088 27 27 27zm27 69c0 14.912-12.088 27-27 27s-27-12.088-27-27 12.088-27 27-27 27 12.088 27 27zm357-69c14.912 0 27-12.088 27-27S905.912 0 891 0s-27 12.088-27 27 12.088 27 27 27zm27 69c0 14.912-12.088 27-27 27s-27-12.088-27-27 12.088-27 27-27 27 12.088 27 27zm357-69c14.91 0 27-12.088 27-27s-12.09-27-27-27-27 12.088-27 27 12.09 27 27 27zm123-27c0 14.912-12.09 27-27 27s-27-12.088-27-27 12.09-27 27-27 27 12.088 27 27zm69 27c14.91 0 27-12.088 27-27s-12.09-27-27-27-27 12.088-27 27 12.09 27 27 27zm-69 69c0 14.912-12.09 27-27 27s-27-12.088-27-27 12.09-27 27-27 27 12.088 27 27zM219 246c14.912 0 27-12.088 27-27s-12.088-27-27-27-27 12.088-27 27 12.088 27 27 27zM54 219c0 14.912-12.088 27-27 27S0 233.912 0 219s12.088-27 27-27 27 12.088 27 27zM27 342c14.912 0 27-12.088 27-27s-12.088-27-27-27-27 12.088-27 27 12.088 27 27 27zm603-123c0 14.912-12.088 27-27 27s-27-12.088-27-27 12.088-27 27-27 27 12.088 27 27zm-27 123c14.912 0 27-12.088 27-27s-12.088-27-27-27-27 12.088-27 27 12.088 27 27 27zm411-27c0 14.912-12.09 27-27 27-14.912 0-27-12.088-27-27s12.088-27 27-27c14.91 0 27 12.088 27 27zm-699-69c14.912 0 27-12.088 27-27s-12.088-27-27-27-27 12.088-27 27 12.088 27 27 27zm411-27c0 14.912-12.088 27-27 27s-27-12.088-27-27 12.088-27 27-27 27 12.088 27 27zm-27 123c14.912 0 27-12.088 27-27s-12.088-27-27-27-27 12.088-27 27 12.088 27 27 27zm411-27c0 14.912-12.09 27-27 27s-27-12.088-27-27 12.09-27 27-27 27 12.088 27 27zm-699-69c14.912 0 27-12.088 27-27s-12.088-27-27-27-27 12.088-27 27 12.088 27 27 27zm27 69c0 14.912-12.088 27-27 27s-27-12.088-27-27 12.088-27 27-27 27 12.088 27 27zm357-69c14.912 0 27-12.088 27-27s-12.088-27-27-27-27 12.088-27 27 12.088 27 27 27zm27 69c0 14.912-12.088 27-27 27s-27-12.088-27-27 12.088-27 27-27 27 12.088 27 27zm357 27c14.91 0 27-12.088 27-27s-12.09-27-27-27-27 12.088-27 27 12.09 27 27 27zM534 219c0 14.912-12.088 27-27 27s-27-12.088-27-27 12.088-27 27-27 27 12.088 27 27zm357 27c14.912 0 27-12.088 27-27s-12.088-27-27-27-27 12.088-27 27 12.088 27 27 27zm27 69c0 14.912-12.088 27-27 27s-27-12.088-27-27 12.088-27 27-27 27 12.088 27 27zm453-69c14.91 0 27-12.088 27-27s-12.09-27-27-27-27 12.088-27 27 12.09 27 27 27zm-69 69c0 14.912-12.09 27-27 27s-27-12.088-27-27 12.09-27 27-27 27 12.088 27 27zm69 27c14.91 0 27-12.088 27-27s-12.09-27-27-27-27 12.088-27 27 12.09 27 27 27zm123-27c0 14.912-12.09 27-27 27s-27-12.088-27-27 12.09-27 27-27 27 12.088 27 27zM219 630c14.912 0 27-12.088 27-27s-12.088-27-27-27-27 12.088-27 27 12.088 27 27 27zm-69-27c0 14.912-12.088 27-27 27s-27-12.088-27-27 12.088-27 27-27 27 12.088 27 27zM27 630c14.912 0 27-12.088 27-27s-12.088-27-27-27-27 12.088-27 27 12.088 27 27 27zm603-27c0 14.912-12.088 27-27 27s-27-12.088-27-27 12.088-27 27-27 27 12.088 27 27zm-315 27c14.912 0 27-12.088 27-27s-12.088-27-27-27-27 12.088-27 27 12.088 27 27 27zm411-27c0 14.912-12.088 27-27 27s-27-12.088-27-27 12.088-27 27-27 27 12.088 27 27zm-315 27c14.912 0 27-12.088 27-27s-12.088-27-27-27-27 12.088-27 27 12.088 27 27 27zm411-27c0 14.912-12.088 27-27 27s-27-12.088-27-27 12.088-27 27-27 27 12.088 27 27zm-315 27c14.912 0 27-12.088 27-27s-12.088-27-27-27-27 12.088-27 27 12.088 27 27 27zm411-27c0 14.912-12.088 27-27 27s-27-12.088-27-27 12.088-27 27-27 27 12.088 27 27zM123 438c14.912 0 27-12.088 27-27s-12.088-27-27-27-27 12.088-27 27 12.088 27 27 27zm27-123c0 14.912-12.088 27-27 27s-27-12.088-27-27 12.088-27 27-27 27 12.088 27 27zM27 438c14.912 0 27-12.088 27-27s-12.088-27-27-27-27 12.088-27 27 12.088 27 27 27zm27 69c0 14.912-12.088 27-27 27S0 521.912 0 507s12.088-27 27-27 27 12.088 27 27zm549 27c14.912 0 27-12.088 27-27s-12.088-27-27-27-27 12.088-27 27 12.088 27 27 27zm411-123c0 14.912-12.09 27-27 27-14.912 0-27-12.088-27-27s12.088-27 27-27c14.91 0 27 12.088 27 27zm-27 123c14.91 0 27-12.088 27-27s-12.09-27-27-27c-14.912 0-27 12.088-27 27s12.088 27 27 27zm-261-27c0 14.912-12.088 27-27 27s-27-12.088-27-27 12.088-27 27-27 27 12.088 27 27zm357-69c14.91 0 27-12.088 27-27s-12.09-27-27-27-27 12.088-27 27 12.09 27 27 27zm27 69c0 14.912-12.09 27-27 27s-27-12.088-27-27 12.09-27 27-27 27 12.088 27 27zm-699 27c14.912 0 27-12.088 27-27s-12.088-27-27-27-27 12.088-27 27 12.088 27 27 27zm411-27c0 14.912-12.088 27-27 27s-27-12.088-27-27 12.088-27 27-27 27 12.088 27 27zm357-69c14.91 0 27-12.088 27-27s-12.09-27-27-27-27 12.088-27 27 12.09 27 27 27zm27 69c0 14.912-12.09 27-27 27s-27-12.088-27-27 12.09-27 27-27 27 12.088 27 27zm-699 27c14.912 0 27-12.088 27-27s-12.088-27-27-27-27 12.088-27 27 12.088 27 27 27zm411-27c0 14.912-12.088 27-27 27s-27-12.088-27-27 12.088-27 27-27 27 12.088 27 27zm357-69c14.91 0 27-12.088 27-27s-12.09-27-27-27-27 12.088-27 27 12.09 27 27 27zm123-27c0 14.912-12.09 27-27 27s-27-12.088-27-27 12.09-27 27-27 27 12.088 27 27zm69 27c14.91 0 27-12.088 27-27s-12.09-27-27-27-27 12.088-27 27 12.09 27 27 27zm-165 69c0 14.912-12.09 27-27 27s-27-12.088-27-27 12.09-27 27-27 27 12.088 27 27zm165 27c14.91 0 27-12.088 27-27s-12.09-27-27-27-27 12.088-27 27 12.09 27 27 27z" fill="url(#a)" opacity=".05"/><defs><linearGradient id="a" x1="1694.5" y1="789" x2="1047.37" y2="-547.036" gradientUnits="userSpaceOnUse"><stop offset=".069" stop-color="#15E682"/><stop offset="1" stop-color="#fff"/></linearGradient></defs></svg>