<svg width="14" height="19" viewBox="0 0 14 19" fill="none" xmlns="http://www.w3.org/2000/svg">
<path d="M0.333328 18.3333C0.333328 16.5652 1.03571 14.8695 2.28595 13.6193C3.53619 12.3691 5.23188 11.6667 6.99999 11.6667C8.7681 11.6667 10.4638 12.3691 11.714 13.6193C12.9643 14.8695 13.6667 16.5652 13.6667 18.3333H0.333328ZM7.83333 13.4025V16.6667H11.7158C11.4179 15.8262 10.901 15.0805 10.2185 14.5066C9.5359 13.9328 8.7125 13.5516 7.83333 13.4025ZM6.16666 16.6667V13.4025C5.28749 13.5516 4.46409 13.9328 3.78154 14.5066C3.09899 15.0805 2.58206 15.8262 2.28416 16.6667H6.16666ZM6.99999 10.8333C4.23749 10.8333 1.99999 8.59584 1.99999 5.83334C1.99999 3.07084 4.23749 0.833344 6.99999 0.833344C9.7625 0.833344 12 3.07084 12 5.83334C12 8.59584 9.7625 10.8333 6.99999 10.8333ZM6.99999 9.16668C8.84166 9.16668 10.3333 7.67501 10.3333 5.83334C10.3333 3.99168 8.84166 2.50001 6.99999 2.50001C5.15833 2.50001 3.66666 3.99168 3.66666 5.83334C3.66666 7.67501 5.15833 9.16668 6.99999 9.16668Z" fill="#202020"/>
</svg>
