<svg width="15" height="19" viewBox="0 0 15 19" fill="none" xmlns="http://www.w3.org/2000/svg">
<path d="M0.833336 18.3333C0.833336 16.5652 1.53571 14.8695 2.78596 13.6193C4.0362 12.3691 5.73189 11.6667 7.5 11.6667C9.26811 11.6667 10.9638 12.3691 12.214 13.6193C13.4643 14.8695 14.1667 16.5652 14.1667 18.3333H12.5C12.5 17.0073 11.9732 15.7355 11.0355 14.7978C10.0979 13.8601 8.82608 13.3333 7.5 13.3333C6.17392 13.3333 4.90215 13.8601 3.96447 14.7978C3.02679 15.7355 2.5 17.0073 2.5 18.3333H0.833336ZM7.5 10.8333C4.7375 10.8333 2.5 8.59584 2.5 5.83334C2.5 3.07084 4.7375 0.833344 7.5 0.833344C10.2625 0.833344 12.5 3.07084 12.5 5.83334C12.5 8.59584 10.2625 10.8333 7.5 10.8333ZM7.5 9.16668C9.34167 9.16668 10.8333 7.67501 10.8333 5.83334C10.8333 3.99168 9.34167 2.50001 7.5 2.50001C5.65834 2.50001 4.16667 3.99168 4.16667 5.83334C4.16667 7.67501 5.65834 9.16668 7.5 9.16668Z" fill="white"/>
</svg>
